<mxfile host="Electron" agent="Mozilla/5.0 (Macintosh; Intel Mac OS X 10_15_7) AppleWebKit/537.36 (KHTML, like Gecko) draw.io/28.1.2 Chrome/138.0.7204.243 Electron/37.4.0 Safari/537.36" version="28.1.2">
  <diagram name="Page-1" id="gOcwrjjeW3xdLP6Ky5tG">
    <mxGraphModel dx="4753" dy="7440" grid="1" gridSize="10" guides="1" tooltips="1" connect="1" arrows="1" fold="1" page="1" pageScale="1" pageWidth="850" pageHeight="1100" background="none" math="0" shadow="0">
      <root>
        <mxCell id="0" />
        <mxCell id="1" parent="0" />
        <mxCell id="hh-YMT1tnlc0o9IW1VK7-1" value="&lt;font&gt;diagramma delle classi semplificato del progetto,&lt;/font&gt;&lt;div&gt;&lt;font&gt;dove viene sottolineato l&#39;implentazione dell&#39;architettura mvc.&lt;/font&gt;&lt;/div&gt;&lt;div&gt;&lt;font&gt;per un analisi piÃ¹ dettagliata dei singoli metodi e campi, consultare la documentazione o vedere codice sorgente&lt;/font&gt;&lt;/div&gt;" style="text;html=1;align=center;verticalAlign=middle;whiteSpace=wrap;rounded=0;strokeWidth=5;fontSize=24;" parent="1" vertex="1">
          <mxGeometry x="3320" y="-3800" width="720" height="210" as="geometry" />
        </mxCell>
        <mxCell id="hh-YMT1tnlc0o9IW1VK7-2" value="GameController" style="swimlane;fontStyle=1;align=center;verticalAlign=top;childLayout=stackLayout;horizontal=1;startSize=26;horizontalStack=0;resizeParent=1;resizeParentMax=0;resizeLast=0;collapsible=1;marginBottom=0;whiteSpace=wrap;html=1;fillColor=#f8cecc;gradientColor=#ea6b66;strokeColor=#b85450;strokeWidth=5;" parent="1" vertex="1">
          <mxGeometry x="3270" y="-1768" width="660" height="236" as="geometry" />
        </mxCell>
        <mxCell id="hh-YMT1tnlc0o9IW1VK7-3" value="- player : Player&lt;div&gt;- levelManager : LevelManager&lt;/div&gt;&lt;div&gt;- gameView : GameView&lt;/div&gt;&lt;div&gt;- inputHandler : InputHandler&lt;/div&gt;&lt;div&gt;&lt;br&gt;&lt;/div&gt;&lt;div&gt;...&lt;/div&gt;&lt;div&gt;&lt;br&gt;&lt;/div&gt;" style="text;align=left;verticalAlign=top;spacingLeft=4;spacingRight=4;overflow=hidden;rotatable=0;points=[[0,0.5],[1,0.5]];portConstraint=eastwest;whiteSpace=wrap;html=1;fillColor=#f8cecc;gradientColor=#ea6b66;strokeColor=#b85450;strokeWidth=5;" parent="hh-YMT1tnlc0o9IW1VK7-2" vertex="1">
          <mxGeometry y="26" width="660" height="110" as="geometry" />
        </mxCell>
        <mxCell id="hh-YMT1tnlc0o9IW1VK7-4" value="" style="line;strokeWidth=5;align=left;verticalAlign=middle;spacingTop=-1;spacingLeft=3;spacingRight=3;rotatable=0;labelPosition=right;points=[];portConstraint=eastwest;fillColor=#f8cecc;gradientColor=#ea6b66;strokeColor=#b85450;" parent="hh-YMT1tnlc0o9IW1VK7-2" vertex="1">
          <mxGeometry y="136" width="660" height="8" as="geometry" />
        </mxCell>
        <mxCell id="hh-YMT1tnlc0o9IW1VK7-5" value="+ GameController(Player player, InputHandler inputHandler, GameView gameView, LevelManager levelManager)&lt;div&gt;+ run()&amp;nbsp; : void &lt;span style=&quot;white-space: pre;&quot;&gt;&#x9;&lt;/span&gt;&lt;span style=&quot;white-space: pre;&quot;&gt;&#x9;&lt;/span&gt;//chiama .update() di ogni model, richiede il repaint di gameView&amp;nbsp; (paintComponent(Graphics g))&lt;/div&gt;&lt;div&gt;...&lt;/div&gt;" style="text;align=left;verticalAlign=top;spacingLeft=4;spacingRight=4;overflow=hidden;rotatable=0;points=[[0,0.5],[1,0.5]];portConstraint=eastwest;whiteSpace=wrap;html=1;fillColor=#f8cecc;gradientColor=#ea6b66;strokeColor=#b85450;strokeWidth=5;" parent="hh-YMT1tnlc0o9IW1VK7-2" vertex="1">
          <mxGeometry y="144" width="660" height="92" as="geometry" />
        </mxCell>
        <mxCell id="hh-YMT1tnlc0o9IW1VK7-6" value="GameView&lt;div&gt;&lt;br&gt;&lt;/div&gt;" style="swimlane;fontStyle=1;align=center;verticalAlign=top;childLayout=stackLayout;horizontal=1;startSize=26;horizontalStack=0;resizeParent=1;resizeParentMax=0;resizeLast=0;collapsible=1;marginBottom=0;whiteSpace=wrap;html=1;fillColor=#ffff88;strokeColor=#36393d;fontColor=#080808;strokeWidth=5;" parent="1" vertex="1">
          <mxGeometry x="2070" y="540" width="730" height="390" as="geometry">
            <mxRectangle x="1690" y="340" width="100" height="40" as="alternateBounds" />
          </mxGeometry>
        </mxCell>
        <mxCell id="hh-YMT1tnlc0o9IW1VK7-7" value="&lt;div&gt;&lt;span style=&quot;background-color: transparent;&quot;&gt;- interactableObjectsView : InteractableObjectsView&lt;/span&gt;&lt;/div&gt;&lt;div&gt;- playerView : PlayerView&lt;span style=&quot;background-color: transparent;&quot;&gt;&lt;/span&gt;&lt;/div&gt;&lt;div&gt;- inventoryView : InventoryView&lt;/div&gt;&lt;div&gt;- enemyView : EnemyView&lt;/div&gt;&lt;div&gt;- resultScreenView: ResultScreenView&lt;/div&gt;&lt;div&gt;- levelView : LevelView&lt;/div&gt;&lt;div&gt;&lt;br&gt;&lt;/div&gt;&lt;div&gt;- player : Player&lt;div&gt;- levelManager : LevelManager&lt;/div&gt;&lt;/div&gt;&lt;div&gt;&lt;br&gt;&lt;/div&gt;&lt;div&gt;...&lt;/div&gt;&lt;div&gt;&lt;br&gt;&lt;/div&gt;" style="text;strokeColor=#36393d;fillColor=#ffff88;align=left;verticalAlign=top;spacingLeft=4;spacingRight=4;overflow=hidden;rotatable=0;points=[[0,0.5],[1,0.5]];portConstraint=eastwest;whiteSpace=wrap;html=1;fontColor=#080808;strokeWidth=5;" parent="hh-YMT1tnlc0o9IW1VK7-6" vertex="1">
          <mxGeometry y="26" width="730" height="234" as="geometry" />
        </mxCell>
        <mxCell id="hh-YMT1tnlc0o9IW1VK7-8" value="" style="line;strokeWidth=5;fillColor=#ffff88;align=left;verticalAlign=middle;spacingTop=-1;spacingLeft=3;spacingRight=3;rotatable=0;labelPosition=right;points=[];portConstraint=eastwest;strokeColor=#36393d;fontColor=#080808;" parent="hh-YMT1tnlc0o9IW1VK7-6" vertex="1">
          <mxGeometry y="260" width="730" height="8" as="geometry" />
        </mxCell>
        <mxCell id="hh-YMT1tnlc0o9IW1VK7-9" value="+ GameView(Player player, TileManager tileManager, LevelManager levelManager, JFrame window)&lt;div&gt;+ paintComponent(Graphics g) : void&amp;nbsp;&lt;span style=&quot;white-space: pre;&quot;&gt;&#x9;&lt;/span&gt;//chiama metodo .draw() di ogni View&lt;/div&gt;&lt;div&gt;&lt;br&gt;&lt;/div&gt;&lt;div&gt;...&lt;/div&gt;" style="text;strokeColor=#36393d;fillColor=#ffff88;align=left;verticalAlign=top;spacingLeft=4;spacingRight=4;overflow=hidden;rotatable=0;points=[[0,0.5],[1,0.5]];portConstraint=eastwest;whiteSpace=wrap;html=1;fontColor=#080808;strokeWidth=5;" parent="hh-YMT1tnlc0o9IW1VK7-6" vertex="1">
          <mxGeometry y="268" width="730" height="122" as="geometry" />
        </mxCell>
        <mxCell id="hh-YMT1tnlc0o9IW1VK7-11" value="Player" style="swimlane;fontStyle=1;align=center;verticalAlign=top;childLayout=stackLayout;horizontal=1;startSize=26;horizontalStack=0;resizeParent=1;resizeParentMax=0;resizeLast=0;collapsible=1;marginBottom=0;whiteSpace=wrap;html=1;fillColor=#0050ef;fontColor=#ffffff;strokeColor=#001DBC;strokeWidth=5;" parent="1" vertex="1">
          <mxGeometry x="6120" y="-1210" width="540" height="350" as="geometry" />
        </mxCell>
        <mxCell id="hh-YMT1tnlc0o9IW1VK7-12" value="- levelManager : LevelManager&lt;div&gt;- currentRoom : Room&lt;/div&gt;&lt;div&gt;- currentInteractable : InteractableObject&lt;/div&gt;&lt;div&gt;- inventory : Inventory&lt;/div&gt;&lt;div&gt;- scoreTracker : ScoreTracker&lt;/div&gt;&lt;div&gt;&lt;br&gt;&lt;/div&gt;&lt;div&gt;...&lt;/div&gt;" style="text;strokeColor=#001DBC;fillColor=#0050ef;align=left;verticalAlign=top;spacingLeft=4;spacingRight=4;overflow=hidden;rotatable=0;points=[[0,0.5],[1,0.5]];portConstraint=eastwest;whiteSpace=wrap;html=1;fontColor=#ffffff;strokeWidth=5;" parent="hh-YMT1tnlc0o9IW1VK7-11" vertex="1">
          <mxGeometry y="26" width="540" height="164" as="geometry" />
        </mxCell>
        <mxCell id="hh-YMT1tnlc0o9IW1VK7-13" value="" style="line;strokeWidth=5;fillColor=#0050ef;align=left;verticalAlign=middle;spacingTop=-1;spacingLeft=3;spacingRight=3;rotatable=0;labelPosition=right;points=[];portConstraint=eastwest;strokeColor=#001DBC;fontColor=#ffffff;" parent="hh-YMT1tnlc0o9IW1VK7-11" vertex="1">
          <mxGeometry y="190" width="540" height="8" as="geometry" />
        </mxCell>
        <mxCell id="hh-YMT1tnlc0o9IW1VK7-14" value="+ Player()&lt;div&gt;-setDefaultValues()&lt;/div&gt;&lt;div&gt;&lt;br&gt;&lt;/div&gt;&lt;div&gt;+&lt;span style=&quot;background-color: transparent;&quot;&gt;update(boolean upPressed, boolean downPressed, boolean leftPressed, boolean rightPressed,&lt;/span&gt;&lt;/div&gt;&lt;div&gt;&amp;nbsp; &amp;nbsp; &amp;nbsp; &amp;nbsp; &amp;nbsp; &amp;nbsp; &amp;nbsp; boolean spacePressed, boolean ePressed,&lt;/div&gt;&lt;div&gt;&amp;nbsp; &amp;nbsp; &amp;nbsp; &amp;nbsp; &amp;nbsp; &amp;nbsp; &amp;nbsp; boolean upArrowPressed, boolean downArrowPressed, boolean enterPressed)&lt;/div&gt;&lt;div&gt;...&lt;/div&gt;" style="text;strokeColor=#001DBC;fillColor=#0050ef;align=left;verticalAlign=top;spacingLeft=4;spacingRight=4;overflow=hidden;rotatable=0;points=[[0,0.5],[1,0.5]];portConstraint=eastwest;whiteSpace=wrap;html=1;fontColor=#ffffff;strokeWidth=5;" parent="hh-YMT1tnlc0o9IW1VK7-11" vertex="1">
          <mxGeometry y="198" width="540" height="152" as="geometry" />
        </mxCell>
        <mxCell id="hh-YMT1tnlc0o9IW1VK7-17" value="InteractableObjectsView&lt;div&gt;&lt;br&gt;&lt;/div&gt;" style="swimlane;fontStyle=1;align=center;verticalAlign=top;childLayout=stackLayout;horizontal=1;startSize=26;horizontalStack=0;resizeParent=1;resizeParentMax=0;resizeLast=0;collapsible=1;marginBottom=0;whiteSpace=wrap;html=1;fillColor=#fad7ac;strokeColor=#b46504;fontColor=#000000;strokeWidth=5;" parent="1" vertex="1">
          <mxGeometry x="3060" y="1650" width="450" height="290" as="geometry" />
        </mxCell>
        <mxCell id="hh-YMT1tnlc0o9IW1VK7-18" value="&lt;div&gt;- paperBoxViews : List&amp;lt;PaperBoxView&amp;gt;&lt;/div&gt;&lt;div&gt;- cardViews : List&amp;lt;CardView&amp;gt;&lt;/div&gt;&lt;div&gt;- computerViews : List&amp;lt;ComputerView&amp;gt;&lt;/div&gt;&lt;div&gt;- ladderViews : List &amp;lt;Ladder&amp;gt;&lt;/div&gt;&lt;div&gt;- metalLockerViews : List &amp;lt;MetalLockerView&amp;gt;&lt;/div&gt;&lt;div&gt;- redBoxViews :&amp;nbsp;&lt;span style=&quot;background-color: transparent;&quot;&gt;List&amp;lt;RedBoxView&amp;gt;&lt;/span&gt;&lt;/div&gt;&lt;div&gt;&lt;span style=&quot;background-color: transparent;&quot;&gt;-&lt;/span&gt;&lt;span style=&quot;background-color: transparent;&quot;&gt;&amp;nbsp;woodLockerViews :&amp;nbsp;&lt;/span&gt;&lt;span style=&quot;background-color: transparent;&quot;&gt;List&amp;lt;WoodLockerView&amp;gt;&lt;/span&gt;&lt;/div&gt;&lt;div&gt;&lt;span style=&quot;background-color: transparent;&quot;&gt;&lt;br&gt;&lt;/span&gt;&lt;/div&gt;&lt;div&gt;&lt;span style=&quot;background-color: transparent;&quot;&gt;- currentRoom : Room&lt;/span&gt;&lt;/div&gt;&lt;div&gt;- levelManager : LevelManager&lt;span style=&quot;background-color: transparent;&quot;&gt;&lt;/span&gt;&lt;/div&gt;&lt;div&gt;...&lt;/div&gt;" style="text;strokeColor=#b46504;fillColor=#fad7ac;align=left;verticalAlign=top;spacingLeft=4;spacingRight=4;overflow=hidden;rotatable=0;points=[[0,0.5],[1,0.5]];portConstraint=eastwest;whiteSpace=wrap;html=1;fontColor=#000000;strokeWidth=5;" parent="hh-YMT1tnlc0o9IW1VK7-17" vertex="1">
          <mxGeometry y="26" width="450" height="174" as="geometry" />
        </mxCell>
        <mxCell id="hh-YMT1tnlc0o9IW1VK7-19" value="" style="line;strokeWidth=5;fillColor=#fad7ac;align=left;verticalAlign=middle;spacingTop=-1;spacingLeft=3;spacingRight=3;rotatable=0;labelPosition=right;points=[];portConstraint=eastwest;strokeColor=#b46504;fontColor=#000000;" parent="hh-YMT1tnlc0o9IW1VK7-17" vertex="1">
          <mxGeometry y="200" width="450" height="8" as="geometry" />
        </mxCell>
        <mxCell id="hh-YMT1tnlc0o9IW1VK7-20" value="+ drawInteractableObjects(Graphics2D g2d) : void&lt;div&gt;&lt;br&gt;&lt;/div&gt;&lt;div&gt;...&lt;/div&gt;" style="text;strokeColor=#b46504;fillColor=#fad7ac;align=left;verticalAlign=top;spacingLeft=4;spacingRight=4;overflow=hidden;rotatable=0;points=[[0,0.5],[1,0.5]];portConstraint=eastwest;whiteSpace=wrap;html=1;fontColor=#000000;strokeWidth=5;" parent="hh-YMT1tnlc0o9IW1VK7-17" vertex="1">
          <mxGeometry y="208" width="450" height="82" as="geometry" />
        </mxCell>
        <mxCell id="hh-YMT1tnlc0o9IW1VK7-23" value="&lt;div&gt;PlayerView&lt;/div&gt;&lt;div&gt;&lt;br&gt;&lt;/div&gt;" style="swimlane;fontStyle=1;align=center;verticalAlign=top;childLayout=stackLayout;horizontal=1;startSize=26;horizontalStack=0;resizeParent=1;resizeParentMax=0;resizeLast=0;collapsible=1;marginBottom=0;whiteSpace=wrap;html=1;fillColor=#cdeb8b;strokeColor=#36393d;fontColor=#000000;strokeWidth=5;" parent="1" vertex="1">
          <mxGeometry x="4025" y="-500" width="250" height="230" as="geometry" />
        </mxCell>
        <mxCell id="hh-YMT1tnlc0o9IW1VK7-24" value="- player : Player&lt;div&gt;&lt;br&gt;&lt;div&gt;...&lt;/div&gt;&lt;/div&gt;" style="text;strokeColor=#36393d;fillColor=#cdeb8b;align=left;verticalAlign=top;spacingLeft=4;spacingRight=4;overflow=hidden;rotatable=0;points=[[0,0.5],[1,0.5]];portConstraint=eastwest;whiteSpace=wrap;html=1;fontColor=#000000;strokeWidth=5;" parent="hh-YMT1tnlc0o9IW1VK7-23" vertex="1">
          <mxGeometry y="26" width="250" height="94" as="geometry" />
        </mxCell>
        <mxCell id="hh-YMT1tnlc0o9IW1VK7-25" value="" style="line;strokeWidth=5;fillColor=#cdeb8b;align=left;verticalAlign=middle;spacingTop=-1;spacingLeft=3;spacingRight=3;rotatable=0;labelPosition=right;points=[];portConstraint=eastwest;strokeColor=#36393d;fontColor=#000000;" parent="hh-YMT1tnlc0o9IW1VK7-23" vertex="1">
          <mxGeometry y="120" width="250" height="8" as="geometry" />
        </mxCell>
        <mxCell id="hh-YMT1tnlc0o9IW1VK7-26" value="+ PlayerView(Player player) : void&lt;div&gt;+ draw(Graphics2D g2d) : void&lt;/div&gt;&lt;div&gt;&lt;br&gt;&lt;/div&gt;&lt;div&gt;...&lt;/div&gt;" style="text;strokeColor=#36393d;fillColor=#cdeb8b;align=left;verticalAlign=top;spacingLeft=4;spacingRight=4;overflow=hidden;rotatable=0;points=[[0,0.5],[1,0.5]];portConstraint=eastwest;whiteSpace=wrap;html=1;fontColor=#000000;strokeWidth=5;" parent="hh-YMT1tnlc0o9IW1VK7-23" vertex="1">
          <mxGeometry y="128" width="250" height="102" as="geometry" />
        </mxCell>
        <mxCell id="hh-YMT1tnlc0o9IW1VK7-28" value="" style="endArrow=open;endFill=1;endSize=12;html=1;rounded=0;exitX=1;exitY=0.5;exitDx=0;exitDy=0;entryX=0;entryY=0.5;entryDx=0;entryDy=0;strokeWidth=5;" parent="1" source="hh-YMT1tnlc0o9IW1VK7-24" target="hh-YMT1tnlc0o9IW1VK7-12" edge="1">
          <mxGeometry width="160" relative="1" as="geometry">
            <mxPoint x="3115" y="-1520" as="sourcePoint" />
            <mxPoint x="3275" y="-1520" as="targetPoint" />
          </mxGeometry>
        </mxCell>
        <mxCell id="hh-YMT1tnlc0o9IW1VK7-29" value="&lt;div&gt;PaperBoxView&lt;/div&gt;&lt;div&gt;&lt;br&gt;&lt;/div&gt;" style="swimlane;fontStyle=1;align=center;verticalAlign=top;childLayout=stackLayout;horizontal=1;startSize=26;horizontalStack=0;resizeParent=1;resizeParentMax=0;resizeLast=0;collapsible=1;marginBottom=0;whiteSpace=wrap;html=1;fillColor=#fad7ac;strokeColor=#b46504;fontColor=#000000;strokeWidth=5;" parent="1" vertex="1">
          <mxGeometry x="3980" y="950" width="240" height="180" as="geometry" />
        </mxCell>
        <mxCell id="hh-YMT1tnlc0o9IW1VK7-30" value="- paperBox : PaperBox&lt;div&gt;&lt;br&gt;&lt;/div&gt;&lt;div&gt;...&lt;/div&gt;" style="text;strokeColor=#b46504;fillColor=#fad7ac;align=left;verticalAlign=top;spacingLeft=4;spacingRight=4;overflow=hidden;rotatable=0;points=[[0,0.5],[1,0.5]];portConstraint=eastwest;whiteSpace=wrap;html=1;fontColor=#000000;strokeWidth=5;" parent="hh-YMT1tnlc0o9IW1VK7-29" vertex="1">
          <mxGeometry y="26" width="240" height="64" as="geometry" />
        </mxCell>
        <mxCell id="hh-YMT1tnlc0o9IW1VK7-31" value="" style="line;strokeWidth=5;fillColor=#fad7ac;align=left;verticalAlign=middle;spacingTop=-1;spacingLeft=3;spacingRight=3;rotatable=0;labelPosition=right;points=[];portConstraint=eastwest;strokeColor=#b46504;fontColor=#000000;" parent="hh-YMT1tnlc0o9IW1VK7-29" vertex="1">
          <mxGeometry y="90" width="240" height="8" as="geometry" />
        </mxCell>
        <mxCell id="hh-YMT1tnlc0o9IW1VK7-32" value="+ PaperBoxView (Paperbox paperbox)&lt;div&gt;&lt;span style=&quot;background-color: transparent;&quot;&gt;+ draw(Graphics2D g2d) : void&lt;/span&gt;&lt;/div&gt;&lt;div&gt;&lt;span style=&quot;background-color: transparent;&quot;&gt;...&lt;/span&gt;&lt;/div&gt;" style="text;strokeColor=#b46504;fillColor=#fad7ac;align=left;verticalAlign=top;spacingLeft=4;spacingRight=4;overflow=hidden;rotatable=0;points=[[0,0.5],[1,0.5]];portConstraint=eastwest;whiteSpace=wrap;html=1;fontColor=#000000;strokeWidth=5;" parent="hh-YMT1tnlc0o9IW1VK7-29" vertex="1">
          <mxGeometry y="98" width="240" height="82" as="geometry" />
        </mxCell>
        <mxCell id="hh-YMT1tnlc0o9IW1VK7-33" value="" style="endArrow=open;endFill=1;endSize=12;html=1;rounded=0;fontColor=#000000;strokeWidth=5;" parent="1" source="hh-YMT1tnlc0o9IW1VK7-17" target="hh-YMT1tnlc0o9IW1VK7-29" edge="1">
          <mxGeometry width="160" relative="1" as="geometry">
            <mxPoint x="3770" y="2035" as="sourcePoint" />
            <mxPoint x="4190" y="2030" as="targetPoint" />
          </mxGeometry>
        </mxCell>
        <mxCell id="hh-YMT1tnlc0o9IW1VK7-34" value="&lt;div&gt;CardView&lt;/div&gt;&lt;div&gt;&lt;br&gt;&lt;/div&gt;&lt;div&gt;&lt;br&gt;&lt;/div&gt;" style="swimlane;fontStyle=1;align=center;verticalAlign=top;childLayout=stackLayout;horizontal=1;startSize=26;horizontalStack=0;resizeParent=1;resizeParentMax=0;resizeLast=0;collapsible=1;marginBottom=0;whiteSpace=wrap;html=1;fillColor=#fad7ac;strokeColor=#b46504;fontColor=#000000;strokeWidth=5;" parent="1" vertex="1">
          <mxGeometry x="3980" y="1180" width="240" height="180" as="geometry" />
        </mxCell>
        <mxCell id="hh-YMT1tnlc0o9IW1VK7-35" value="- card : Card&lt;div&gt;...&lt;/div&gt;" style="text;strokeColor=#b46504;fillColor=#fad7ac;align=left;verticalAlign=top;spacingLeft=4;spacingRight=4;overflow=hidden;rotatable=0;points=[[0,0.5],[1,0.5]];portConstraint=eastwest;whiteSpace=wrap;html=1;fontColor=#000000;strokeWidth=5;" parent="hh-YMT1tnlc0o9IW1VK7-34" vertex="1">
          <mxGeometry y="26" width="240" height="64" as="geometry" />
        </mxCell>
        <mxCell id="hh-YMT1tnlc0o9IW1VK7-36" value="" style="line;strokeWidth=5;fillColor=#fad7ac;align=left;verticalAlign=middle;spacingTop=-1;spacingLeft=3;spacingRight=3;rotatable=0;labelPosition=right;points=[];portConstraint=eastwest;strokeColor=#b46504;fontColor=#000000;" parent="hh-YMT1tnlc0o9IW1VK7-34" vertex="1">
          <mxGeometry y="90" width="240" height="8" as="geometry" />
        </mxCell>
        <mxCell id="hh-YMT1tnlc0o9IW1VK7-37" value="+ CardView(Card card)&lt;div&gt;+ draw(Graphics2D g2d) : void&lt;/div&gt;&lt;div&gt;...&lt;/div&gt;" style="text;strokeColor=#b46504;fillColor=#fad7ac;align=left;verticalAlign=top;spacingLeft=4;spacingRight=4;overflow=hidden;rotatable=0;points=[[0,0.5],[1,0.5]];portConstraint=eastwest;whiteSpace=wrap;html=1;fontColor=#000000;strokeWidth=5;" parent="hh-YMT1tnlc0o9IW1VK7-34" vertex="1">
          <mxGeometry y="98" width="240" height="82" as="geometry" />
        </mxCell>
        <mxCell id="hh-YMT1tnlc0o9IW1VK7-38" value="" style="endArrow=open;endFill=1;endSize=12;html=1;rounded=0;fontColor=#000000;strokeWidth=5;" parent="1" source="hh-YMT1tnlc0o9IW1VK7-17" target="hh-YMT1tnlc0o9IW1VK7-34" edge="1">
          <mxGeometry width="160" relative="1" as="geometry">
            <mxPoint x="3650" y="2106" as="sourcePoint" />
            <mxPoint x="4120" y="1790" as="targetPoint" />
          </mxGeometry>
        </mxCell>
        <mxCell id="hh-YMT1tnlc0o9IW1VK7-39" value="&lt;div&gt;ComputerView&lt;/div&gt;&lt;div&gt;&lt;br&gt;&lt;/div&gt;" style="swimlane;fontStyle=1;align=center;verticalAlign=top;childLayout=stackLayout;horizontal=1;startSize=26;horizontalStack=0;resizeParent=1;resizeParentMax=0;resizeLast=0;collapsible=1;marginBottom=0;whiteSpace=wrap;html=1;fillColor=#fad7ac;strokeColor=#b46504;fontColor=#000000;strokeWidth=5;" parent="1" vertex="1">
          <mxGeometry x="3980" y="1400" width="240" height="180" as="geometry" />
        </mxCell>
        <mxCell id="hh-YMT1tnlc0o9IW1VK7-40" value="- computer : Computer&lt;div&gt;...&lt;/div&gt;" style="text;strokeColor=#b46504;fillColor=#fad7ac;align=left;verticalAlign=top;spacingLeft=4;spacingRight=4;overflow=hidden;rotatable=0;points=[[0,0.5],[1,0.5]];portConstraint=eastwest;whiteSpace=wrap;html=1;fontColor=#000000;strokeWidth=5;" parent="hh-YMT1tnlc0o9IW1VK7-39" vertex="1">
          <mxGeometry y="26" width="240" height="64" as="geometry" />
        </mxCell>
        <mxCell id="hh-YMT1tnlc0o9IW1VK7-41" value="" style="line;strokeWidth=5;fillColor=#fad7ac;align=left;verticalAlign=middle;spacingTop=-1;spacingLeft=3;spacingRight=3;rotatable=0;labelPosition=right;points=[];portConstraint=eastwest;strokeColor=#b46504;fontColor=#000000;" parent="hh-YMT1tnlc0o9IW1VK7-39" vertex="1">
          <mxGeometry y="90" width="240" height="8" as="geometry" />
        </mxCell>
        <mxCell id="hh-YMT1tnlc0o9IW1VK7-42" value="+ ComputerView(Computer computer)&lt;div&gt;+ draw(Graphics2D g2d)&lt;/div&gt;&lt;div&gt;...&lt;/div&gt;" style="text;strokeColor=#b46504;fillColor=#fad7ac;align=left;verticalAlign=top;spacingLeft=4;spacingRight=4;overflow=hidden;rotatable=0;points=[[0,0.5],[1,0.5]];portConstraint=eastwest;whiteSpace=wrap;html=1;fontColor=#000000;strokeWidth=5;" parent="hh-YMT1tnlc0o9IW1VK7-39" vertex="1">
          <mxGeometry y="98" width="240" height="82" as="geometry" />
        </mxCell>
        <mxCell id="hh-YMT1tnlc0o9IW1VK7-43" value="" style="endArrow=open;endFill=1;endSize=12;html=1;rounded=0;entryX=0;entryY=0.5;entryDx=0;entryDy=0;fontColor=#000000;strokeWidth=5;" parent="1" source="hh-YMT1tnlc0o9IW1VK7-17" target="hh-YMT1tnlc0o9IW1VK7-40" edge="1">
          <mxGeometry width="160" relative="1" as="geometry">
            <mxPoint x="3770" y="1991" as="sourcePoint" />
            <mxPoint x="4240" y="1850" as="targetPoint" />
          </mxGeometry>
        </mxCell>
        <mxCell id="hh-YMT1tnlc0o9IW1VK7-44" value="&lt;div&gt;LadderView&lt;/div&gt;&lt;div&gt;&lt;br&gt;&lt;/div&gt;" style="swimlane;fontStyle=1;align=center;verticalAlign=top;childLayout=stackLayout;horizontal=1;startSize=26;horizontalStack=0;resizeParent=1;resizeParentMax=0;resizeLast=0;collapsible=1;marginBottom=0;whiteSpace=wrap;html=1;fillColor=#fad7ac;strokeColor=#b46504;fontColor=#000000;strokeWidth=5;" parent="1" vertex="1">
          <mxGeometry x="3980" y="1620" width="240" height="180" as="geometry" />
        </mxCell>
        <mxCell id="hh-YMT1tnlc0o9IW1VK7-45" value="- ladder : Ladder&lt;div&gt;...&lt;/div&gt;" style="text;strokeColor=#b46504;fillColor=#fad7ac;align=left;verticalAlign=top;spacingLeft=4;spacingRight=4;overflow=hidden;rotatable=0;points=[[0,0.5],[1,0.5]];portConstraint=eastwest;whiteSpace=wrap;html=1;fontColor=#000000;strokeWidth=5;" parent="hh-YMT1tnlc0o9IW1VK7-44" vertex="1">
          <mxGeometry y="26" width="240" height="64" as="geometry" />
        </mxCell>
        <mxCell id="hh-YMT1tnlc0o9IW1VK7-46" value="" style="line;strokeWidth=5;fillColor=#fad7ac;align=left;verticalAlign=middle;spacingTop=-1;spacingLeft=3;spacingRight=3;rotatable=0;labelPosition=right;points=[];portConstraint=eastwest;strokeColor=#b46504;fontColor=#000000;" parent="hh-YMT1tnlc0o9IW1VK7-44" vertex="1">
          <mxGeometry y="90" width="240" height="8" as="geometry" />
        </mxCell>
        <mxCell id="hh-YMT1tnlc0o9IW1VK7-47" value="+ LadderView(Ladder ladder)&lt;div&gt;+ draw(Graphics2D g2d)&lt;/div&gt;&lt;div&gt;...&lt;/div&gt;" style="text;strokeColor=#b46504;fillColor=#fad7ac;align=left;verticalAlign=top;spacingLeft=4;spacingRight=4;overflow=hidden;rotatable=0;points=[[0,0.5],[1,0.5]];portConstraint=eastwest;whiteSpace=wrap;html=1;fontColor=#000000;strokeWidth=5;" parent="hh-YMT1tnlc0o9IW1VK7-44" vertex="1">
          <mxGeometry y="98" width="240" height="82" as="geometry" />
        </mxCell>
        <mxCell id="hh-YMT1tnlc0o9IW1VK7-48" value="" style="endArrow=open;endFill=1;endSize=12;html=1;rounded=0;entryX=0;entryY=0.5;entryDx=0;entryDy=0;fontColor=#000000;strokeWidth=5;" parent="1" source="hh-YMT1tnlc0o9IW1VK7-17" target="hh-YMT1tnlc0o9IW1VK7-45" edge="1">
          <mxGeometry width="160" relative="1" as="geometry">
            <mxPoint x="3670" y="2022" as="sourcePoint" />
            <mxPoint x="4144" y="1940" as="targetPoint" />
          </mxGeometry>
        </mxCell>
        <mxCell id="hh-YMT1tnlc0o9IW1VK7-49" value="&lt;div&gt;MetalLockerView&lt;/div&gt;" style="swimlane;fontStyle=1;align=center;verticalAlign=top;childLayout=stackLayout;horizontal=1;startSize=26;horizontalStack=0;resizeParent=1;resizeParentMax=0;resizeLast=0;collapsible=1;marginBottom=0;whiteSpace=wrap;html=1;fillColor=#fad7ac;strokeColor=#b46504;fontColor=#000000;strokeWidth=5;" parent="1" vertex="1">
          <mxGeometry x="3980" y="1840" width="260" height="180" as="geometry" />
        </mxCell>
        <mxCell id="hh-YMT1tnlc0o9IW1VK7-50" value="- metalLocker : MetalLocker&lt;div&gt;...&lt;/div&gt;" style="text;strokeColor=#b46504;fillColor=#fad7ac;align=left;verticalAlign=top;spacingLeft=4;spacingRight=4;overflow=hidden;rotatable=0;points=[[0,0.5],[1,0.5]];portConstraint=eastwest;whiteSpace=wrap;html=1;fontColor=#000000;strokeWidth=5;" parent="hh-YMT1tnlc0o9IW1VK7-49" vertex="1">
          <mxGeometry y="26" width="260" height="64" as="geometry" />
        </mxCell>
        <mxCell id="hh-YMT1tnlc0o9IW1VK7-51" value="" style="line;strokeWidth=5;fillColor=#fad7ac;align=left;verticalAlign=middle;spacingTop=-1;spacingLeft=3;spacingRight=3;rotatable=0;labelPosition=right;points=[];portConstraint=eastwest;strokeColor=#b46504;fontColor=#000000;" parent="hh-YMT1tnlc0o9IW1VK7-49" vertex="1">
          <mxGeometry y="90" width="260" height="8" as="geometry" />
        </mxCell>
        <mxCell id="hh-YMT1tnlc0o9IW1VK7-52" value="+ MetalLockerView(MetalLocker metalLocker)&lt;div&gt;+ draw(Graphics2D g2d)&lt;/div&gt;&lt;div&gt;...&lt;/div&gt;" style="text;strokeColor=#b46504;fillColor=#fad7ac;align=left;verticalAlign=top;spacingLeft=4;spacingRight=4;overflow=hidden;rotatable=0;points=[[0,0.5],[1,0.5]];portConstraint=eastwest;whiteSpace=wrap;html=1;fontColor=#000000;strokeWidth=5;" parent="hh-YMT1tnlc0o9IW1VK7-49" vertex="1">
          <mxGeometry y="98" width="260" height="82" as="geometry" />
        </mxCell>
        <mxCell id="hh-YMT1tnlc0o9IW1VK7-53" value="" style="endArrow=open;endFill=1;endSize=12;html=1;rounded=0;entryX=0;entryY=0.5;entryDx=0;entryDy=0;fontColor=#000000;strokeWidth=5;" parent="1" source="hh-YMT1tnlc0o9IW1VK7-17" target="hh-YMT1tnlc0o9IW1VK7-50" edge="1">
          <mxGeometry width="160" relative="1" as="geometry">
            <mxPoint x="3610" y="2106" as="sourcePoint" />
            <mxPoint x="4080" y="1920" as="targetPoint" />
          </mxGeometry>
        </mxCell>
        <mxCell id="hh-YMT1tnlc0o9IW1VK7-54" value="&lt;div&gt;RedBoxView&lt;/div&gt;" style="swimlane;fontStyle=1;align=center;verticalAlign=top;childLayout=stackLayout;horizontal=1;startSize=26;horizontalStack=0;resizeParent=1;resizeParentMax=0;resizeLast=0;collapsible=1;marginBottom=0;whiteSpace=wrap;html=1;fillColor=#fad7ac;strokeColor=#b46504;fontColor=#000000;strokeWidth=5;" parent="1" vertex="1">
          <mxGeometry x="3980" y="2060" width="240" height="180" as="geometry" />
        </mxCell>
        <mxCell id="hh-YMT1tnlc0o9IW1VK7-55" value="-redBox : RedBox&lt;br&gt;&lt;div&gt;...&lt;/div&gt;" style="text;strokeColor=#b46504;fillColor=#fad7ac;align=left;verticalAlign=top;spacingLeft=4;spacingRight=4;overflow=hidden;rotatable=0;points=[[0,0.5],[1,0.5]];portConstraint=eastwest;whiteSpace=wrap;html=1;fontColor=#000000;strokeWidth=5;" parent="hh-YMT1tnlc0o9IW1VK7-54" vertex="1">
          <mxGeometry y="26" width="240" height="64" as="geometry" />
        </mxCell>
        <mxCell id="hh-YMT1tnlc0o9IW1VK7-56" value="" style="line;strokeWidth=5;fillColor=#fad7ac;align=left;verticalAlign=middle;spacingTop=-1;spacingLeft=3;spacingRight=3;rotatable=0;labelPosition=right;points=[];portConstraint=eastwest;strokeColor=#b46504;fontColor=#000000;" parent="hh-YMT1tnlc0o9IW1VK7-54" vertex="1">
          <mxGeometry y="90" width="240" height="8" as="geometry" />
        </mxCell>
        <mxCell id="hh-YMT1tnlc0o9IW1VK7-57" value="+ RedBoxView(RedBox redBox&lt;span style=&quot;background-color: transparent;&quot;&gt;)&lt;/span&gt;&lt;div&gt;&lt;div&gt;+ draw(Graphics2D g2d)&lt;/div&gt;&lt;div&gt;...&lt;/div&gt;&lt;/div&gt;" style="text;strokeColor=#b46504;fillColor=#fad7ac;align=left;verticalAlign=top;spacingLeft=4;spacingRight=4;overflow=hidden;rotatable=0;points=[[0,0.5],[1,0.5]];portConstraint=eastwest;whiteSpace=wrap;html=1;fontColor=#000000;strokeWidth=5;" parent="hh-YMT1tnlc0o9IW1VK7-54" vertex="1">
          <mxGeometry y="98" width="240" height="82" as="geometry" />
        </mxCell>
        <mxCell id="hh-YMT1tnlc0o9IW1VK7-58" value="" style="endArrow=open;endFill=1;endSize=12;html=1;rounded=0;entryX=0;entryY=0.5;entryDx=0;entryDy=0;fontColor=#000000;strokeWidth=5;" parent="1" source="hh-YMT1tnlc0o9IW1VK7-17" target="hh-YMT1tnlc0o9IW1VK7-55" edge="1">
          <mxGeometry width="160" relative="1" as="geometry">
            <mxPoint x="3640" y="2122" as="sourcePoint" />
            <mxPoint x="4111" y="2080" as="targetPoint" />
          </mxGeometry>
        </mxCell>
        <mxCell id="hh-YMT1tnlc0o9IW1VK7-60" value="&lt;div&gt;WoodLockerView&lt;/div&gt;" style="swimlane;fontStyle=1;align=center;verticalAlign=top;childLayout=stackLayout;horizontal=1;startSize=26;horizontalStack=0;resizeParent=1;resizeParentMax=0;resizeLast=0;collapsible=1;marginBottom=0;whiteSpace=wrap;html=1;fillColor=#fad7ac;strokeColor=#b46504;fontColor=#000000;strokeWidth=5;" parent="1" vertex="1">
          <mxGeometry x="3980" y="2300" width="240" height="180" as="geometry" />
        </mxCell>
        <mxCell id="hh-YMT1tnlc0o9IW1VK7-61" value="-woodLocker : WoodLocker&lt;br&gt;&lt;div&gt;...&lt;/div&gt;" style="text;strokeColor=#b46504;fillColor=#fad7ac;align=left;verticalAlign=top;spacingLeft=4;spacingRight=4;overflow=hidden;rotatable=0;points=[[0,0.5],[1,0.5]];portConstraint=eastwest;whiteSpace=wrap;html=1;fontColor=#000000;strokeWidth=5;" parent="hh-YMT1tnlc0o9IW1VK7-60" vertex="1">
          <mxGeometry y="26" width="240" height="64" as="geometry" />
        </mxCell>
        <mxCell id="hh-YMT1tnlc0o9IW1VK7-62" value="" style="line;strokeWidth=5;fillColor=#fad7ac;align=left;verticalAlign=middle;spacingTop=-1;spacingLeft=3;spacingRight=3;rotatable=0;labelPosition=right;points=[];portConstraint=eastwest;strokeColor=#b46504;fontColor=#000000;" parent="hh-YMT1tnlc0o9IW1VK7-60" vertex="1">
          <mxGeometry y="90" width="240" height="8" as="geometry" />
        </mxCell>
        <mxCell id="hh-YMT1tnlc0o9IW1VK7-63" value="+ WoodLockerView (Graphics2D g2d)&lt;div&gt;&lt;div&gt;+ draw(Graphics2D g2d)&lt;/div&gt;&lt;div&gt;...&lt;/div&gt;&lt;/div&gt;" style="text;strokeColor=#b46504;fillColor=#fad7ac;align=left;verticalAlign=top;spacingLeft=4;spacingRight=4;overflow=hidden;rotatable=0;points=[[0,0.5],[1,0.5]];portConstraint=eastwest;whiteSpace=wrap;html=1;fontColor=#000000;strokeWidth=5;" parent="hh-YMT1tnlc0o9IW1VK7-60" vertex="1">
          <mxGeometry y="98" width="240" height="82" as="geometry" />
        </mxCell>
        <mxCell id="hh-YMT1tnlc0o9IW1VK7-64" value="" style="endArrow=open;endFill=1;endSize=12;html=1;rounded=0;fontColor=#000000;strokeWidth=5;" parent="1" source="hh-YMT1tnlc0o9IW1VK7-17" target="hh-YMT1tnlc0o9IW1VK7-60" edge="1">
          <mxGeometry width="160" relative="1" as="geometry">
            <mxPoint x="3310.0015126050403" y="2060" as="sourcePoint" />
            <mxPoint x="3916.7199999999993" y="2441" as="targetPoint" />
          </mxGeometry>
        </mxCell>
        <mxCell id="hh-YMT1tnlc0o9IW1VK7-65" value="PaperBox" style="swimlane;fontStyle=1;align=center;verticalAlign=top;childLayout=stackLayout;horizontal=1;startSize=26;horizontalStack=0;resizeParent=1;resizeParentMax=0;resizeLast=0;collapsible=1;marginBottom=0;whiteSpace=wrap;html=1;fillColor=#1ba1e2;fontColor=#ffffff;strokeColor=#006EAF;fillStyle=auto;strokeWidth=5;" parent="1" vertex="1">
          <mxGeometry x="5470" y="930" width="240" height="180" as="geometry" />
        </mxCell>
        <mxCell id="hh-YMT1tnlc0o9IW1VK7-66" value="..." style="text;strokeColor=#006EAF;fillColor=#1ba1e2;align=left;verticalAlign=top;spacingLeft=4;spacingRight=4;overflow=hidden;rotatable=0;points=[[0,0.5],[1,0.5]];portConstraint=eastwest;whiteSpace=wrap;html=1;fontColor=#ffffff;strokeWidth=5;" parent="hh-YMT1tnlc0o9IW1VK7-65" vertex="1">
          <mxGeometry y="26" width="240" height="64" as="geometry" />
        </mxCell>
        <mxCell id="hh-YMT1tnlc0o9IW1VK7-67" value="" style="line;strokeWidth=5;fillColor=#1ba1e2;align=left;verticalAlign=middle;spacingTop=-1;spacingLeft=3;spacingRight=3;rotatable=0;labelPosition=right;points=[];portConstraint=eastwest;strokeColor=#006EAF;fontColor=#ffffff;" parent="hh-YMT1tnlc0o9IW1VK7-65" vertex="1">
          <mxGeometry y="90" width="240" height="8" as="geometry" />
        </mxCell>
        <mxCell id="hh-YMT1tnlc0o9IW1VK7-68" value="+ PaperBox(int x, int y)&lt;div&gt;+ open(Player player) : void&lt;/div&gt;&lt;div&gt;&lt;div&gt;...&lt;/div&gt;&lt;/div&gt;" style="text;strokeColor=#006EAF;fillColor=#1ba1e2;align=left;verticalAlign=top;spacingLeft=4;spacingRight=4;overflow=hidden;rotatable=0;points=[[0,0.5],[1,0.5]];portConstraint=eastwest;whiteSpace=wrap;html=1;fontColor=#ffffff;strokeWidth=5;" parent="hh-YMT1tnlc0o9IW1VK7-65" vertex="1">
          <mxGeometry y="98" width="240" height="82" as="geometry" />
        </mxCell>
        <mxCell id="hh-YMT1tnlc0o9IW1VK7-69" value="" style="endArrow=open;endFill=1;endSize=12;html=1;rounded=0;strokeWidth=5;" parent="1" source="hh-YMT1tnlc0o9IW1VK7-29" target="hh-YMT1tnlc0o9IW1VK7-65" edge="1">
          <mxGeometry width="160" relative="1" as="geometry">
            <mxPoint x="4990" y="1560" as="sourcePoint" />
            <mxPoint x="5514" y="1040" as="targetPoint" />
          </mxGeometry>
        </mxCell>
        <mxCell id="hh-YMT1tnlc0o9IW1VK7-70" value="Card" style="swimlane;fontStyle=1;align=center;verticalAlign=top;childLayout=stackLayout;horizontal=1;startSize=26;horizontalStack=0;resizeParent=1;resizeParentMax=0;resizeLast=0;collapsible=1;marginBottom=0;whiteSpace=wrap;html=1;fillColor=#1ba1e2;fontColor=#ffffff;strokeColor=#006EAF;strokeWidth=5;" parent="1" vertex="1">
          <mxGeometry x="5470" y="1160" width="240" height="180" as="geometry" />
        </mxCell>
        <mxCell id="hh-YMT1tnlc0o9IW1VK7-71" value="..." style="text;strokeColor=#006EAF;fillColor=#1ba1e2;align=left;verticalAlign=top;spacingLeft=4;spacingRight=4;overflow=hidden;rotatable=0;points=[[0,0.5],[1,0.5]];portConstraint=eastwest;whiteSpace=wrap;html=1;fontColor=#ffffff;strokeWidth=5;" parent="hh-YMT1tnlc0o9IW1VK7-70" vertex="1">
          <mxGeometry y="26" width="240" height="64" as="geometry" />
        </mxCell>
        <mxCell id="hh-YMT1tnlc0o9IW1VK7-72" value="" style="line;strokeWidth=5;fillColor=#1ba1e2;align=left;verticalAlign=middle;spacingTop=-1;spacingLeft=3;spacingRight=3;rotatable=0;labelPosition=right;points=[];portConstraint=eastwest;strokeColor=#006EAF;fontColor=#ffffff;" parent="hh-YMT1tnlc0o9IW1VK7-70" vertex="1">
          <mxGeometry y="90" width="240" height="8" as="geometry" />
        </mxCell>
        <mxCell id="hh-YMT1tnlc0o9IW1VK7-73" value="+ Card (int x, int y)&lt;div&gt;+ open(Player player)&lt;/div&gt;&lt;div&gt;&lt;br&gt;&lt;/div&gt;&lt;div&gt;...&lt;/div&gt;" style="text;strokeColor=#006EAF;fillColor=#1ba1e2;align=left;verticalAlign=top;spacingLeft=4;spacingRight=4;overflow=hidden;rotatable=0;points=[[0,0.5],[1,0.5]];portConstraint=eastwest;whiteSpace=wrap;html=1;fontColor=#ffffff;strokeWidth=5;" parent="hh-YMT1tnlc0o9IW1VK7-70" vertex="1">
          <mxGeometry y="98" width="240" height="82" as="geometry" />
        </mxCell>
        <mxCell id="hh-YMT1tnlc0o9IW1VK7-74" value="" style="endArrow=open;endFill=1;endSize=12;html=1;rounded=0;exitX=1;exitY=0.5;exitDx=0;exitDy=0;entryX=0;entryY=0.5;entryDx=0;entryDy=0;strokeWidth=5;" parent="1" source="hh-YMT1tnlc0o9IW1VK7-35" target="hh-YMT1tnlc0o9IW1VK7-71" edge="1">
          <mxGeometry width="160" relative="1" as="geometry">
            <mxPoint x="4810" y="1300" as="sourcePoint" />
            <mxPoint x="5270" y="1300" as="targetPoint" />
          </mxGeometry>
        </mxCell>
        <mxCell id="hh-YMT1tnlc0o9IW1VK7-75" value="Computer" style="swimlane;fontStyle=1;align=center;verticalAlign=top;childLayout=stackLayout;horizontal=1;startSize=26;horizontalStack=0;resizeParent=1;resizeParentMax=0;resizeLast=0;collapsible=1;marginBottom=0;whiteSpace=wrap;html=1;fillColor=#1ba1e2;fontColor=#ffffff;strokeColor=#006EAF;strokeWidth=5;" parent="1" vertex="1">
          <mxGeometry x="5470" y="1390" width="240" height="180" as="geometry" />
        </mxCell>
        <mxCell id="hh-YMT1tnlc0o9IW1VK7-76" value="..." style="text;strokeColor=#006EAF;fillColor=#1ba1e2;align=left;verticalAlign=top;spacingLeft=4;spacingRight=4;overflow=hidden;rotatable=0;points=[[0,0.5],[1,0.5]];portConstraint=eastwest;whiteSpace=wrap;html=1;fontColor=#ffffff;strokeWidth=5;" parent="hh-YMT1tnlc0o9IW1VK7-75" vertex="1">
          <mxGeometry y="26" width="240" height="64" as="geometry" />
        </mxCell>
        <mxCell id="hh-YMT1tnlc0o9IW1VK7-77" value="" style="line;strokeWidth=5;fillColor=#1ba1e2;align=left;verticalAlign=middle;spacingTop=-1;spacingLeft=3;spacingRight=3;rotatable=0;labelPosition=right;points=[];portConstraint=eastwest;strokeColor=#006EAF;fontColor=#ffffff;" parent="hh-YMT1tnlc0o9IW1VK7-75" vertex="1">
          <mxGeometry y="90" width="240" height="8" as="geometry" />
        </mxCell>
        <mxCell id="hh-YMT1tnlc0o9IW1VK7-78" value="+ Computer(int x, int y)&lt;div&gt;+ open(Player player)&lt;/div&gt;&lt;div&gt;...&lt;/div&gt;" style="text;strokeColor=#006EAF;fillColor=#1ba1e2;align=left;verticalAlign=top;spacingLeft=4;spacingRight=4;overflow=hidden;rotatable=0;points=[[0,0.5],[1,0.5]];portConstraint=eastwest;whiteSpace=wrap;html=1;fontColor=#ffffff;strokeWidth=5;" parent="hh-YMT1tnlc0o9IW1VK7-75" vertex="1">
          <mxGeometry y="98" width="240" height="82" as="geometry" />
        </mxCell>
        <mxCell id="hh-YMT1tnlc0o9IW1VK7-79" value="" style="endArrow=open;endFill=1;endSize=12;html=1;rounded=0;exitX=1;exitY=0.5;exitDx=0;exitDy=0;entryX=0;entryY=0.5;entryDx=0;entryDy=0;strokeWidth=5;" parent="1" source="hh-YMT1tnlc0o9IW1VK7-40" target="hh-YMT1tnlc0o9IW1VK7-76" edge="1">
          <mxGeometry width="160" relative="1" as="geometry">
            <mxPoint x="4910" y="1550" as="sourcePoint" />
            <mxPoint x="5370" y="1550" as="targetPoint" />
          </mxGeometry>
        </mxCell>
        <mxCell id="hh-YMT1tnlc0o9IW1VK7-80" value="Ladder" style="swimlane;fontStyle=1;align=center;verticalAlign=top;childLayout=stackLayout;horizontal=1;startSize=26;horizontalStack=0;resizeParent=1;resizeParentMax=0;resizeLast=0;collapsible=1;marginBottom=0;whiteSpace=wrap;html=1;fillColor=#1ba1e2;fontColor=#ffffff;strokeColor=#006EAF;strokeWidth=5;" parent="1" vertex="1">
          <mxGeometry x="5470" y="1610" width="240" height="180" as="geometry" />
        </mxCell>
        <mxCell id="hh-YMT1tnlc0o9IW1VK7-81" value="..." style="text;strokeColor=#006EAF;fillColor=#1ba1e2;align=left;verticalAlign=top;spacingLeft=4;spacingRight=4;overflow=hidden;rotatable=0;points=[[0,0.5],[1,0.5]];portConstraint=eastwest;whiteSpace=wrap;html=1;fontColor=#ffffff;strokeWidth=5;" parent="hh-YMT1tnlc0o9IW1VK7-80" vertex="1">
          <mxGeometry y="26" width="240" height="64" as="geometry" />
        </mxCell>
        <mxCell id="hh-YMT1tnlc0o9IW1VK7-82" value="" style="line;strokeWidth=5;fillColor=#1ba1e2;align=left;verticalAlign=middle;spacingTop=-1;spacingLeft=3;spacingRight=3;rotatable=0;labelPosition=right;points=[];portConstraint=eastwest;strokeColor=#006EAF;fontColor=#ffffff;" parent="hh-YMT1tnlc0o9IW1VK7-80" vertex="1">
          <mxGeometry y="90" width="240" height="8" as="geometry" />
        </mxCell>
        <mxCell id="hh-YMT1tnlc0o9IW1VK7-83" value="+ Ladder ( int x, int y)&lt;div&gt;&lt;br&gt;&lt;div&gt;...&lt;/div&gt;&lt;/div&gt;" style="text;strokeColor=#006EAF;fillColor=#1ba1e2;align=left;verticalAlign=top;spacingLeft=4;spacingRight=4;overflow=hidden;rotatable=0;points=[[0,0.5],[1,0.5]];portConstraint=eastwest;whiteSpace=wrap;html=1;fontColor=#ffffff;strokeWidth=5;" parent="hh-YMT1tnlc0o9IW1VK7-80" vertex="1">
          <mxGeometry y="98" width="240" height="82" as="geometry" />
        </mxCell>
        <mxCell id="hh-YMT1tnlc0o9IW1VK7-88" value="MetalLocker&lt;div&gt;&lt;br&gt;&lt;/div&gt;" style="swimlane;fontStyle=1;align=center;verticalAlign=top;childLayout=stackLayout;horizontal=1;startSize=26;horizontalStack=0;resizeParent=1;resizeParentMax=0;resizeLast=0;collapsible=1;marginBottom=0;whiteSpace=wrap;html=1;fillColor=#1ba1e2;fontColor=#ffffff;strokeColor=#006EAF;strokeWidth=5;" parent="1" vertex="1">
          <mxGeometry x="5470" y="1830" width="240" height="180" as="geometry" />
        </mxCell>
        <mxCell id="hh-YMT1tnlc0o9IW1VK7-89" value="..." style="text;strokeColor=#006EAF;fillColor=#1ba1e2;align=left;verticalAlign=top;spacingLeft=4;spacingRight=4;overflow=hidden;rotatable=0;points=[[0,0.5],[1,0.5]];portConstraint=eastwest;whiteSpace=wrap;html=1;fontColor=#ffffff;strokeWidth=5;" parent="hh-YMT1tnlc0o9IW1VK7-88" vertex="1">
          <mxGeometry y="26" width="240" height="64" as="geometry" />
        </mxCell>
        <mxCell id="hh-YMT1tnlc0o9IW1VK7-90" value="" style="line;strokeWidth=5;fillColor=#1ba1e2;align=left;verticalAlign=middle;spacingTop=-1;spacingLeft=3;spacingRight=3;rotatable=0;labelPosition=right;points=[];portConstraint=eastwest;strokeColor=#006EAF;fontColor=#ffffff;" parent="hh-YMT1tnlc0o9IW1VK7-88" vertex="1">
          <mxGeometry y="90" width="240" height="8" as="geometry" />
        </mxCell>
        <mxCell id="hh-YMT1tnlc0o9IW1VK7-91" value="+ MetalLocker(int x, int y)&lt;div&gt;+ open(Player player)&lt;/div&gt;&lt;div&gt;...&lt;/div&gt;" style="text;strokeColor=#006EAF;fillColor=#1ba1e2;align=left;verticalAlign=top;spacingLeft=4;spacingRight=4;overflow=hidden;rotatable=0;points=[[0,0.5],[1,0.5]];portConstraint=eastwest;whiteSpace=wrap;html=1;fontColor=#ffffff;strokeWidth=5;" parent="hh-YMT1tnlc0o9IW1VK7-88" vertex="1">
          <mxGeometry y="98" width="240" height="82" as="geometry" />
        </mxCell>
        <mxCell id="hh-YMT1tnlc0o9IW1VK7-92" value="&lt;div&gt;RedBox&lt;/div&gt;" style="swimlane;fontStyle=1;align=center;verticalAlign=top;childLayout=stackLayout;horizontal=1;startSize=26;horizontalStack=0;resizeParent=1;resizeParentMax=0;resizeLast=0;collapsible=1;marginBottom=0;whiteSpace=wrap;html=1;fillColor=#1ba1e2;fontColor=#ffffff;strokeColor=#006EAF;strokeWidth=5;" parent="1" vertex="1">
          <mxGeometry x="5470" y="2050" width="240" height="180" as="geometry" />
        </mxCell>
        <mxCell id="hh-YMT1tnlc0o9IW1VK7-93" value="..." style="text;strokeColor=#006EAF;fillColor=#1ba1e2;align=left;verticalAlign=top;spacingLeft=4;spacingRight=4;overflow=hidden;rotatable=0;points=[[0,0.5],[1,0.5]];portConstraint=eastwest;whiteSpace=wrap;html=1;fontColor=#ffffff;strokeWidth=5;" parent="hh-YMT1tnlc0o9IW1VK7-92" vertex="1">
          <mxGeometry y="26" width="240" height="64" as="geometry" />
        </mxCell>
        <mxCell id="hh-YMT1tnlc0o9IW1VK7-94" value="" style="line;strokeWidth=5;fillColor=#1ba1e2;align=left;verticalAlign=middle;spacingTop=-1;spacingLeft=3;spacingRight=3;rotatable=0;labelPosition=right;points=[];portConstraint=eastwest;strokeColor=#006EAF;fontColor=#ffffff;" parent="hh-YMT1tnlc0o9IW1VK7-92" vertex="1">
          <mxGeometry y="90" width="240" height="8" as="geometry" />
        </mxCell>
        <mxCell id="hh-YMT1tnlc0o9IW1VK7-95" value="+ RedBox(int x, int y)&lt;div&gt;+ open(Player player)&lt;/div&gt;&lt;div&gt;...&lt;/div&gt;" style="text;strokeColor=#006EAF;fillColor=#1ba1e2;align=left;verticalAlign=top;spacingLeft=4;spacingRight=4;overflow=hidden;rotatable=0;points=[[0,0.5],[1,0.5]];portConstraint=eastwest;whiteSpace=wrap;html=1;fontColor=#ffffff;strokeWidth=5;" parent="hh-YMT1tnlc0o9IW1VK7-92" vertex="1">
          <mxGeometry y="98" width="240" height="82" as="geometry" />
        </mxCell>
        <mxCell id="hh-YMT1tnlc0o9IW1VK7-96" value="&lt;div&gt;WoodLocker&lt;/div&gt;" style="swimlane;fontStyle=1;align=center;verticalAlign=top;childLayout=stackLayout;horizontal=1;startSize=26;horizontalStack=0;resizeParent=1;resizeParentMax=0;resizeLast=0;collapsible=1;marginBottom=0;whiteSpace=wrap;html=1;fillColor=#1ba1e2;fontColor=#ffffff;strokeColor=#006EAF;strokeWidth=5;" parent="1" vertex="1">
          <mxGeometry x="5470" y="2280" width="240" height="180" as="geometry" />
        </mxCell>
        <mxCell id="hh-YMT1tnlc0o9IW1VK7-97" value="..." style="text;strokeColor=#006EAF;fillColor=#1ba1e2;align=left;verticalAlign=top;spacingLeft=4;spacingRight=4;overflow=hidden;rotatable=0;points=[[0,0.5],[1,0.5]];portConstraint=eastwest;whiteSpace=wrap;html=1;fontColor=#ffffff;strokeWidth=5;" parent="hh-YMT1tnlc0o9IW1VK7-96" vertex="1">
          <mxGeometry y="26" width="240" height="64" as="geometry" />
        </mxCell>
        <mxCell id="hh-YMT1tnlc0o9IW1VK7-98" value="" style="line;strokeWidth=5;fillColor=#1ba1e2;align=left;verticalAlign=middle;spacingTop=-1;spacingLeft=3;spacingRight=3;rotatable=0;labelPosition=right;points=[];portConstraint=eastwest;strokeColor=#006EAF;fontColor=#ffffff;" parent="hh-YMT1tnlc0o9IW1VK7-96" vertex="1">
          <mxGeometry y="90" width="240" height="8" as="geometry" />
        </mxCell>
        <mxCell id="hh-YMT1tnlc0o9IW1VK7-99" value="+ WoodLocker (int x, int y)&lt;div&gt;+ open(Player player)&lt;/div&gt;&lt;div&gt;...&lt;/div&gt;" style="text;strokeColor=#006EAF;fillColor=#1ba1e2;align=left;verticalAlign=top;spacingLeft=4;spacingRight=4;overflow=hidden;rotatable=0;points=[[0,0.5],[1,0.5]];portConstraint=eastwest;whiteSpace=wrap;html=1;fontColor=#ffffff;strokeWidth=5;" parent="hh-YMT1tnlc0o9IW1VK7-96" vertex="1">
          <mxGeometry y="98" width="240" height="82" as="geometry" />
        </mxCell>
        <mxCell id="hh-YMT1tnlc0o9IW1VK7-100" value="" style="endArrow=open;endFill=1;endSize=12;html=1;rounded=0;exitX=1;exitY=0.5;exitDx=0;exitDy=0;strokeWidth=5;" parent="1" source="hh-YMT1tnlc0o9IW1VK7-45" target="hh-YMT1tnlc0o9IW1VK7-81" edge="1">
          <mxGeometry width="160" relative="1" as="geometry">
            <mxPoint x="4950" y="1840" as="sourcePoint" />
            <mxPoint x="5410" y="1850" as="targetPoint" />
          </mxGeometry>
        </mxCell>
        <mxCell id="hh-YMT1tnlc0o9IW1VK7-101" value="" style="endArrow=open;endFill=1;endSize=12;html=1;rounded=0;exitX=1;exitY=0.5;exitDx=0;exitDy=0;strokeWidth=5;" parent="1" source="hh-YMT1tnlc0o9IW1VK7-50" target="hh-YMT1tnlc0o9IW1VK7-89" edge="1">
          <mxGeometry width="160" relative="1" as="geometry">
            <mxPoint x="4980" y="2000" as="sourcePoint" />
            <mxPoint x="5440" y="2010" as="targetPoint" />
          </mxGeometry>
        </mxCell>
        <mxCell id="hh-YMT1tnlc0o9IW1VK7-102" value="" style="endArrow=open;endFill=1;endSize=12;html=1;rounded=0;exitX=1;exitY=0.5;exitDx=0;exitDy=0;entryX=0;entryY=0.5;entryDx=0;entryDy=0;strokeWidth=5;" parent="1" source="hh-YMT1tnlc0o9IW1VK7-55" target="hh-YMT1tnlc0o9IW1VK7-93" edge="1">
          <mxGeometry width="160" relative="1" as="geometry">
            <mxPoint x="4940" y="2230" as="sourcePoint" />
            <mxPoint x="5400" y="2240" as="targetPoint" />
          </mxGeometry>
        </mxCell>
        <mxCell id="hh-YMT1tnlc0o9IW1VK7-103" value="" style="endArrow=open;endFill=1;endSize=12;html=1;rounded=0;exitX=1;exitY=0.5;exitDx=0;exitDy=0;entryX=0;entryY=0.5;entryDx=0;entryDy=0;strokeWidth=5;" parent="1" source="hh-YMT1tnlc0o9IW1VK7-61" target="hh-YMT1tnlc0o9IW1VK7-97" edge="1">
          <mxGeometry width="160" relative="1" as="geometry">
            <mxPoint x="4970" y="2410" as="sourcePoint" />
            <mxPoint x="5430" y="2420" as="targetPoint" />
          </mxGeometry>
        </mxCell>
        <mxCell id="hh-YMT1tnlc0o9IW1VK7-104" value="&lt;div&gt;&amp;lt;&amp;lt;abstract&amp;gt;&amp;gt; InteractableObject&lt;/div&gt;" style="swimlane;fontStyle=1;align=center;verticalAlign=top;childLayout=stackLayout;horizontal=1;startSize=26;horizontalStack=0;resizeParent=1;resizeParentMax=0;resizeLast=0;collapsible=1;marginBottom=0;whiteSpace=wrap;html=1;strokeColor=#006EAF;fillColor=#1ba1e2;fontColor=#ffffff;strokeWidth=5;" parent="1" vertex="1">
          <mxGeometry x="6410" y="1623" width="360" height="210" as="geometry" />
        </mxCell>
        <mxCell id="hh-YMT1tnlc0o9IW1VK7-105" value="# x : int&lt;div&gt;# y : int&lt;/div&gt;&lt;div&gt;# width : int&lt;/div&gt;&lt;div&gt;#height : int&lt;/div&gt;&lt;div&gt;...&lt;/div&gt;" style="text;strokeColor=#006EAF;fillColor=#1ba1e2;align=left;verticalAlign=top;spacingLeft=4;spacingRight=4;overflow=hidden;rotatable=0;points=[[0,0.5],[1,0.5]];portConstraint=eastwest;whiteSpace=wrap;html=1;fontColor=#ffffff;strokeWidth=5;" parent="hh-YMT1tnlc0o9IW1VK7-104" vertex="1">
          <mxGeometry y="26" width="360" height="104" as="geometry" />
        </mxCell>
        <mxCell id="hh-YMT1tnlc0o9IW1VK7-106" value="" style="line;strokeWidth=5;fillColor=#1ba1e2;align=left;verticalAlign=middle;spacingTop=-1;spacingLeft=3;spacingRight=3;rotatable=0;labelPosition=right;points=[];portConstraint=eastwest;strokeColor=#006EAF;fontColor=#ffffff;" parent="hh-YMT1tnlc0o9IW1VK7-104" vertex="1">
          <mxGeometry y="130" width="360" height="8" as="geometry" />
        </mxCell>
        <mxCell id="hh-YMT1tnlc0o9IW1VK7-107" value="+ InteractableObject(int x, int y, int width, int height)&lt;div&gt;...&lt;/div&gt;" style="text;strokeColor=#006EAF;fillColor=#1ba1e2;align=left;verticalAlign=top;spacingLeft=4;spacingRight=4;overflow=hidden;rotatable=0;points=[[0,0.5],[1,0.5]];portConstraint=eastwest;whiteSpace=wrap;html=1;fontColor=#ffffff;strokeWidth=5;" parent="hh-YMT1tnlc0o9IW1VK7-104" vertex="1">
          <mxGeometry y="138" width="360" height="72" as="geometry" />
        </mxCell>
        <mxCell id="hh-YMT1tnlc0o9IW1VK7-108" value="Extends" style="endArrow=block;endSize=16;endFill=0;html=1;rounded=0;strokeColor=#006EAF;fillColor=#1ba1e2;strokeWidth=5;" parent="1" source="hh-YMT1tnlc0o9IW1VK7-65" target="hh-YMT1tnlc0o9IW1VK7-104" edge="1">
          <mxGeometry width="160" relative="1" as="geometry">
            <mxPoint x="5610" y="1280" as="sourcePoint" />
            <mxPoint x="5780" y="1330" as="targetPoint" />
          </mxGeometry>
        </mxCell>
        <mxCell id="hh-YMT1tnlc0o9IW1VK7-113" value="Extends" style="endArrow=block;endSize=16;endFill=0;html=1;rounded=0;strokeColor=#006EAF;fillColor=#1ba1e2;strokeWidth=5;" parent="1" source="hh-YMT1tnlc0o9IW1VK7-70" target="hh-YMT1tnlc0o9IW1VK7-104" edge="1">
          <mxGeometry width="160" relative="1" as="geometry">
            <mxPoint x="5640" y="1450" as="sourcePoint" />
            <mxPoint x="5800" y="1450" as="targetPoint" />
          </mxGeometry>
        </mxCell>
        <mxCell id="hh-YMT1tnlc0o9IW1VK7-114" value="Extends" style="endArrow=block;endSize=16;endFill=0;html=1;rounded=0;strokeColor=#006EAF;fillColor=#1ba1e2;strokeWidth=5;" parent="1" source="hh-YMT1tnlc0o9IW1VK7-75" target="hh-YMT1tnlc0o9IW1VK7-104" edge="1">
          <mxGeometry width="160" relative="1" as="geometry">
            <mxPoint x="5330" y="1530" as="sourcePoint" />
            <mxPoint x="6000" y="1750" as="targetPoint" />
          </mxGeometry>
        </mxCell>
        <mxCell id="hh-YMT1tnlc0o9IW1VK7-115" value="Extends" style="endArrow=block;endSize=16;endFill=0;html=1;rounded=0;exitX=1;exitY=0.5;exitDx=0;exitDy=0;strokeColor=#006EAF;fillColor=#1ba1e2;strokeWidth=5;" parent="1" source="hh-YMT1tnlc0o9IW1VK7-81" target="hh-YMT1tnlc0o9IW1VK7-104" edge="1">
          <mxGeometry width="160" relative="1" as="geometry">
            <mxPoint x="5580" y="1870" as="sourcePoint" />
            <mxPoint x="6110" y="1860" as="targetPoint" />
          </mxGeometry>
        </mxCell>
        <mxCell id="hh-YMT1tnlc0o9IW1VK7-116" value="Extends" style="endArrow=block;endSize=16;endFill=0;html=1;rounded=0;strokeColor=#006EAF;fillColor=#1ba1e2;strokeWidth=5;" parent="1" source="hh-YMT1tnlc0o9IW1VK7-88" target="hh-YMT1tnlc0o9IW1VK7-104" edge="1">
          <mxGeometry width="160" relative="1" as="geometry">
            <mxPoint x="5730" y="1850" as="sourcePoint" />
            <mxPoint x="5890" y="1850" as="targetPoint" />
          </mxGeometry>
        </mxCell>
        <mxCell id="hh-YMT1tnlc0o9IW1VK7-117" value="Extends" style="endArrow=block;endSize=16;endFill=0;html=1;rounded=0;strokeColor=#006EAF;fillColor=#1ba1e2;strokeWidth=5;" parent="1" source="hh-YMT1tnlc0o9IW1VK7-92" target="hh-YMT1tnlc0o9IW1VK7-104" edge="1">
          <mxGeometry width="160" relative="1" as="geometry">
            <mxPoint x="5750" y="2000" as="sourcePoint" />
            <mxPoint x="5910" y="2000" as="targetPoint" />
          </mxGeometry>
        </mxCell>
        <mxCell id="hh-YMT1tnlc0o9IW1VK7-118" value="Observable" style="swimlane;fontStyle=1;align=center;verticalAlign=top;childLayout=stackLayout;horizontal=1;startSize=26;horizontalStack=0;resizeParent=1;resizeParentMax=0;resizeLast=0;collapsible=1;marginBottom=0;whiteSpace=wrap;html=1;strokeWidth=5;" parent="1" vertex="1">
          <mxGeometry x="7470" y="1900" width="360" height="210" as="geometry" />
        </mxCell>
        <mxCell id="hh-YMT1tnlc0o9IW1VK7-119" value="..." style="text;strokeColor=none;fillColor=none;align=left;verticalAlign=top;spacingLeft=4;spacingRight=4;overflow=hidden;rotatable=0;points=[[0,0.5],[1,0.5]];portConstraint=eastwest;whiteSpace=wrap;html=1;strokeWidth=5;" parent="hh-YMT1tnlc0o9IW1VK7-118" vertex="1">
          <mxGeometry y="26" width="360" height="104" as="geometry" />
        </mxCell>
        <mxCell id="hh-YMT1tnlc0o9IW1VK7-120" value="" style="line;strokeWidth=5;fillColor=none;align=left;verticalAlign=middle;spacingTop=-1;spacingLeft=3;spacingRight=3;rotatable=0;labelPosition=right;points=[];portConstraint=eastwest;strokeColor=inherit;" parent="hh-YMT1tnlc0o9IW1VK7-118" vertex="1">
          <mxGeometry y="130" width="360" height="8" as="geometry" />
        </mxCell>
        <mxCell id="hh-YMT1tnlc0o9IW1VK7-121" value="..." style="text;strokeColor=none;fillColor=none;align=left;verticalAlign=top;spacingLeft=4;spacingRight=4;overflow=hidden;rotatable=0;points=[[0,0.5],[1,0.5]];portConstraint=eastwest;whiteSpace=wrap;html=1;strokeWidth=5;" parent="hh-YMT1tnlc0o9IW1VK7-118" vertex="1">
          <mxGeometry y="138" width="360" height="72" as="geometry" />
        </mxCell>
        <mxCell id="hh-YMT1tnlc0o9IW1VK7-122" value="Extends" style="endArrow=block;endSize=16;endFill=0;html=1;rounded=0;exitX=1.002;exitY=0.558;exitDx=0;exitDy=0;exitPerimeter=0;strokeWidth=5;" parent="1" source="hh-YMT1tnlc0o9IW1VK7-105" target="hh-YMT1tnlc0o9IW1VK7-119" edge="1">
          <mxGeometry width="160" relative="1" as="geometry">
            <mxPoint x="6450" y="1940" as="sourcePoint" />
            <mxPoint x="7120" y="1946" as="targetPoint" />
          </mxGeometry>
        </mxCell>
        <mxCell id="hh-YMT1tnlc0o9IW1VK7-123" value="&lt;div&gt;EnemyView&lt;/div&gt;" style="swimlane;fontStyle=1;align=center;verticalAlign=top;childLayout=stackLayout;horizontal=1;startSize=26;horizontalStack=0;resizeParent=1;resizeParentMax=0;resizeLast=0;collapsible=1;marginBottom=0;whiteSpace=wrap;html=1;fillColor=#cdeb8b;strokeColor=#36393d;fontColor=#000000;strokeWidth=5;" parent="1" vertex="1">
          <mxGeometry x="4000" y="-82" width="300" height="300" as="geometry" />
        </mxCell>
        <mxCell id="hh-YMT1tnlc0o9IW1VK7-124" value="- droneViews : List&amp;lt;DroneView&amp;gt;&lt;div&gt;- dogViews : List&amp;lt;DogView&amp;gt;&lt;/div&gt;&lt;div&gt;&lt;br&gt;&lt;/div&gt;&lt;div&gt;...&lt;/div&gt;" style="text;strokeColor=#36393d;fillColor=#cdeb8b;align=left;verticalAlign=top;spacingLeft=4;spacingRight=4;overflow=hidden;rotatable=0;points=[[0,0.5],[1,0.5]];portConstraint=eastwest;whiteSpace=wrap;html=1;fontColor=#000000;strokeWidth=5;" parent="hh-YMT1tnlc0o9IW1VK7-123" vertex="1">
          <mxGeometry y="26" width="300" height="174" as="geometry" />
        </mxCell>
        <mxCell id="hh-YMT1tnlc0o9IW1VK7-125" value="" style="line;strokeWidth=5;fillColor=#cdeb8b;align=left;verticalAlign=middle;spacingTop=-1;spacingLeft=3;spacingRight=3;rotatable=0;labelPosition=right;points=[];portConstraint=eastwest;strokeColor=#36393d;fontColor=#000000;" parent="hh-YMT1tnlc0o9IW1VK7-123" vertex="1">
          <mxGeometry y="200" width="300" height="8" as="geometry" />
        </mxCell>
        <mxCell id="hh-YMT1tnlc0o9IW1VK7-126" value="+ EnemyView(LevelManager levelManager)&lt;div&gt;+ drawEnemies(Graphics2D g2d) : void&lt;br&gt;&lt;div&gt;+ update(Observable o, Object arg) : void&lt;/div&gt;&lt;/div&gt;&lt;div&gt;...&lt;/div&gt;" style="text;strokeColor=#36393d;fillColor=#cdeb8b;align=left;verticalAlign=top;spacingLeft=4;spacingRight=4;overflow=hidden;rotatable=0;points=[[0,0.5],[1,0.5]];portConstraint=eastwest;whiteSpace=wrap;html=1;fontColor=#000000;strokeWidth=5;" parent="hh-YMT1tnlc0o9IW1VK7-123" vertex="1">
          <mxGeometry y="208" width="300" height="92" as="geometry" />
        </mxCell>
        <mxCell id="hh-YMT1tnlc0o9IW1VK7-131" value="" style="endArrow=diamondThin;endFill=1;endSize=24;html=1;rounded=0;fontColor=#000000;strokeWidth=5;" parent="1" source="hh-YMT1tnlc0o9IW1VK7-6" target="hh-YMT1tnlc0o9IW1VK7-23" edge="1">
          <mxGeometry width="160" relative="1" as="geometry">
            <mxPoint x="3120" y="1180" as="sourcePoint" />
            <mxPoint x="3280" y="1180" as="targetPoint" />
          </mxGeometry>
        </mxCell>
        <mxCell id="hh-YMT1tnlc0o9IW1VK7-132" value="" style="endArrow=diamondThin;endFill=1;endSize=24;html=1;rounded=0;fontColor=#000000;strokeWidth=5;" parent="1" source="hh-YMT1tnlc0o9IW1VK7-6" target="hh-YMT1tnlc0o9IW1VK7-123" edge="1">
          <mxGeometry width="160" relative="1" as="geometry">
            <mxPoint x="2640" y="1320" as="sourcePoint" />
            <mxPoint x="3945" y="1688" as="targetPoint" />
          </mxGeometry>
        </mxCell>
        <mxCell id="hh-YMT1tnlc0o9IW1VK7-133" value="" style="endArrow=diamondThin;endFill=1;endSize=24;html=1;rounded=0;fontColor=#000000;strokeWidth=5;" parent="1" source="hh-YMT1tnlc0o9IW1VK7-6" target="hh-YMT1tnlc0o9IW1VK7-17" edge="1">
          <mxGeometry width="160" relative="1" as="geometry">
            <mxPoint x="2470" y="450" as="sourcePoint" />
            <mxPoint x="3775" y="818" as="targetPoint" />
          </mxGeometry>
        </mxCell>
        <mxCell id="hh-YMT1tnlc0o9IW1VK7-134" value="&lt;div&gt;Drone&lt;/div&gt;" style="swimlane;fontStyle=1;align=center;verticalAlign=top;childLayout=stackLayout;horizontal=1;startSize=26;horizontalStack=0;resizeParent=1;resizeParentMax=0;resizeLast=0;collapsible=1;marginBottom=0;whiteSpace=wrap;html=1;fillColor=#0050ef;fontColor=#ffffff;strokeColor=#001DBC;strokeWidth=5;" parent="1" vertex="1">
          <mxGeometry x="6190" y="-750" width="380" height="190" as="geometry" />
        </mxCell>
        <mxCell id="hh-YMT1tnlc0o9IW1VK7-135" value="- player : Player&lt;br&gt;&lt;div&gt;- levelManager : LevelManager&lt;/div&gt;&lt;div&gt;...&lt;/div&gt;" style="text;strokeColor=#001DBC;fillColor=#0050ef;align=left;verticalAlign=top;spacingLeft=4;spacingRight=4;overflow=hidden;rotatable=0;points=[[0,0.5],[1,0.5]];portConstraint=eastwest;whiteSpace=wrap;html=1;fontColor=#ffffff;strokeWidth=5;" parent="hh-YMT1tnlc0o9IW1VK7-134" vertex="1">
          <mxGeometry y="26" width="380" height="84" as="geometry" />
        </mxCell>
        <mxCell id="hh-YMT1tnlc0o9IW1VK7-136" value="" style="line;strokeWidth=5;fillColor=#0050ef;align=left;verticalAlign=middle;spacingTop=-1;spacingLeft=3;spacingRight=3;rotatable=0;labelPosition=right;points=[];portConstraint=eastwest;strokeColor=#001DBC;fontColor=#ffffff;" parent="hh-YMT1tnlc0o9IW1VK7-134" vertex="1">
          <mxGeometry y="110" width="380" height="8" as="geometry" />
        </mxCell>
        <mxCell id="hh-YMT1tnlc0o9IW1VK7-137" value="+ Drone(int x, int y, Player player, LevelManager levelManager)&lt;div&gt;+ update() : void&lt;/div&gt;&lt;div&gt;...&lt;/div&gt;" style="text;strokeColor=#001DBC;fillColor=#0050ef;align=left;verticalAlign=top;spacingLeft=4;spacingRight=4;overflow=hidden;rotatable=0;points=[[0,0.5],[1,0.5]];portConstraint=eastwest;whiteSpace=wrap;html=1;fontColor=#ffffff;strokeWidth=5;" parent="hh-YMT1tnlc0o9IW1VK7-134" vertex="1">
          <mxGeometry y="118" width="380" height="72" as="geometry" />
        </mxCell>
        <mxCell id="hh-YMT1tnlc0o9IW1VK7-138" value="&lt;div&gt;Dog&lt;/div&gt;" style="swimlane;fontStyle=1;align=center;verticalAlign=top;childLayout=stackLayout;horizontal=1;startSize=26;horizontalStack=0;resizeParent=1;resizeParentMax=0;resizeLast=0;collapsible=1;marginBottom=0;whiteSpace=wrap;html=1;fillColor=#0050ef;fontColor=#ffffff;strokeColor=#001DBC;strokeWidth=5;" parent="1" vertex="1">
          <mxGeometry x="6180" y="-400" width="390" height="190" as="geometry" />
        </mxCell>
        <mxCell id="hh-YMT1tnlc0o9IW1VK7-139" value="- player : Player&lt;br&gt;&lt;div&gt;- levelManager : LevelManager&lt;/div&gt;&lt;div&gt;...&lt;/div&gt;" style="text;strokeColor=#001DBC;fillColor=#0050ef;align=left;verticalAlign=top;spacingLeft=4;spacingRight=4;overflow=hidden;rotatable=0;points=[[0,0.5],[1,0.5]];portConstraint=eastwest;whiteSpace=wrap;html=1;fontColor=#ffffff;strokeWidth=5;" parent="hh-YMT1tnlc0o9IW1VK7-138" vertex="1">
          <mxGeometry y="26" width="390" height="84" as="geometry" />
        </mxCell>
        <mxCell id="hh-YMT1tnlc0o9IW1VK7-140" value="" style="line;strokeWidth=5;fillColor=#0050ef;align=left;verticalAlign=middle;spacingTop=-1;spacingLeft=3;spacingRight=3;rotatable=0;labelPosition=right;points=[];portConstraint=eastwest;strokeColor=#001DBC;fontColor=#ffffff;" parent="hh-YMT1tnlc0o9IW1VK7-138" vertex="1">
          <mxGeometry y="110" width="390" height="8" as="geometry" />
        </mxCell>
        <mxCell id="hh-YMT1tnlc0o9IW1VK7-141" value="+ Dog(int x, int y, Player player, LevelManager levelManager)&lt;div&gt;+ update() : void&lt;/div&gt;&lt;div&gt;...&lt;/div&gt;" style="text;strokeColor=#001DBC;fillColor=#0050ef;align=left;verticalAlign=top;spacingLeft=4;spacingRight=4;overflow=hidden;rotatable=0;points=[[0,0.5],[1,0.5]];portConstraint=eastwest;whiteSpace=wrap;html=1;fontColor=#ffffff;strokeWidth=5;" parent="hh-YMT1tnlc0o9IW1VK7-138" vertex="1">
          <mxGeometry y="118" width="390" height="72" as="geometry" />
        </mxCell>
        <mxCell id="hh-YMT1tnlc0o9IW1VK7-144" value="&lt;div&gt;&amp;lt;&amp;lt;abstract&amp;gt;&amp;gt;Entity&lt;/div&gt;" style="swimlane;fontStyle=1;align=center;verticalAlign=top;childLayout=stackLayout;horizontal=1;startSize=26;horizontalStack=0;resizeParent=1;resizeParentMax=0;resizeLast=0;collapsible=1;marginBottom=0;whiteSpace=wrap;html=1;fillColor=#0050ef;fontColor=#ffffff;strokeColor=#001DBC;strokeWidth=5;" parent="1" vertex="1">
          <mxGeometry x="7260" y="-1030" width="380" height="350" as="geometry" />
        </mxCell>
        <mxCell id="hh-YMT1tnlc0o9IW1VK7-145" value="- x : int&lt;div&gt;- y: int&lt;/div&gt;&lt;div&gt;- width : int&lt;/div&gt;&lt;div&gt;- height&amp;nbsp; : int&amp;nbsp;&amp;nbsp;&lt;/div&gt;&lt;div&gt;- speed : int&lt;/div&gt;&lt;div&gt;- direction : String&lt;/div&gt;&lt;div&gt;- levelManager : LevelManager&lt;/div&gt;&lt;div&gt;...&lt;/div&gt;&lt;div&gt;&lt;br&gt;&lt;/div&gt;" style="text;strokeColor=#001DBC;fillColor=#0050ef;align=left;verticalAlign=top;spacingLeft=4;spacingRight=4;overflow=hidden;rotatable=0;points=[[0,0.5],[1,0.5]];portConstraint=eastwest;whiteSpace=wrap;html=1;fontColor=#ffffff;strokeWidth=5;" parent="hh-YMT1tnlc0o9IW1VK7-144" vertex="1">
          <mxGeometry y="26" width="380" height="174" as="geometry" />
        </mxCell>
        <mxCell id="hh-YMT1tnlc0o9IW1VK7-146" value="" style="line;strokeWidth=5;fillColor=#0050ef;align=left;verticalAlign=middle;spacingTop=-1;spacingLeft=3;spacingRight=3;rotatable=0;labelPosition=right;points=[];portConstraint=eastwest;strokeColor=#001DBC;fontColor=#ffffff;" parent="hh-YMT1tnlc0o9IW1VK7-144" vertex="1">
          <mxGeometry y="200" width="380" height="8" as="geometry" />
        </mxCell>
        <mxCell id="hh-YMT1tnlc0o9IW1VK7-147" value="+ Entity(int x, int y, int width, int height, LevelManager levelManager&lt;div&gt;+ Entity()&amp;nbsp;&lt;/div&gt;&lt;div&gt;&lt;br&gt;&lt;/div&gt;&lt;div&gt;...&lt;/div&gt;" style="text;strokeColor=#001DBC;fillColor=#0050ef;align=left;verticalAlign=top;spacingLeft=4;spacingRight=4;overflow=hidden;rotatable=0;points=[[0,0.5],[1,0.5]];portConstraint=eastwest;whiteSpace=wrap;html=1;fontColor=#ffffff;strokeWidth=5;" parent="hh-YMT1tnlc0o9IW1VK7-144" vertex="1">
          <mxGeometry y="208" width="380" height="142" as="geometry" />
        </mxCell>
        <mxCell id="hh-YMT1tnlc0o9IW1VK7-148" value="Extends" style="endArrow=block;endSize=16;endFill=0;html=1;rounded=0;fillColor=#0050ef;strokeColor=#001DBC;strokeWidth=5;" parent="1" source="hh-YMT1tnlc0o9IW1VK7-11" target="hh-YMT1tnlc0o9IW1VK7-144" edge="1">
          <mxGeometry width="160" relative="1" as="geometry">
            <mxPoint x="6940" y="-1106" as="sourcePoint" />
            <mxPoint x="7319" y="-1110" as="targetPoint" />
          </mxGeometry>
        </mxCell>
        <mxCell id="hh-YMT1tnlc0o9IW1VK7-149" value="Extends" style="endArrow=block;endSize=16;endFill=0;html=1;rounded=0;fillColor=#0050ef;strokeColor=#001DBC;strokeWidth=5;" parent="1" source="hh-YMT1tnlc0o9IW1VK7-134" target="hh-YMT1tnlc0o9IW1VK7-144" edge="1">
          <mxGeometry width="160" relative="1" as="geometry">
            <mxPoint x="6410" y="-676" as="sourcePoint" />
            <mxPoint x="6789" y="-680" as="targetPoint" />
          </mxGeometry>
        </mxCell>
        <mxCell id="hh-YMT1tnlc0o9IW1VK7-150" value="Extends" style="endArrow=block;endSize=16;endFill=0;html=1;rounded=0;fillColor=#0050ef;strokeColor=#001DBC;strokeWidth=5;" parent="1" source="hh-YMT1tnlc0o9IW1VK7-138" target="hh-YMT1tnlc0o9IW1VK7-144" edge="1">
          <mxGeometry width="160" relative="1" as="geometry">
            <mxPoint x="6610" y="-426" as="sourcePoint" />
            <mxPoint x="6989" y="-430" as="targetPoint" />
          </mxGeometry>
        </mxCell>
        <mxCell id="hh-YMT1tnlc0o9IW1VK7-151" value="&lt;div&gt;InventoryView&lt;/div&gt;" style="swimlane;fontStyle=1;align=center;verticalAlign=top;childLayout=stackLayout;horizontal=1;startSize=26;horizontalStack=0;resizeParent=1;resizeParentMax=0;resizeLast=0;collapsible=1;marginBottom=0;whiteSpace=wrap;html=1;fillColor=#fad9d5;strokeColor=#ae4132;fontColor=#000000;strokeWidth=5;" parent="1" vertex="1">
          <mxGeometry x="2960" y="2490" width="250" height="230" as="geometry" />
        </mxCell>
        <mxCell id="hh-YMT1tnlc0o9IW1VK7-152" value="- inventory : Inventory&lt;div&gt;- pokerCardsView : PokerCardsView&lt;br&gt;&lt;div&gt;- itemViews : ItemView[]&lt;/div&gt;&lt;div&gt;...&lt;/div&gt;&lt;/div&gt;" style="text;strokeColor=#ae4132;fillColor=#fad9d5;align=left;verticalAlign=top;spacingLeft=4;spacingRight=4;overflow=hidden;rotatable=0;points=[[0,0.5],[1,0.5]];portConstraint=eastwest;whiteSpace=wrap;html=1;fontColor=#000000;strokeWidth=5;" parent="hh-YMT1tnlc0o9IW1VK7-151" vertex="1">
          <mxGeometry y="26" width="250" height="94" as="geometry" />
        </mxCell>
        <mxCell id="hh-YMT1tnlc0o9IW1VK7-153" value="" style="line;strokeWidth=5;fillColor=#fad9d5;align=left;verticalAlign=middle;spacingTop=-1;spacingLeft=3;spacingRight=3;rotatable=0;labelPosition=right;points=[];portConstraint=eastwest;strokeColor=#ae4132;fontColor=#000000;" parent="hh-YMT1tnlc0o9IW1VK7-151" vertex="1">
          <mxGeometry y="120" width="250" height="8" as="geometry" />
        </mxCell>
        <mxCell id="hh-YMT1tnlc0o9IW1VK7-154" value="+ PlayerView(Player player) : void&lt;div&gt;+ draw(Graphics2D g2d) : void&lt;/div&gt;&lt;div&gt;+ updateItemViews() : void&lt;/div&gt;&lt;div&gt;+ update(Observable o, Object arg)&lt;/div&gt;&lt;div&gt;...&lt;/div&gt;" style="text;strokeColor=#ae4132;fillColor=#fad9d5;align=left;verticalAlign=top;spacingLeft=4;spacingRight=4;overflow=hidden;rotatable=0;points=[[0,0.5],[1,0.5]];portConstraint=eastwest;whiteSpace=wrap;html=1;fontColor=#000000;strokeWidth=5;" parent="hh-YMT1tnlc0o9IW1VK7-151" vertex="1">
          <mxGeometry y="128" width="250" height="102" as="geometry" />
        </mxCell>
        <mxCell id="hh-YMT1tnlc0o9IW1VK7-155" value="" style="endArrow=diamondThin;endFill=1;endSize=24;html=1;rounded=0;strokeWidth=5;" parent="1" source="hh-YMT1tnlc0o9IW1VK7-6" target="hh-YMT1tnlc0o9IW1VK7-151" edge="1">
          <mxGeometry width="160" relative="1" as="geometry">
            <mxPoint x="2820" y="786" as="sourcePoint" />
            <mxPoint x="4178" y="1596" as="targetPoint" />
          </mxGeometry>
        </mxCell>
        <mxCell id="hh-YMT1tnlc0o9IW1VK7-156" value="&lt;div&gt;Inventory&lt;/div&gt;" style="swimlane;fontStyle=1;align=center;verticalAlign=top;childLayout=stackLayout;horizontal=1;startSize=26;horizontalStack=0;resizeParent=1;resizeParentMax=0;resizeLast=0;collapsible=1;marginBottom=0;whiteSpace=wrap;html=1;fillColor=#b1ddf0;strokeColor=#10739e;shadow=0;strokeWidth=5;" parent="1" vertex="1">
          <mxGeometry x="5460" y="2720" width="300" height="176" as="geometry" />
        </mxCell>
        <mxCell id="hh-YMT1tnlc0o9IW1VK7-157" value="- items : Item[]&lt;div&gt;- capacity: int&lt;br&gt;&lt;div&gt;...&lt;/div&gt;&lt;/div&gt;" style="text;fillColor=#b1ddf0;align=left;verticalAlign=top;spacingLeft=4;spacingRight=4;overflow=hidden;rotatable=0;points=[[0,0.5],[1,0.5]];portConstraint=eastwest;whiteSpace=wrap;html=1;strokeColor=#10739e;shadow=0;strokeWidth=5;" parent="hh-YMT1tnlc0o9IW1VK7-156" vertex="1">
          <mxGeometry y="26" width="300" height="60" as="geometry" />
        </mxCell>
        <mxCell id="hh-YMT1tnlc0o9IW1VK7-158" value="" style="line;strokeWidth=5;fillColor=#b1ddf0;align=left;verticalAlign=middle;spacingTop=-1;spacingLeft=3;spacingRight=3;rotatable=0;labelPosition=right;points=[];portConstraint=eastwest;strokeColor=#10739e;shadow=0;" parent="hh-YMT1tnlc0o9IW1VK7-156" vertex="1">
          <mxGeometry y="86" width="300" height="10" as="geometry" />
        </mxCell>
        <mxCell id="hh-YMT1tnlc0o9IW1VK7-159" value="+ Inventory (int capacity)&lt;div&gt;+ addItem(Item item)&lt;/div&gt;&lt;div&gt;+ removeComputerCard(ComputerCard card)&lt;br&gt;&lt;div&gt;...&lt;/div&gt;&lt;/div&gt;" style="text;fillColor=#b1ddf0;align=left;verticalAlign=top;spacingLeft=4;spacingRight=4;overflow=hidden;rotatable=0;points=[[0,0.5],[1,0.5]];portConstraint=eastwest;whiteSpace=wrap;html=1;strokeColor=#10739e;shadow=0;strokeWidth=5;" parent="hh-YMT1tnlc0o9IW1VK7-156" vertex="1">
          <mxGeometry y="96" width="300" height="80" as="geometry" />
        </mxCell>
        <mxCell id="hh-YMT1tnlc0o9IW1VK7-160" value="" style="endArrow=open;endFill=1;endSize=12;html=1;rounded=0;strokeWidth=5;" parent="1" source="hh-YMT1tnlc0o9IW1VK7-151" target="hh-YMT1tnlc0o9IW1VK7-156" edge="1">
          <mxGeometry width="160" relative="1" as="geometry">
            <mxPoint x="4870" y="2860" as="sourcePoint" />
            <mxPoint x="5330" y="2860" as="targetPoint" />
          </mxGeometry>
        </mxCell>
        <mxCell id="hh-YMT1tnlc0o9IW1VK7-161" value="&lt;div&gt;PokerCardsView&lt;/div&gt;" style="swimlane;fontStyle=1;align=center;verticalAlign=top;childLayout=stackLayout;horizontal=1;startSize=26;horizontalStack=0;resizeParent=1;resizeParentMax=0;resizeLast=0;collapsible=1;marginBottom=0;whiteSpace=wrap;html=1;fillColor=#fad9d5;strokeColor=#ae4132;fontColor=#000000;strokeWidth=5;" parent="1" vertex="1">
          <mxGeometry x="3140" y="3050" width="250" height="230" as="geometry" />
        </mxCell>
        <mxCell id="hh-YMT1tnlc0o9IW1VK7-162" value="..." style="text;strokeColor=#ae4132;fillColor=#fad9d5;align=left;verticalAlign=top;spacingLeft=4;spacingRight=4;overflow=hidden;rotatable=0;points=[[0,0.5],[1,0.5]];portConstraint=eastwest;whiteSpace=wrap;html=1;fontColor=#000000;strokeWidth=5;" parent="hh-YMT1tnlc0o9IW1VK7-161" vertex="1">
          <mxGeometry y="26" width="250" height="94" as="geometry" />
        </mxCell>
        <mxCell id="hh-YMT1tnlc0o9IW1VK7-163" value="" style="line;strokeWidth=5;fillColor=#fad9d5;align=left;verticalAlign=middle;spacingTop=-1;spacingLeft=3;spacingRight=3;rotatable=0;labelPosition=right;points=[];portConstraint=eastwest;strokeColor=#ae4132;fontColor=#000000;" parent="hh-YMT1tnlc0o9IW1VK7-161" vertex="1">
          <mxGeometry y="120" width="250" height="8" as="geometry" />
        </mxCell>
        <mxCell id="hh-YMT1tnlc0o9IW1VK7-164" value="+ PokerCardsView()&lt;div&gt;+ setCurrentSprite(PokerCard card)&lt;br&gt;&lt;div&gt;...&lt;/div&gt;&lt;/div&gt;" style="text;strokeColor=#ae4132;fillColor=#fad9d5;align=left;verticalAlign=top;spacingLeft=4;spacingRight=4;overflow=hidden;rotatable=0;points=[[0,0.5],[1,0.5]];portConstraint=eastwest;whiteSpace=wrap;html=1;fontColor=#000000;strokeWidth=5;" parent="hh-YMT1tnlc0o9IW1VK7-161" vertex="1">
          <mxGeometry y="128" width="250" height="102" as="geometry" />
        </mxCell>
        <mxCell id="hh-YMT1tnlc0o9IW1VK7-165" value="&lt;div&gt;PokerCardView&lt;/div&gt;" style="swimlane;fontStyle=1;align=center;verticalAlign=top;childLayout=stackLayout;horizontal=1;startSize=26;horizontalStack=0;resizeParent=1;resizeParentMax=0;resizeLast=0;collapsible=1;marginBottom=0;whiteSpace=wrap;html=1;fillColor=#fad9d5;strokeColor=#ae4132;fontColor=#000000;strokeWidth=5;" parent="1" vertex="1">
          <mxGeometry x="3655" y="2810" width="320" height="230" as="geometry" />
        </mxCell>
        <mxCell id="hh-YMT1tnlc0o9IW1VK7-166" value="..." style="text;strokeColor=#ae4132;fillColor=#fad9d5;align=left;verticalAlign=top;spacingLeft=4;spacingRight=4;overflow=hidden;rotatable=0;points=[[0,0.5],[1,0.5]];portConstraint=eastwest;whiteSpace=wrap;html=1;fontColor=#000000;strokeWidth=5;" parent="hh-YMT1tnlc0o9IW1VK7-165" vertex="1">
          <mxGeometry y="26" width="320" height="94" as="geometry" />
        </mxCell>
        <mxCell id="hh-YMT1tnlc0o9IW1VK7-167" value="" style="line;strokeWidth=5;fillColor=#fad9d5;align=left;verticalAlign=middle;spacingTop=-1;spacingLeft=3;spacingRight=3;rotatable=0;labelPosition=right;points=[];portConstraint=eastwest;strokeColor=#ae4132;fontColor=#000000;" parent="hh-YMT1tnlc0o9IW1VK7-165" vertex="1">
          <mxGeometry y="120" width="320" height="8" as="geometry" />
        </mxCell>
        <mxCell id="hh-YMT1tnlc0o9IW1VK7-168" value="+ PokerCardView(BufferedImage pokerCardSprite)&lt;div&gt;+ draw(Graphics2D g2d, int x, int y, int width, int height)&lt;br&gt;&lt;div&gt;...&lt;/div&gt;&lt;/div&gt;" style="text;strokeColor=#ae4132;fillColor=#fad9d5;align=left;verticalAlign=top;spacingLeft=4;spacingRight=4;overflow=hidden;rotatable=0;points=[[0,0.5],[1,0.5]];portConstraint=eastwest;whiteSpace=wrap;html=1;fontColor=#000000;strokeWidth=5;" parent="hh-YMT1tnlc0o9IW1VK7-165" vertex="1">
          <mxGeometry y="128" width="320" height="102" as="geometry" />
        </mxCell>
        <mxCell id="hh-YMT1tnlc0o9IW1VK7-169" value="&lt;div&gt;ComputerCardView&lt;/div&gt;&lt;div&gt;&lt;br&gt;&lt;/div&gt;" style="swimlane;fontStyle=1;align=center;verticalAlign=top;childLayout=stackLayout;horizontal=1;startSize=26;horizontalStack=0;resizeParent=1;resizeParentMax=0;resizeLast=0;collapsible=1;marginBottom=0;whiteSpace=wrap;html=1;fillColor=#fad9d5;strokeColor=#ae4132;fontColor=#000000;strokeWidth=5;" parent="1" vertex="1">
          <mxGeometry x="2670" y="3320" width="320" height="230" as="geometry" />
        </mxCell>
        <mxCell id="hh-YMT1tnlc0o9IW1VK7-170" value="..." style="text;strokeColor=#ae4132;fillColor=#fad9d5;align=left;verticalAlign=top;spacingLeft=4;spacingRight=4;overflow=hidden;rotatable=0;points=[[0,0.5],[1,0.5]];portConstraint=eastwest;whiteSpace=wrap;html=1;fontColor=#000000;strokeWidth=5;" parent="hh-YMT1tnlc0o9IW1VK7-169" vertex="1">
          <mxGeometry y="26" width="320" height="94" as="geometry" />
        </mxCell>
        <mxCell id="hh-YMT1tnlc0o9IW1VK7-171" value="" style="line;strokeWidth=5;fillColor=#fad9d5;align=left;verticalAlign=middle;spacingTop=-1;spacingLeft=3;spacingRight=3;rotatable=0;labelPosition=right;points=[];portConstraint=eastwest;strokeColor=#ae4132;fontColor=#000000;" parent="hh-YMT1tnlc0o9IW1VK7-169" vertex="1">
          <mxGeometry y="120" width="320" height="8" as="geometry" />
        </mxCell>
        <mxCell id="hh-YMT1tnlc0o9IW1VK7-172" value="&lt;div&gt;&lt;span style=&quot;background-color: transparent;&quot;&gt;+ ComputerCardView(ComputerCard computerCard)&lt;/span&gt;&lt;/div&gt;&lt;div&gt;&lt;span style=&quot;background-color: transparent;&quot;&gt;+ draw(&lt;/span&gt;&lt;span style=&quot;background-color: transparent;&quot;&gt;Graphics2D g2d, int x, int y, int width, int height)&lt;/span&gt;&lt;/div&gt;&lt;div&gt;&lt;span style=&quot;background-color: transparent;&quot;&gt;...&lt;/span&gt;&lt;/div&gt;" style="text;strokeColor=#ae4132;fillColor=#fad9d5;align=left;verticalAlign=top;spacingLeft=4;spacingRight=4;overflow=hidden;rotatable=0;points=[[0,0.5],[1,0.5]];portConstraint=eastwest;whiteSpace=wrap;html=1;fontColor=#000000;strokeWidth=5;" parent="hh-YMT1tnlc0o9IW1VK7-169" vertex="1">
          <mxGeometry y="128" width="320" height="102" as="geometry" />
        </mxCell>
        <mxCell id="hh-YMT1tnlc0o9IW1VK7-174" value="" style="endArrow=diamondThin;endFill=1;endSize=24;html=1;rounded=0;fillColor=#fad9d5;strokeColor=#ae4132;fontColor=#000000;strokeWidth=5;" parent="1" source="hh-YMT1tnlc0o9IW1VK7-151" target="hh-YMT1tnlc0o9IW1VK7-169" edge="1">
          <mxGeometry width="160" relative="1" as="geometry">
            <mxPoint x="3915" y="3120" as="sourcePoint" />
            <mxPoint x="5305" y="3482" as="targetPoint" />
          </mxGeometry>
        </mxCell>
        <mxCell id="hh-YMT1tnlc0o9IW1VK7-175" value="" style="endArrow=diamondThin;endFill=1;endSize=24;html=1;rounded=0;fillColor=#fad9d5;strokeColor=#ae4132;fontColor=#000000;strokeWidth=5;" parent="1" source="hh-YMT1tnlc0o9IW1VK7-151" target="hh-YMT1tnlc0o9IW1VK7-165" edge="1">
          <mxGeometry width="160" relative="1" as="geometry">
            <mxPoint x="4065" y="3080" as="sourcePoint" />
            <mxPoint x="4525" y="3203" as="targetPoint" />
          </mxGeometry>
        </mxCell>
        <mxCell id="hh-YMT1tnlc0o9IW1VK7-176" value="" style="endArrow=open;endFill=1;endSize=12;html=1;rounded=0;fillColor=#fad9d5;strokeColor=#ae4132;fontColor=#000000;strokeWidth=5;" parent="1" source="hh-YMT1tnlc0o9IW1VK7-165" target="hh-YMT1tnlc0o9IW1VK7-161" edge="1">
          <mxGeometry width="160" relative="1" as="geometry">
            <mxPoint x="4545" y="3522" as="sourcePoint" />
            <mxPoint x="5005" y="3420" as="targetPoint" />
          </mxGeometry>
        </mxCell>
        <mxCell id="hh-YMT1tnlc0o9IW1VK7-177" value="Extends" style="endArrow=block;endSize=16;endFill=0;html=1;rounded=0;strokeWidth=5;" parent="1" source="hh-YMT1tnlc0o9IW1VK7-156" target="hh-YMT1tnlc0o9IW1VK7-118" edge="1">
          <mxGeometry width="160" relative="1" as="geometry">
            <mxPoint x="6200" y="2964" as="sourcePoint" />
            <mxPoint x="6579" y="2960" as="targetPoint" />
          </mxGeometry>
        </mxCell>
        <mxCell id="hh-YMT1tnlc0o9IW1VK7-178" value="&lt;div&gt;ComputerCard&lt;/div&gt;" style="swimlane;fontStyle=1;align=center;verticalAlign=top;childLayout=stackLayout;horizontal=1;startSize=26;horizontalStack=0;resizeParent=1;resizeParentMax=0;resizeLast=0;collapsible=1;marginBottom=0;whiteSpace=wrap;html=1;fillColor=#b1ddf0;strokeColor=#10739e;shadow=0;strokeWidth=5;" parent="1" vertex="1">
          <mxGeometry x="5490" y="3500" width="250" height="226" as="geometry" />
        </mxCell>
        <mxCell id="hh-YMT1tnlc0o9IW1VK7-179" value="..." style="text;fillColor=#b1ddf0;align=left;verticalAlign=top;spacingLeft=4;spacingRight=4;overflow=hidden;rotatable=0;points=[[0,0.5],[1,0.5]];portConstraint=eastwest;whiteSpace=wrap;html=1;strokeColor=#10739e;shadow=0;strokeWidth=5;" parent="hh-YMT1tnlc0o9IW1VK7-178" vertex="1">
          <mxGeometry y="26" width="250" height="90" as="geometry" />
        </mxCell>
        <mxCell id="hh-YMT1tnlc0o9IW1VK7-180" value="" style="line;strokeWidth=5;fillColor=#b1ddf0;align=left;verticalAlign=middle;spacingTop=-1;spacingLeft=3;spacingRight=3;rotatable=0;labelPosition=right;points=[];portConstraint=eastwest;strokeColor=#10739e;shadow=0;" parent="hh-YMT1tnlc0o9IW1VK7-178" vertex="1">
          <mxGeometry y="116" width="250" height="10" as="geometry" />
        </mxCell>
        <mxCell id="hh-YMT1tnlc0o9IW1VK7-181" value="+ ComputerCard()" style="text;fillColor=#b1ddf0;align=left;verticalAlign=top;spacingLeft=4;spacingRight=4;overflow=hidden;rotatable=0;points=[[0,0.5],[1,0.5]];portConstraint=eastwest;whiteSpace=wrap;html=1;strokeColor=#10739e;shadow=0;strokeWidth=5;" parent="hh-YMT1tnlc0o9IW1VK7-178" vertex="1">
          <mxGeometry y="126" width="250" height="100" as="geometry" />
        </mxCell>
        <mxCell id="hh-YMT1tnlc0o9IW1VK7-182" value="" style="endArrow=open;endFill=1;endSize=12;html=1;rounded=0;strokeWidth=5;" parent="1" source="hh-YMT1tnlc0o9IW1VK7-169" target="hh-YMT1tnlc0o9IW1VK7-178" edge="1">
          <mxGeometry width="160" relative="1" as="geometry">
            <mxPoint x="5640" y="3300" as="sourcePoint" />
            <mxPoint x="6020" y="3306" as="targetPoint" />
          </mxGeometry>
        </mxCell>
        <mxCell id="hh-YMT1tnlc0o9IW1VK7-183" value="&lt;div&gt;&amp;lt;&amp;lt;abstract&amp;gt;&amp;gt; Item&lt;/div&gt;" style="swimlane;fontStyle=1;align=center;verticalAlign=top;childLayout=stackLayout;horizontal=1;startSize=26;horizontalStack=0;resizeParent=1;resizeParentMax=0;resizeLast=0;collapsible=1;marginBottom=0;whiteSpace=wrap;html=1;fillColor=#b1ddf0;strokeColor=#10739e;shadow=0;strokeWidth=5;" parent="1" vertex="1">
          <mxGeometry x="7170" y="3280" width="250" height="226" as="geometry" />
        </mxCell>
        <mxCell id="hh-YMT1tnlc0o9IW1VK7-184" value="- name : String&lt;div&gt;&lt;br&gt;&lt;/div&gt;" style="text;fillColor=#b1ddf0;align=left;verticalAlign=top;spacingLeft=4;spacingRight=4;overflow=hidden;rotatable=0;points=[[0,0.5],[1,0.5]];portConstraint=eastwest;whiteSpace=wrap;html=1;strokeColor=#10739e;shadow=0;strokeWidth=5;" parent="hh-YMT1tnlc0o9IW1VK7-183" vertex="1">
          <mxGeometry y="26" width="250" height="90" as="geometry" />
        </mxCell>
        <mxCell id="hh-YMT1tnlc0o9IW1VK7-185" value="" style="line;strokeWidth=5;fillColor=#b1ddf0;align=left;verticalAlign=middle;spacingTop=-1;spacingLeft=3;spacingRight=3;rotatable=0;labelPosition=right;points=[];portConstraint=eastwest;strokeColor=#10739e;shadow=0;" parent="hh-YMT1tnlc0o9IW1VK7-183" vertex="1">
          <mxGeometry y="116" width="250" height="10" as="geometry" />
        </mxCell>
        <mxCell id="hh-YMT1tnlc0o9IW1VK7-186" value="+ Item()&lt;div&gt;...&lt;/div&gt;" style="text;fillColor=#b1ddf0;align=left;verticalAlign=top;spacingLeft=4;spacingRight=4;overflow=hidden;rotatable=0;points=[[0,0.5],[1,0.5]];portConstraint=eastwest;whiteSpace=wrap;html=1;strokeColor=#10739e;shadow=0;strokeWidth=5;" parent="hh-YMT1tnlc0o9IW1VK7-183" vertex="1">
          <mxGeometry y="126" width="250" height="100" as="geometry" />
        </mxCell>
        <mxCell id="hh-YMT1tnlc0o9IW1VK7-187" value="Extends" style="endArrow=block;endSize=16;endFill=0;html=1;rounded=0;fillColor=#b1ddf0;strokeColor=#10739e;shadow=0;strokeWidth=5;" parent="1" source="hh-YMT1tnlc0o9IW1VK7-178" target="hh-YMT1tnlc0o9IW1VK7-183" edge="1">
          <mxGeometry width="160" relative="1" as="geometry">
            <mxPoint x="6630" y="4109" as="sourcePoint" />
            <mxPoint x="8032" y="3280" as="targetPoint" />
          </mxGeometry>
        </mxCell>
        <mxCell id="hh-YMT1tnlc0o9IW1VK7-188" value="&lt;div&gt;PokerCard&lt;/div&gt;" style="swimlane;fontStyle=1;align=center;verticalAlign=top;childLayout=stackLayout;horizontal=1;startSize=26;horizontalStack=0;resizeParent=1;resizeParentMax=0;resizeLast=0;collapsible=1;marginBottom=0;whiteSpace=wrap;html=1;fillColor=#b1ddf0;strokeColor=#10739e;shadow=0;strokeWidth=5;" parent="1" vertex="1">
          <mxGeometry x="5460" y="3120" width="360" height="256" as="geometry" />
        </mxCell>
        <mxCell id="hh-YMT1tnlc0o9IW1VK7-189" value="+ oneclub : PokerCard&lt;div&gt;+ twoclub : PokerCard&lt;/div&gt;&lt;div&gt;&lt;br&gt;&lt;/div&gt;&lt;div&gt;- pokerCards : PokerCard[]&lt;/div&gt;" style="text;fillColor=#b1ddf0;align=left;verticalAlign=top;spacingLeft=4;spacingRight=4;overflow=hidden;rotatable=0;points=[[0,0.5],[1,0.5]];portConstraint=eastwest;whiteSpace=wrap;html=1;strokeColor=#10739e;shadow=0;strokeWidth=5;" parent="hh-YMT1tnlc0o9IW1VK7-188" vertex="1">
          <mxGeometry y="26" width="360" height="90" as="geometry" />
        </mxCell>
        <mxCell id="hh-YMT1tnlc0o9IW1VK7-190" value="" style="line;strokeWidth=5;fillColor=#b1ddf0;align=left;verticalAlign=middle;spacingTop=-1;spacingLeft=3;spacingRight=3;rotatable=0;labelPosition=right;points=[];portConstraint=eastwest;strokeColor=#10739e;shadow=0;" parent="hh-YMT1tnlc0o9IW1VK7-188" vertex="1">
          <mxGeometry y="116" width="360" height="10" as="geometry" />
        </mxCell>
        <mxCell id="hh-YMT1tnlc0o9IW1VK7-191" value="- PokerCard(String name, float droprate, int value)&lt;div&gt;&lt;br&gt;&lt;/div&gt;&lt;div&gt;+ getRandomPokerCard : PokerCard&lt;/div&gt;&lt;div&gt;+ getBoostedAcePokerCard : PokerCard&lt;/div&gt;&lt;div&gt;+ getBoostedFacePokerCard : PokerCard&lt;/div&gt;&lt;div&gt;+ getBoosted10Card : PokerCard&lt;/div&gt;&lt;div&gt;...&lt;/div&gt;&lt;div&gt;&lt;br&gt;&lt;/div&gt;" style="text;fillColor=#b1ddf0;align=left;verticalAlign=top;spacingLeft=4;spacingRight=4;overflow=hidden;rotatable=0;points=[[0,0.5],[1,0.5]];portConstraint=eastwest;whiteSpace=wrap;html=1;strokeColor=#10739e;shadow=0;strokeWidth=5;" parent="hh-YMT1tnlc0o9IW1VK7-188" vertex="1">
          <mxGeometry y="126" width="360" height="130" as="geometry" />
        </mxCell>
        <mxCell id="hh-YMT1tnlc0o9IW1VK7-193" value="Extends" style="endArrow=block;endSize=16;endFill=0;html=1;rounded=0;fillColor=#b1ddf0;strokeColor=#10739e;shadow=0;strokeWidth=5;" parent="1" source="hh-YMT1tnlc0o9IW1VK7-188" target="hh-YMT1tnlc0o9IW1VK7-183" edge="1">
          <mxGeometry width="160" relative="1" as="geometry">
            <mxPoint x="7070" y="3312" as="sourcePoint" />
            <mxPoint x="7530" y="3300" as="targetPoint" />
          </mxGeometry>
        </mxCell>
        <mxCell id="hh-YMT1tnlc0o9IW1VK7-195" value="&lt;div&gt;&amp;lt;&amp;lt;abstract&amp;gt;&amp;gt; ItemView&lt;/div&gt;" style="swimlane;fontStyle=1;align=center;verticalAlign=top;childLayout=stackLayout;horizontal=1;startSize=26;horizontalStack=0;resizeParent=1;resizeParentMax=0;resizeLast=0;collapsible=1;marginBottom=0;whiteSpace=wrap;html=1;fillColor=#fad9d5;strokeColor=#ae4132;fontColor=#000000;strokeWidth=5;" parent="1" vertex="1">
          <mxGeometry x="3730" y="3590" width="370" height="230" as="geometry" />
        </mxCell>
        <mxCell id="hh-YMT1tnlc0o9IW1VK7-196" value="+ item : Item" style="text;strokeColor=#ae4132;fillColor=#fad9d5;align=left;verticalAlign=top;spacingLeft=4;spacingRight=4;overflow=hidden;rotatable=0;points=[[0,0.5],[1,0.5]];portConstraint=eastwest;whiteSpace=wrap;html=1;fontColor=#000000;strokeWidth=5;" parent="hh-YMT1tnlc0o9IW1VK7-195" vertex="1">
          <mxGeometry y="26" width="370" height="94" as="geometry" />
        </mxCell>
        <mxCell id="hh-YMT1tnlc0o9IW1VK7-197" value="" style="line;strokeWidth=5;fillColor=#fad9d5;align=left;verticalAlign=middle;spacingTop=-1;spacingLeft=3;spacingRight=3;rotatable=0;labelPosition=right;points=[];portConstraint=eastwest;strokeColor=#ae4132;fontColor=#000000;" parent="hh-YMT1tnlc0o9IW1VK7-195" vertex="1">
          <mxGeometry y="120" width="370" height="8" as="geometry" />
        </mxCell>
        <mxCell id="hh-YMT1tnlc0o9IW1VK7-198" value="+ ItemView(Item item)&lt;div&gt;+ draw(Graphics2D, int x, int y, int width, int height)&lt;/div&gt;" style="text;strokeColor=#ae4132;fillColor=#fad9d5;align=left;verticalAlign=top;spacingLeft=4;spacingRight=4;overflow=hidden;rotatable=0;points=[[0,0.5],[1,0.5]];portConstraint=eastwest;whiteSpace=wrap;html=1;fontColor=#000000;strokeWidth=5;" parent="hh-YMT1tnlc0o9IW1VK7-195" vertex="1">
          <mxGeometry y="128" width="370" height="102" as="geometry" />
        </mxCell>
        <mxCell id="hh-YMT1tnlc0o9IW1VK7-199" value="Extends" style="endArrow=block;endSize=16;endFill=0;html=1;rounded=0;fillColor=#fad9d5;strokeColor=#ae4132;fontColor=#000000;strokeWidth=5;" parent="1" source="hh-YMT1tnlc0o9IW1VK7-161" target="hh-YMT1tnlc0o9IW1VK7-195" edge="1">
          <mxGeometry width="160" relative="1" as="geometry">
            <mxPoint x="5325" y="3422" as="sourcePoint" />
            <mxPoint x="5765" y="3410" as="targetPoint" />
          </mxGeometry>
        </mxCell>
        <mxCell id="hh-YMT1tnlc0o9IW1VK7-200" value="Extends" style="endArrow=block;endSize=16;endFill=0;html=1;rounded=0;strokeColor=#006EAF;fillColor=#1ba1e2;strokeWidth=5;" parent="1" source="hh-YMT1tnlc0o9IW1VK7-96" target="hh-YMT1tnlc0o9IW1VK7-104" edge="1">
          <mxGeometry width="160" relative="1" as="geometry">
            <mxPoint x="5550" y="2401" as="sourcePoint" />
            <mxPoint x="6220" y="2080" as="targetPoint" />
          </mxGeometry>
        </mxCell>
        <mxCell id="hh-YMT1tnlc0o9IW1VK7-201" value="Extends" style="endArrow=block;endSize=16;endFill=0;html=1;rounded=0;fillColor=#fad9d5;strokeColor=#ae4132;fontColor=#000000;strokeWidth=5;" parent="1" source="hh-YMT1tnlc0o9IW1VK7-165" target="hh-YMT1tnlc0o9IW1VK7-195" edge="1">
          <mxGeometry width="160" relative="1" as="geometry">
            <mxPoint x="4975" y="3273" as="sourcePoint" />
            <mxPoint x="6165" y="3170" as="targetPoint" />
          </mxGeometry>
        </mxCell>
        <mxCell id="hh-YMT1tnlc0o9IW1VK7-202" value="Extends" style="endArrow=block;endSize=16;endFill=0;html=1;rounded=0;fillColor=#fad9d5;strokeColor=#ae4132;fontColor=#000000;strokeWidth=5;" parent="1" source="hh-YMT1tnlc0o9IW1VK7-169" target="hh-YMT1tnlc0o9IW1VK7-195" edge="1">
          <mxGeometry width="160" relative="1" as="geometry">
            <mxPoint x="4995" y="3514" as="sourcePoint" />
            <mxPoint x="6775" y="3330" as="targetPoint" />
          </mxGeometry>
        </mxCell>
        <mxCell id="hh-YMT1tnlc0o9IW1VK7-204" value="" style="endArrow=open;endFill=1;endSize=12;html=1;rounded=0;strokeWidth=5;" parent="1" source="hh-YMT1tnlc0o9IW1VK7-161" target="hh-YMT1tnlc0o9IW1VK7-188" edge="1">
          <mxGeometry width="160" relative="1" as="geometry">
            <mxPoint x="5470" y="3590" as="sourcePoint" />
            <mxPoint x="5930" y="3590" as="targetPoint" />
          </mxGeometry>
        </mxCell>
        <mxCell id="hh-YMT1tnlc0o9IW1VK7-205" value="&lt;div&gt;LevelView&lt;/div&gt;&lt;div&gt;&lt;br&gt;&lt;/div&gt;" style="swimlane;fontStyle=1;align=center;verticalAlign=top;childLayout=stackLayout;horizontal=1;startSize=26;horizontalStack=0;resizeParent=1;resizeParentMax=0;resizeLast=0;collapsible=1;marginBottom=0;whiteSpace=wrap;html=1;fillColor=#ffcc99;strokeColor=#36393d;fontColor=#000000;strokeWidth=5;" parent="1" vertex="1">
          <mxGeometry x="3860" y="510" width="420" height="230" as="geometry" />
        </mxCell>
        <mxCell id="hh-YMT1tnlc0o9IW1VK7-206" value="- levelManager : LevelManager&lt;div&gt;- tileManager : TileManager&lt;/div&gt;&lt;div&gt;- tiles : Tile[]&lt;/div&gt;&lt;div&gt;...&lt;/div&gt;" style="text;strokeColor=#36393d;fillColor=#ffcc99;align=left;verticalAlign=top;spacingLeft=4;spacingRight=4;overflow=hidden;rotatable=0;points=[[0,0.5],[1,0.5]];portConstraint=eastwest;whiteSpace=wrap;html=1;fontColor=#000000;strokeWidth=5;" parent="hh-YMT1tnlc0o9IW1VK7-205" vertex="1">
          <mxGeometry y="26" width="420" height="94" as="geometry" />
        </mxCell>
        <mxCell id="hh-YMT1tnlc0o9IW1VK7-207" value="" style="line;strokeWidth=5;fillColor=#ffcc99;align=left;verticalAlign=middle;spacingTop=-1;spacingLeft=3;spacingRight=3;rotatable=0;labelPosition=right;points=[];portConstraint=eastwest;strokeColor=#36393d;fontColor=#000000;" parent="hh-YMT1tnlc0o9IW1VK7-205" vertex="1">
          <mxGeometry y="120" width="420" height="8" as="geometry" />
        </mxCell>
        <mxCell id="hh-YMT1tnlc0o9IW1VK7-208" value="+ LevelView(LevelManager levelManager, TileManager tileManager&lt;div&gt;+ draw(Graphics2D g2d)&lt;/div&gt;&lt;div&gt;+ update(Observable o, Object arg)&lt;/div&gt;&lt;div&gt;...&lt;/div&gt;" style="text;strokeColor=#36393d;fillColor=#ffcc99;align=left;verticalAlign=top;spacingLeft=4;spacingRight=4;overflow=hidden;rotatable=0;points=[[0,0.5],[1,0.5]];portConstraint=eastwest;whiteSpace=wrap;html=1;fontColor=#000000;strokeWidth=5;" parent="hh-YMT1tnlc0o9IW1VK7-205" vertex="1">
          <mxGeometry y="128" width="420" height="102" as="geometry" />
        </mxCell>
        <mxCell id="hh-YMT1tnlc0o9IW1VK7-209" value="" style="endArrow=diamondThin;endFill=1;endSize=24;html=1;rounded=0;fontColor=#000000;strokeWidth=5;" parent="1" source="hh-YMT1tnlc0o9IW1VK7-6" target="hh-YMT1tnlc0o9IW1VK7-205" edge="1">
          <mxGeometry width="160" relative="1" as="geometry">
            <mxPoint x="2040" y="1260" as="sourcePoint" />
            <mxPoint x="3660" y="3370" as="targetPoint" />
          </mxGeometry>
        </mxCell>
        <mxCell id="hh-YMT1tnlc0o9IW1VK7-210" value="&lt;div&gt;LevelManager&lt;/div&gt;" style="swimlane;fontStyle=1;align=center;verticalAlign=top;childLayout=stackLayout;horizontal=1;startSize=26;horizontalStack=0;resizeParent=1;resizeParentMax=0;resizeLast=0;collapsible=1;marginBottom=0;whiteSpace=wrap;html=1;fillColor=#b0e3e6;strokeColor=#0e8088;strokeWidth=5;" parent="1" vertex="1">
          <mxGeometry x="5480" y="140" width="420" height="230" as="geometry" />
        </mxCell>
        <mxCell id="hh-YMT1tnlc0o9IW1VK7-211" value="- tileManager : TileManager&lt;div&gt;- player : Player&lt;/div&gt;&lt;div&gt;- worldLayout : Room[][]&lt;/div&gt;&lt;div&gt;- currentRoomData : int[][]&lt;/div&gt;&lt;div&gt;...&lt;/div&gt;" style="text;align=left;verticalAlign=top;spacingLeft=4;spacingRight=4;overflow=hidden;rotatable=0;points=[[0,0.5],[1,0.5]];portConstraint=eastwest;whiteSpace=wrap;html=1;fillColor=#b0e3e6;strokeColor=#0e8088;strokeWidth=5;" parent="hh-YMT1tnlc0o9IW1VK7-210" vertex="1">
          <mxGeometry y="26" width="420" height="94" as="geometry" />
        </mxCell>
        <mxCell id="hh-YMT1tnlc0o9IW1VK7-212" value="" style="line;strokeWidth=5;align=left;verticalAlign=middle;spacingTop=-1;spacingLeft=3;spacingRight=3;rotatable=0;labelPosition=right;points=[];portConstraint=eastwest;fillColor=#b0e3e6;strokeColor=#0e8088;" parent="hh-YMT1tnlc0o9IW1VK7-210" vertex="1">
          <mxGeometry y="120" width="420" height="8" as="geometry" />
        </mxCell>
        <mxCell id="hh-YMT1tnlc0o9IW1VK7-213" value="+ LevelManager(TileManager tileManager, Player player)&lt;div&gt;+ initializeWorldLayout() : void&lt;/div&gt;&lt;div&gt;+ initializeTutorialLayout() : void&lt;/div&gt;&lt;div&gt;+ loadRoomData() : void&lt;br&gt;&lt;div&gt;...&lt;/div&gt;&lt;/div&gt;" style="text;align=left;verticalAlign=top;spacingLeft=4;spacingRight=4;overflow=hidden;rotatable=0;points=[[0,0.5],[1,0.5]];portConstraint=eastwest;whiteSpace=wrap;html=1;fillColor=#b0e3e6;strokeColor=#0e8088;strokeWidth=5;" parent="hh-YMT1tnlc0o9IW1VK7-210" vertex="1">
          <mxGeometry y="128" width="420" height="102" as="geometry" />
        </mxCell>
        <mxCell id="hh-YMT1tnlc0o9IW1VK7-214" value="" style="endArrow=open;endFill=1;endSize=12;html=1;rounded=0;strokeWidth=5;" parent="1" source="hh-YMT1tnlc0o9IW1VK7-205" target="hh-YMT1tnlc0o9IW1VK7-210" edge="1">
          <mxGeometry width="160" relative="1" as="geometry">
            <mxPoint x="4140" y="310" as="sourcePoint" />
            <mxPoint x="5160" y="641" as="targetPoint" />
          </mxGeometry>
        </mxCell>
        <mxCell id="hh-YMT1tnlc0o9IW1VK7-215" value="&lt;div&gt;TileManager&lt;/div&gt;" style="swimlane;fontStyle=1;align=center;verticalAlign=top;childLayout=stackLayout;horizontal=1;startSize=26;horizontalStack=0;resizeParent=1;resizeParentMax=0;resizeLast=0;collapsible=1;marginBottom=0;whiteSpace=wrap;html=1;fillColor=#b0e3e6;strokeColor=#0e8088;strokeWidth=5;" parent="1" vertex="1">
          <mxGeometry x="5490" y="480" width="420" height="230" as="geometry" />
        </mxCell>
        <mxCell id="hh-YMT1tnlc0o9IW1VK7-216" value="- tiles : Tile[]&lt;div&gt;...&lt;/div&gt;" style="text;strokeColor=#0e8088;fillColor=#b0e3e6;align=left;verticalAlign=top;spacingLeft=4;spacingRight=4;overflow=hidden;rotatable=0;points=[[0,0.5],[1,0.5]];portConstraint=eastwest;whiteSpace=wrap;html=1;strokeWidth=5;" parent="hh-YMT1tnlc0o9IW1VK7-215" vertex="1">
          <mxGeometry y="26" width="420" height="94" as="geometry" />
        </mxCell>
        <mxCell id="hh-YMT1tnlc0o9IW1VK7-217" value="" style="line;strokeWidth=5;fillColor=#b0e3e6;align=left;verticalAlign=middle;spacingTop=-1;spacingLeft=3;spacingRight=3;rotatable=0;labelPosition=right;points=[];portConstraint=eastwest;strokeColor=#0e8088;" parent="hh-YMT1tnlc0o9IW1VK7-215" vertex="1">
          <mxGeometry y="120" width="420" height="8" as="geometry" />
        </mxCell>
        <mxCell id="hh-YMT1tnlc0o9IW1VK7-218" value="+ TileManager()&lt;div&gt;- initializeTiles() : void&lt;/div&gt;&lt;div&gt;...&lt;/div&gt;&lt;div&gt;&lt;br&gt;&lt;/div&gt;" style="text;strokeColor=#0e8088;fillColor=#b0e3e6;align=left;verticalAlign=top;spacingLeft=4;spacingRight=4;overflow=hidden;rotatable=0;points=[[0,0.5],[1,0.5]];portConstraint=eastwest;whiteSpace=wrap;html=1;strokeWidth=5;" parent="hh-YMT1tnlc0o9IW1VK7-215" vertex="1">
          <mxGeometry y="128" width="420" height="102" as="geometry" />
        </mxCell>
        <mxCell id="hh-YMT1tnlc0o9IW1VK7-219" value="" style="endArrow=open;endFill=1;endSize=12;html=1;rounded=0;strokeWidth=5;" parent="1" source="hh-YMT1tnlc0o9IW1VK7-205" target="hh-YMT1tnlc0o9IW1VK7-215" edge="1">
          <mxGeometry width="160" relative="1" as="geometry">
            <mxPoint x="4040" y="520" as="sourcePoint" />
            <mxPoint x="4450" y="510" as="targetPoint" />
          </mxGeometry>
        </mxCell>
        <mxCell id="hh-YMT1tnlc0o9IW1VK7-220" value="&lt;div&gt;Tile&lt;/div&gt;" style="swimlane;fontStyle=1;align=center;verticalAlign=top;childLayout=stackLayout;horizontal=1;startSize=26;horizontalStack=0;resizeParent=1;resizeParentMax=0;resizeLast=0;collapsible=1;marginBottom=0;whiteSpace=wrap;html=1;fillColor=#b0e3e6;strokeColor=#0e8088;strokeWidth=5;" parent="1" vertex="1">
          <mxGeometry x="6160" y="490" width="420" height="230" as="geometry" />
        </mxCell>
        <mxCell id="hh-YMT1tnlc0o9IW1VK7-221" value="+ collision : boolean&lt;div&gt;+ image : BufferedImage&lt;/div&gt;&lt;div&gt;+ width : int&lt;/div&gt;&lt;div&gt;+ height : int&lt;/div&gt;" style="text;strokeColor=#0e8088;fillColor=#b0e3e6;align=left;verticalAlign=top;spacingLeft=4;spacingRight=4;overflow=hidden;rotatable=0;points=[[0,0.5],[1,0.5]];portConstraint=eastwest;whiteSpace=wrap;html=1;strokeWidth=5;" parent="hh-YMT1tnlc0o9IW1VK7-220" vertex="1">
          <mxGeometry y="26" width="420" height="94" as="geometry" />
        </mxCell>
        <mxCell id="hh-YMT1tnlc0o9IW1VK7-222" value="" style="line;strokeWidth=5;fillColor=#b0e3e6;align=left;verticalAlign=middle;spacingTop=-1;spacingLeft=3;spacingRight=3;rotatable=0;labelPosition=right;points=[];portConstraint=eastwest;strokeColor=#0e8088;" parent="hh-YMT1tnlc0o9IW1VK7-220" vertex="1">
          <mxGeometry y="120" width="420" height="8" as="geometry" />
        </mxCell>
        <mxCell id="hh-YMT1tnlc0o9IW1VK7-223" value="+ TileManager()&lt;div&gt;- initializeTiles() : void&lt;/div&gt;&lt;div&gt;&lt;br&gt;&lt;/div&gt;" style="text;strokeColor=#0e8088;fillColor=#b0e3e6;align=left;verticalAlign=top;spacingLeft=4;spacingRight=4;overflow=hidden;rotatable=0;points=[[0,0.5],[1,0.5]];portConstraint=eastwest;whiteSpace=wrap;html=1;strokeWidth=5;" parent="hh-YMT1tnlc0o9IW1VK7-220" vertex="1">
          <mxGeometry y="128" width="420" height="102" as="geometry" />
        </mxCell>
        <mxCell id="hh-YMT1tnlc0o9IW1VK7-224" value="" style="endArrow=open;endFill=1;endSize=12;html=1;rounded=0;fillColor=#b0e3e6;strokeColor=#0e8088;strokeWidth=5;" parent="1" source="hh-YMT1tnlc0o9IW1VK7-215" target="hh-YMT1tnlc0o9IW1VK7-220" edge="1">
          <mxGeometry width="160" relative="1" as="geometry">
            <mxPoint x="5830" y="440" as="sourcePoint" />
            <mxPoint x="6240" y="598" as="targetPoint" />
          </mxGeometry>
        </mxCell>
        <mxCell id="hh-YMT1tnlc0o9IW1VK7-225" value="&lt;div&gt;Room&lt;/div&gt;" style="swimlane;fontStyle=1;align=center;verticalAlign=top;childLayout=stackLayout;horizontal=1;startSize=26;horizontalStack=0;resizeParent=1;resizeParentMax=0;resizeLast=0;collapsible=1;marginBottom=0;whiteSpace=wrap;html=1;fillColor=#b0e3e6;strokeColor=#0e8088;strokeWidth=5;" parent="1" vertex="1">
          <mxGeometry x="6160" y="130" width="460" height="300" as="geometry" />
        </mxCell>
        <mxCell id="hh-YMT1tnlc0o9IW1VK7-226" value="- roomType :&amp;nbsp; RoomType&amp;nbsp;&lt;div&gt;- interactableObjects : List&amp;lt;InteractableObject&amp;gt;&lt;/div&gt;&lt;div&gt;- drones : List&amp;lt;Drone&amp;gt;&lt;/div&gt;&lt;div&gt;- dogs : List&amp;lt;Dog&amp;gt;&lt;/div&gt;&lt;div&gt;&lt;br&gt;&lt;/div&gt;" style="text;strokeColor=#0e8088;fillColor=#b0e3e6;align=left;verticalAlign=top;spacingLeft=4;spacingRight=4;overflow=hidden;rotatable=0;points=[[0,0.5],[1,0.5]];portConstraint=eastwest;whiteSpace=wrap;html=1;strokeWidth=5;" parent="hh-YMT1tnlc0o9IW1VK7-225" vertex="1">
          <mxGeometry y="26" width="460" height="94" as="geometry" />
        </mxCell>
        <mxCell id="hh-YMT1tnlc0o9IW1VK7-227" value="" style="line;strokeWidth=5;fillColor=#b0e3e6;align=left;verticalAlign=middle;spacingTop=-1;spacingLeft=3;spacingRight=3;rotatable=0;labelPosition=right;points=[];portConstraint=eastwest;strokeColor=#0e8088;" parent="hh-YMT1tnlc0o9IW1VK7-225" vertex="1">
          <mxGeometry y="120" width="460" height="8" as="geometry" />
        </mxCell>
        <mxCell id="hh-YMT1tnlc0o9IW1VK7-228" value="&lt;div&gt;+Room(RoomType roomType, int levelIndex, boolean isOpen)&lt;/div&gt;&lt;div&gt;+ deactivateAllDrones() : void&lt;/div&gt;&lt;div&gt;+ deactivateAllDogs() ; void&lt;/div&gt;&lt;div&gt;+ addInteractableObject(InteractableObject interactableObject)&lt;/div&gt;&lt;div&gt;+ addDrone(Drone drone) : void&lt;/div&gt;&lt;div&gt;+ addDog(Dog dog): void&lt;/div&gt;&lt;div&gt;...&lt;/div&gt;" style="text;strokeColor=#0e8088;fillColor=#b0e3e6;align=left;verticalAlign=top;spacingLeft=4;spacingRight=4;overflow=hidden;rotatable=0;points=[[0,0.5],[1,0.5]];portConstraint=eastwest;whiteSpace=wrap;html=1;strokeWidth=5;" parent="hh-YMT1tnlc0o9IW1VK7-225" vertex="1">
          <mxGeometry y="128" width="460" height="172" as="geometry" />
        </mxCell>
        <mxCell id="hh-YMT1tnlc0o9IW1VK7-229" value="&lt;div&gt;&amp;lt;&amp;lt;enum&amp;gt;&amp;gt;RoomType&lt;/div&gt;" style="swimlane;fontStyle=1;align=center;verticalAlign=top;childLayout=stackLayout;horizontal=1;startSize=26;horizontalStack=0;resizeParent=1;resizeParentMax=0;resizeLast=0;collapsible=1;marginBottom=0;whiteSpace=wrap;html=1;fillColor=#b0e3e6;strokeColor=#0e8088;strokeWidth=5;" parent="1" vertex="1">
          <mxGeometry x="7010" y="220" width="460" height="128" as="geometry" />
        </mxCell>
        <mxCell id="hh-YMT1tnlc0o9IW1VK7-230" value="&lt;div&gt;TUTORIAL, LEVEL, EXTRACTION, GROUND, ELEVATOR&lt;/div&gt;" style="text;strokeColor=#0e8088;fillColor=#b0e3e6;align=left;verticalAlign=top;spacingLeft=4;spacingRight=4;overflow=hidden;rotatable=0;points=[[0,0.5],[1,0.5]];portConstraint=eastwest;whiteSpace=wrap;html=1;strokeWidth=5;" parent="hh-YMT1tnlc0o9IW1VK7-229" vertex="1">
          <mxGeometry y="26" width="460" height="94" as="geometry" />
        </mxCell>
        <mxCell id="hh-YMT1tnlc0o9IW1VK7-231" value="" style="line;strokeWidth=5;fillColor=#b0e3e6;align=left;verticalAlign=middle;spacingTop=-1;spacingLeft=3;spacingRight=3;rotatable=0;labelPosition=right;points=[];portConstraint=eastwest;strokeColor=#0e8088;" parent="hh-YMT1tnlc0o9IW1VK7-229" vertex="1">
          <mxGeometry y="120" width="460" height="8" as="geometry" />
        </mxCell>
        <mxCell id="hh-YMT1tnlc0o9IW1VK7-233" value="" style="endArrow=open;endFill=1;endSize=12;html=1;rounded=0;strokeWidth=5;" parent="1" source="hh-YMT1tnlc0o9IW1VK7-225" target="hh-YMT1tnlc0o9IW1VK7-229" edge="1">
          <mxGeometry width="160" relative="1" as="geometry">
            <mxPoint x="6490" y="550" as="sourcePoint" />
            <mxPoint x="6740" y="554" as="targetPoint" />
          </mxGeometry>
        </mxCell>
        <mxCell id="hh-YMT1tnlc0o9IW1VK7-234" value="" style="endArrow=open;endFill=1;endSize=12;html=1;rounded=0;fillColor=#b0e3e6;strokeColor=#0e8088;strokeWidth=5;" parent="1" source="hh-YMT1tnlc0o9IW1VK7-210" target="hh-YMT1tnlc0o9IW1VK7-225" edge="1">
          <mxGeometry width="160" relative="1" as="geometry">
            <mxPoint x="5980" y="420" as="sourcePoint" />
            <mxPoint x="6230" y="424" as="targetPoint" />
          </mxGeometry>
        </mxCell>
        <mxCell id="hh-YMT1tnlc0o9IW1VK7-239" value="" style="endArrow=open;endFill=1;endSize=12;html=1;rounded=0;strokeWidth=5;" parent="1" source="hh-YMT1tnlc0o9IW1VK7-138" target="hh-YMT1tnlc0o9IW1VK7-225" edge="1">
          <mxGeometry width="160" relative="1" as="geometry">
            <mxPoint x="5270" y="-80" as="sourcePoint" />
            <mxPoint x="5530" y="-71" as="targetPoint" />
          </mxGeometry>
        </mxCell>
        <mxCell id="hh-YMT1tnlc0o9IW1VK7-240" value="" style="endArrow=open;endFill=1;endSize=12;html=1;rounded=0;strokeWidth=5;" parent="1" source="hh-YMT1tnlc0o9IW1VK7-134" target="hh-YMT1tnlc0o9IW1VK7-225" edge="1">
          <mxGeometry width="160" relative="1" as="geometry">
            <mxPoint x="5601" y="-150" as="sourcePoint" />
            <mxPoint x="5340" y="112" as="targetPoint" />
          </mxGeometry>
        </mxCell>
        <mxCell id="hh-YMT1tnlc0o9IW1VK7-242" value="ResultScreenView&lt;div&gt;&lt;br&gt;&lt;/div&gt;" style="swimlane;fontStyle=1;align=center;verticalAlign=top;childLayout=stackLayout;horizontal=1;startSize=26;horizontalStack=0;resizeParent=1;resizeParentMax=0;resizeLast=0;collapsible=1;marginBottom=0;whiteSpace=wrap;html=1;fillColor=#ffff88;strokeColor=#36393d;fontColor=#000000;strokeWidth=5;" parent="1" vertex="1">
          <mxGeometry x="1040" y="-390" width="320" height="210" as="geometry">
            <mxRectangle x="1690" y="340" width="100" height="40" as="alternateBounds" />
          </mxGeometry>
        </mxCell>
        <mxCell id="hh-YMT1tnlc0o9IW1VK7-243" value="- player : Player&lt;div&gt;- scoreTracker : ScoreTracker&lt;/div&gt;&lt;div&gt;...&lt;/div&gt;" style="text;strokeColor=#36393d;fillColor=#ffff88;align=left;verticalAlign=top;spacingLeft=4;spacingRight=4;overflow=hidden;rotatable=0;points=[[0,0.5],[1,0.5]];portConstraint=eastwest;whiteSpace=wrap;html=1;fontColor=#000000;strokeWidth=5;" parent="hh-YMT1tnlc0o9IW1VK7-242" vertex="1">
          <mxGeometry y="26" width="320" height="104" as="geometry" />
        </mxCell>
        <mxCell id="hh-YMT1tnlc0o9IW1VK7-244" value="" style="line;strokeWidth=5;fillColor=#ffff88;align=left;verticalAlign=middle;spacingTop=-1;spacingLeft=3;spacingRight=3;rotatable=0;labelPosition=right;points=[];portConstraint=eastwest;strokeColor=#36393d;fontColor=#000000;" parent="hh-YMT1tnlc0o9IW1VK7-242" vertex="1">
          <mxGeometry y="130" width="320" height="8" as="geometry" />
        </mxCell>
        <mxCell id="hh-YMT1tnlc0o9IW1VK7-245" value="&lt;div&gt;+ ResultScreenView(Player player)&lt;/div&gt;&lt;div&gt;+ paintComponent(Graphics g)&lt;/div&gt;&lt;div&gt;...&lt;/div&gt;" style="text;strokeColor=#36393d;fillColor=#ffff88;align=left;verticalAlign=top;spacingLeft=4;spacingRight=4;overflow=hidden;rotatable=0;points=[[0,0.5],[1,0.5]];portConstraint=eastwest;whiteSpace=wrap;html=1;fontColor=#000000;strokeWidth=5;" parent="hh-YMT1tnlc0o9IW1VK7-242" vertex="1">
          <mxGeometry y="138" width="320" height="72" as="geometry" />
        </mxCell>
        <mxCell id="hh-YMT1tnlc0o9IW1VK7-247" value="" style="endArrow=diamondThin;endFill=1;endSize=24;html=1;rounded=0;fillColor=#ffff88;strokeColor=#36393d;fontColor=default;strokeWidth=5;" parent="1" source="hh-YMT1tnlc0o9IW1VK7-6" target="hh-YMT1tnlc0o9IW1VK7-242" edge="1">
          <mxGeometry width="160" relative="1" as="geometry">
            <mxPoint x="1760" y="1244.29" as="sourcePoint" />
            <mxPoint x="1920" y="1244.29" as="targetPoint" />
          </mxGeometry>
        </mxCell>
        <mxCell id="hh-YMT1tnlc0o9IW1VK7-293" value="Use" style="endArrow=open;endSize=12;dashed=1;html=1;rounded=0;fillColor=#b0e3e6;strokeColor=#0e8088;strokeWidth=5;" parent="1" source="hh-YMT1tnlc0o9IW1VK7-210" target="hh-YMT1tnlc0o9IW1VK7-215" edge="1">
          <mxGeometry width="160" relative="1" as="geometry">
            <mxPoint x="5570" y="430" as="sourcePoint" />
            <mxPoint x="5730" y="430" as="targetPoint" />
          </mxGeometry>
        </mxCell>
        <mxCell id="hh-YMT1tnlc0o9IW1VK7-296" value="" style="endArrow=open;endFill=1;endSize=12;html=1;rounded=0;strokeWidth=5;" parent="1" source="hh-YMT1tnlc0o9IW1VK7-225" target="hh-YMT1tnlc0o9IW1VK7-104" edge="1">
          <mxGeometry width="160" relative="1" as="geometry">
            <mxPoint x="5990" y="700" as="sourcePoint" />
            <mxPoint x="6700" y="714" as="targetPoint" />
          </mxGeometry>
        </mxCell>
        <mxCell id="jvlwoZfvZ4fpxJS0tQdi-1" value="" style="endArrow=open;endFill=1;endSize=12;html=1;rounded=0;entryX=0.5;entryY=0;entryDx=0;entryDy=0;strokeWidth=5;" parent="1" source="hh-YMT1tnlc0o9IW1VK7-2" target="hh-YMT1tnlc0o9IW1VK7-6" edge="1">
          <mxGeometry width="160" relative="1" as="geometry">
            <mxPoint x="2340" y="570" as="sourcePoint" />
            <mxPoint x="2901" y="50" as="targetPoint" />
          </mxGeometry>
        </mxCell>
        <mxCell id="jvlwoZfvZ4fpxJS0tQdi-2" value="" style="endArrow=open;endFill=1;endSize=12;html=1;rounded=0;strokeWidth=5;" parent="1" source="hh-YMT1tnlc0o9IW1VK7-2" target="hh-YMT1tnlc0o9IW1VK7-11" edge="1">
          <mxGeometry width="160" relative="1" as="geometry">
            <mxPoint x="3810" y="-896" as="sourcePoint" />
            <mxPoint x="5360" y="-1310" as="targetPoint" />
          </mxGeometry>
        </mxCell>
        <mxCell id="jvlwoZfvZ4fpxJS0tQdi-3" value="TitleScreenController&lt;div&gt;&lt;br&gt;&lt;/div&gt;" style="swimlane;fontStyle=1;align=center;verticalAlign=top;childLayout=stackLayout;horizontal=1;startSize=26;horizontalStack=0;resizeParent=1;resizeParentMax=0;resizeLast=0;collapsible=1;marginBottom=0;whiteSpace=wrap;html=1;fillColor=#f8cecc;gradientColor=#ea6b66;strokeColor=#b85450;strokeWidth=5;" parent="1" vertex="1">
          <mxGeometry x="2320" y="-2920" width="490" height="236" as="geometry" />
        </mxCell>
        <mxCell id="jvlwoZfvZ4fpxJS0tQdi-4" value="&lt;div&gt;- window : JFrame&lt;/div&gt;&lt;div&gt;- titleScreenView : TitleScreenView&lt;/div&gt;&lt;div&gt;...&lt;/div&gt;&lt;div&gt;&lt;br&gt;&lt;/div&gt;" style="text;strokeColor=#b85450;fillColor=#f8cecc;align=left;verticalAlign=top;spacingLeft=4;spacingRight=4;overflow=hidden;rotatable=0;points=[[0,0.5],[1,0.5]];portConstraint=eastwest;whiteSpace=wrap;html=1;gradientColor=#ea6b66;strokeWidth=5;" parent="jvlwoZfvZ4fpxJS0tQdi-3" vertex="1">
          <mxGeometry y="26" width="490" height="110" as="geometry" />
        </mxCell>
        <mxCell id="jvlwoZfvZ4fpxJS0tQdi-5" value="" style="line;strokeWidth=5;fillColor=#f8cecc;align=left;verticalAlign=middle;spacingTop=-1;spacingLeft=3;spacingRight=3;rotatable=0;labelPosition=right;points=[];portConstraint=eastwest;strokeColor=#b85450;gradientColor=#ea6b66;" parent="jvlwoZfvZ4fpxJS0tQdi-3" vertex="1">
          <mxGeometry y="136" width="490" height="8" as="geometry" />
        </mxCell>
        <mxCell id="jvlwoZfvZ4fpxJS0tQdi-6" value="+ TitleScreenController(JFrame window, TitleScreenView titleScreenView)&lt;div&gt;- startMainGame(boolean playTutorial) : void&lt;/div&gt;&lt;div&gt;...&lt;/div&gt;" style="text;strokeColor=#b85450;fillColor=#f8cecc;align=left;verticalAlign=top;spacingLeft=4;spacingRight=4;overflow=hidden;rotatable=0;points=[[0,0.5],[1,0.5]];portConstraint=eastwest;whiteSpace=wrap;html=1;gradientColor=#ea6b66;strokeWidth=5;" parent="jvlwoZfvZ4fpxJS0tQdi-3" vertex="1">
          <mxGeometry y="144" width="490" height="92" as="geometry" />
        </mxCell>
        <mxCell id="jvlwoZfvZ4fpxJS0tQdi-9" value="" style="endArrow=open;endFill=1;endSize=12;html=1;rounded=0;strokeWidth=5;" parent="1" source="jvlwoZfvZ4fpxJS0tQdi-6" target="hh-YMT1tnlc0o9IW1VK7-2" edge="1">
          <mxGeometry width="160" relative="1" as="geometry">
            <mxPoint x="3100" y="-1830" as="sourcePoint" />
            <mxPoint x="3260" y="-1830" as="targetPoint" />
          </mxGeometry>
        </mxCell>
        <mxCell id="_qm1hqhS8DmUpOlpuxI_-1" value="" style="endArrow=open;endFill=1;endSize=12;html=1;rounded=0;strokeWidth=5;" parent="1" source="hh-YMT1tnlc0o9IW1VK7-2" target="hh-YMT1tnlc0o9IW1VK7-210" edge="1">
          <mxGeometry width="160" relative="1" as="geometry">
            <mxPoint x="3940" y="-1100" as="sourcePoint" />
            <mxPoint x="4703" y="-665" as="targetPoint" />
          </mxGeometry>
        </mxCell>
        <mxCell id="_qm1hqhS8DmUpOlpuxI_-3" value="InputHandler&lt;div&gt;&lt;br&gt;&lt;/div&gt;" style="swimlane;fontStyle=1;align=center;verticalAlign=top;childLayout=stackLayout;horizontal=1;startSize=26;horizontalStack=0;resizeParent=1;resizeParentMax=0;resizeLast=0;collapsible=1;marginBottom=0;whiteSpace=wrap;html=1;fillColor=#f8cecc;gradientColor=#ea6b66;strokeColor=#b85450;strokeWidth=5;" parent="1" vertex="1">
          <mxGeometry x="4120" y="-1748" width="660" height="236" as="geometry" />
        </mxCell>
        <mxCell id="_qm1hqhS8DmUpOlpuxI_-4" value="&lt;div&gt;+ leftPressed : boolean&lt;/div&gt;&lt;div&gt;...&lt;/div&gt;" style="text;align=left;verticalAlign=top;spacingLeft=4;spacingRight=4;overflow=hidden;rotatable=0;points=[[0,0.5],[1,0.5]];portConstraint=eastwest;whiteSpace=wrap;html=1;fillColor=#f8cecc;gradientColor=#ea6b66;strokeColor=#b85450;strokeWidth=5;" parent="_qm1hqhS8DmUpOlpuxI_-3" vertex="1">
          <mxGeometry y="26" width="660" height="110" as="geometry" />
        </mxCell>
        <mxCell id="_qm1hqhS8DmUpOlpuxI_-5" value="" style="line;strokeWidth=5;align=left;verticalAlign=middle;spacingTop=-1;spacingLeft=3;spacingRight=3;rotatable=0;labelPosition=right;points=[];portConstraint=eastwest;fillColor=#f8cecc;gradientColor=#ea6b66;strokeColor=#b85450;" parent="_qm1hqhS8DmUpOlpuxI_-3" vertex="1">
          <mxGeometry y="136" width="660" height="8" as="geometry" />
        </mxCell>
        <mxCell id="_qm1hqhS8DmUpOlpuxI_-6" value="+ keyPressed(KeyEvent e) : void&lt;div&gt;...&lt;/div&gt;" style="text;align=left;verticalAlign=top;spacingLeft=4;spacingRight=4;overflow=hidden;rotatable=0;points=[[0,0.5],[1,0.5]];portConstraint=eastwest;whiteSpace=wrap;html=1;fillColor=#f8cecc;gradientColor=#ea6b66;strokeColor=#b85450;strokeWidth=5;" parent="_qm1hqhS8DmUpOlpuxI_-3" vertex="1">
          <mxGeometry y="144" width="660" height="92" as="geometry" />
        </mxCell>
        <mxCell id="_qm1hqhS8DmUpOlpuxI_-7" value="" style="endArrow=open;endFill=1;endSize=12;html=1;rounded=0;fillColor=#f8cecc;gradientColor=#ea6b66;strokeColor=#b85450;strokeWidth=5;" parent="1" source="hh-YMT1tnlc0o9IW1VK7-2" target="_qm1hqhS8DmUpOlpuxI_-3" edge="1">
          <mxGeometry width="160" relative="1" as="geometry">
            <mxPoint x="4260" y="-1270" as="sourcePoint" />
            <mxPoint x="5023" y="-835" as="targetPoint" />
          </mxGeometry>
        </mxCell>
        <mxCell id="_qm1hqhS8DmUpOlpuxI_-8" value="" style="endArrow=open;endFill=1;endSize=12;html=1;rounded=0;strokeWidth=5;" parent="1" source="jvlwoZfvZ4fpxJS0tQdi-3" target="hh-YMT1tnlc0o9IW1VK7-242" edge="1">
          <mxGeometry width="160" relative="1" as="geometry">
            <mxPoint x="2320" y="-1195" as="sourcePoint" />
            <mxPoint x="3083" y="-760" as="targetPoint" />
          </mxGeometry>
        </mxCell>
        <mxCell id="_qm1hqhS8DmUpOlpuxI_-9" value="" style="endArrow=open;endFill=1;endSize=12;html=1;rounded=0;entryX=0.25;entryY=0;entryDx=0;entryDy=0;strokeWidth=5;" parent="1" source="jvlwoZfvZ4fpxJS0tQdi-6" target="hh-YMT1tnlc0o9IW1VK7-6" edge="1">
          <mxGeometry width="160" relative="1" as="geometry">
            <mxPoint x="2805" y="-1504" as="sourcePoint" />
            <mxPoint x="2050" y="720" as="targetPoint" />
          </mxGeometry>
        </mxCell>
        <mxCell id="_qm1hqhS8DmUpOlpuxI_-10" value="&lt;div&gt;PauseMenuView&lt;/div&gt;&lt;div&gt;&lt;br&gt;&lt;/div&gt;" style="swimlane;fontStyle=1;align=center;verticalAlign=top;childLayout=stackLayout;horizontal=1;startSize=26;horizontalStack=0;resizeParent=1;resizeParentMax=0;resizeLast=0;collapsible=1;marginBottom=0;whiteSpace=wrap;html=1;fillColor=#ffff88;strokeColor=#36393d;fontColor=#000000;strokeWidth=5;" parent="1" vertex="1">
          <mxGeometry x="1660" y="-380" width="320" height="210" as="geometry">
            <mxRectangle x="1690" y="340" width="100" height="40" as="alternateBounds" />
          </mxGeometry>
        </mxCell>
        <mxCell id="_qm1hqhS8DmUpOlpuxI_-11" value="- options : String[]&lt;div&gt;...&lt;/div&gt;" style="text;strokeColor=#36393d;fillColor=#ffff88;align=left;verticalAlign=top;spacingLeft=4;spacingRight=4;overflow=hidden;rotatable=0;points=[[0,0.5],[1,0.5]];portConstraint=eastwest;whiteSpace=wrap;html=1;fontColor=#000000;strokeWidth=5;" parent="_qm1hqhS8DmUpOlpuxI_-10" vertex="1">
          <mxGeometry y="26" width="320" height="104" as="geometry" />
        </mxCell>
        <mxCell id="_qm1hqhS8DmUpOlpuxI_-12" value="" style="line;strokeWidth=5;fillColor=#ffff88;align=left;verticalAlign=middle;spacingTop=-1;spacingLeft=3;spacingRight=3;rotatable=0;labelPosition=right;points=[];portConstraint=eastwest;strokeColor=#36393d;fontColor=#000000;" parent="_qm1hqhS8DmUpOlpuxI_-10" vertex="1">
          <mxGeometry y="130" width="320" height="8" as="geometry" />
        </mxCell>
        <mxCell id="_qm1hqhS8DmUpOlpuxI_-13" value="&lt;div&gt;+ PauseMenuView()&lt;/div&gt;&lt;div&gt;# paintComponent(Graphics g) : void&lt;/div&gt;&lt;div&gt;...&lt;/div&gt;" style="text;strokeColor=#36393d;fillColor=#ffff88;align=left;verticalAlign=top;spacingLeft=4;spacingRight=4;overflow=hidden;rotatable=0;points=[[0,0.5],[1,0.5]];portConstraint=eastwest;whiteSpace=wrap;html=1;fontColor=#000000;strokeWidth=5;" parent="_qm1hqhS8DmUpOlpuxI_-10" vertex="1">
          <mxGeometry y="138" width="320" height="72" as="geometry" />
        </mxCell>
        <mxCell id="_qm1hqhS8DmUpOlpuxI_-14" value="" style="endArrow=open;endFill=1;endSize=12;html=1;rounded=0;exitX=0.427;exitY=0.952;exitDx=0;exitDy=0;exitPerimeter=0;strokeWidth=5;" parent="1" source="jvlwoZfvZ4fpxJS0tQdi-6" target="_qm1hqhS8DmUpOlpuxI_-10" edge="1">
          <mxGeometry width="160" relative="1" as="geometry">
            <mxPoint x="2343" y="-2540" as="sourcePoint" />
            <mxPoint x="1140" y="-776" as="targetPoint" />
          </mxGeometry>
        </mxCell>
        <mxCell id="_qm1hqhS8DmUpOlpuxI_-15" value="JLayeredPane" style="swimlane;fontStyle=1;align=center;verticalAlign=top;childLayout=stackLayout;horizontal=1;startSize=26;horizontalStack=0;resizeParent=1;resizeParentMax=0;resizeLast=0;collapsible=1;marginBottom=0;whiteSpace=wrap;html=1;strokeWidth=5;" parent="1" vertex="1">
          <mxGeometry x="1590" y="-1040" width="400" height="236" as="geometry" />
        </mxCell>
        <mxCell id="_qm1hqhS8DmUpOlpuxI_-16" value="&lt;div&gt;...&lt;/div&gt;" style="text;strokeColor=none;fillColor=none;align=left;verticalAlign=top;spacingLeft=4;spacingRight=4;overflow=hidden;rotatable=0;points=[[0,0.5],[1,0.5]];portConstraint=eastwest;whiteSpace=wrap;html=1;strokeWidth=5;" parent="_qm1hqhS8DmUpOlpuxI_-15" vertex="1">
          <mxGeometry y="26" width="400" height="110" as="geometry" />
        </mxCell>
        <mxCell id="_qm1hqhS8DmUpOlpuxI_-17" value="" style="line;strokeWidth=5;fillColor=none;align=left;verticalAlign=middle;spacingTop=-1;spacingLeft=3;spacingRight=3;rotatable=0;labelPosition=right;points=[];portConstraint=eastwest;strokeColor=inherit;" parent="_qm1hqhS8DmUpOlpuxI_-15" vertex="1">
          <mxGeometry y="136" width="400" height="8" as="geometry" />
        </mxCell>
        <mxCell id="_qm1hqhS8DmUpOlpuxI_-18" value="..." style="text;strokeColor=none;fillColor=none;align=left;verticalAlign=top;spacingLeft=4;spacingRight=4;overflow=hidden;rotatable=0;points=[[0,0.5],[1,0.5]];portConstraint=eastwest;whiteSpace=wrap;html=1;strokeWidth=5;" parent="_qm1hqhS8DmUpOlpuxI_-15" vertex="1">
          <mxGeometry y="144" width="400" height="92" as="geometry" />
        </mxCell>
        <mxCell id="_qm1hqhS8DmUpOlpuxI_-19" value="" style="endArrow=open;endFill=1;endSize=12;html=1;rounded=0;entryX=0.75;entryY=0;entryDx=0;entryDy=0;strokeWidth=5;" parent="1" source="jvlwoZfvZ4fpxJS0tQdi-6" target="_qm1hqhS8DmUpOlpuxI_-15" edge="1">
          <mxGeometry width="160" relative="1" as="geometry">
            <mxPoint x="2560" y="-2660" as="sourcePoint" />
            <mxPoint x="680" y="-1361" as="targetPoint" />
          </mxGeometry>
        </mxCell>
        <mxCell id="_qm1hqhS8DmUpOlpuxI_-20" value="" style="endArrow=diamondThin;endFill=1;endSize=24;html=1;rounded=0;exitX=0;exitY=0.5;exitDx=0;exitDy=0;strokeWidth=5;" parent="1" source="hh-YMT1tnlc0o9IW1VK7-7" target="_qm1hqhS8DmUpOlpuxI_-18" edge="1">
          <mxGeometry width="160" relative="1" as="geometry">
            <mxPoint x="2111" y="640" as="sourcePoint" />
            <mxPoint x="1320" y="-580" as="targetPoint" />
          </mxGeometry>
        </mxCell>
        <mxCell id="_qm1hqhS8DmUpOlpuxI_-21" value="" style="endArrow=diamondThin;endFill=1;endSize=24;html=1;rounded=0;exitX=0.5;exitY=0;exitDx=0;exitDy=0;strokeWidth=5;" parent="1" source="_qm1hqhS8DmUpOlpuxI_-10" target="_qm1hqhS8DmUpOlpuxI_-18" edge="1">
          <mxGeometry width="160" relative="1" as="geometry">
            <mxPoint x="1360" y="-30" as="sourcePoint" />
            <mxPoint x="1370" y="-990" as="targetPoint" />
          </mxGeometry>
        </mxCell>
        <mxCell id="_qm1hqhS8DmUpOlpuxI_-22" value="" style="endArrow=diamondThin;endFill=1;endSize=24;html=1;rounded=0;exitX=0.25;exitY=0;exitDx=0;exitDy=0;entryX=0;entryY=0.5;entryDx=0;entryDy=0;strokeWidth=5;" parent="1" source="hh-YMT1tnlc0o9IW1VK7-242" target="_qm1hqhS8DmUpOlpuxI_-18" edge="1">
          <mxGeometry width="160" relative="1" as="geometry">
            <mxPoint x="2010" y="-616" as="sourcePoint" />
            <mxPoint x="2028" y="-1030" as="targetPoint" />
          </mxGeometry>
        </mxCell>
        <mxCell id="_qm1hqhS8DmUpOlpuxI_-23" value="&lt;div&gt;PauseMenuController&lt;/div&gt;" style="swimlane;fontStyle=1;align=center;verticalAlign=top;childLayout=stackLayout;horizontal=1;startSize=26;horizontalStack=0;resizeParent=1;resizeParentMax=0;resizeLast=0;collapsible=1;marginBottom=0;whiteSpace=wrap;html=1;fillColor=#f8cecc;gradientColor=#ea6b66;strokeColor=#b85450;strokeWidth=5;" parent="1" vertex="1">
          <mxGeometry x="1710" y="-1730" width="730" height="210" as="geometry">
            <mxRectangle x="1690" y="340" width="100" height="40" as="alternateBounds" />
          </mxGeometry>
        </mxCell>
        <mxCell id="_qm1hqhS8DmUpOlpuxI_-24" value="- window: JFrame&lt;div&gt;- pauseMenuView : PauseMenuView&lt;/div&gt;&lt;div&gt;- gameView : GameView&lt;/div&gt;&lt;div&gt;- gameController : GameController&lt;/div&gt;" style="text;align=left;verticalAlign=top;spacingLeft=4;spacingRight=4;overflow=hidden;rotatable=0;points=[[0,0.5],[1,0.5]];portConstraint=eastwest;whiteSpace=wrap;html=1;fillColor=#f8cecc;gradientColor=#ea6b66;strokeColor=#b85450;strokeWidth=5;" parent="_qm1hqhS8DmUpOlpuxI_-23" vertex="1">
          <mxGeometry y="26" width="730" height="104" as="geometry" />
        </mxCell>
        <mxCell id="_qm1hqhS8DmUpOlpuxI_-25" value="" style="line;strokeWidth=5;align=left;verticalAlign=middle;spacingTop=-1;spacingLeft=3;spacingRight=3;rotatable=0;labelPosition=right;points=[];portConstraint=eastwest;fillColor=#f8cecc;gradientColor=#ea6b66;strokeColor=#b85450;" parent="_qm1hqhS8DmUpOlpuxI_-23" vertex="1">
          <mxGeometry y="130" width="730" height="8" as="geometry" />
        </mxCell>
        <mxCell id="_qm1hqhS8DmUpOlpuxI_-26" value="&lt;div&gt;+ PauseMenuController(JFrame window, PauseMenuView pauseMenuView, GameView gameView, GameController gameController)&lt;/div&gt;&lt;div&gt;+ keyPressed(KeyEvent e)&lt;/div&gt;&lt;div&gt;...&lt;/div&gt;" style="text;align=left;verticalAlign=top;spacingLeft=4;spacingRight=4;overflow=hidden;rotatable=0;points=[[0,0.5],[1,0.5]];portConstraint=eastwest;whiteSpace=wrap;html=1;fillColor=#f8cecc;gradientColor=#ea6b66;strokeColor=#b85450;strokeWidth=5;" parent="_qm1hqhS8DmUpOlpuxI_-23" vertex="1">
          <mxGeometry y="138" width="730" height="72" as="geometry" />
        </mxCell>
        <mxCell id="_qm1hqhS8DmUpOlpuxI_-27" value="&lt;div&gt;TitleScreenView&lt;/div&gt;" style="swimlane;fontStyle=1;align=center;verticalAlign=top;childLayout=stackLayout;horizontal=1;startSize=26;horizontalStack=0;resizeParent=1;resizeParentMax=0;resizeLast=0;collapsible=1;marginBottom=0;whiteSpace=wrap;html=1;fillColor=#ffff88;strokeColor=#36393d;fontColor=#000000;strokeWidth=5;" parent="1" vertex="1">
          <mxGeometry x="2270" y="-390" width="320" height="210" as="geometry">
            <mxRectangle x="1690" y="340" width="100" height="40" as="alternateBounds" />
          </mxGeometry>
        </mxCell>
        <mxCell id="_qm1hqhS8DmUpOlpuxI_-28" value="- options : String[]&lt;div&gt;...&lt;/div&gt;" style="text;strokeColor=#36393d;fillColor=#ffff88;align=left;verticalAlign=top;spacingLeft=4;spacingRight=4;overflow=hidden;rotatable=0;points=[[0,0.5],[1,0.5]];portConstraint=eastwest;whiteSpace=wrap;html=1;fontColor=#000000;strokeWidth=5;" parent="_qm1hqhS8DmUpOlpuxI_-27" vertex="1">
          <mxGeometry y="26" width="320" height="104" as="geometry" />
        </mxCell>
        <mxCell id="_qm1hqhS8DmUpOlpuxI_-29" value="" style="line;strokeWidth=5;fillColor=#ffff88;align=left;verticalAlign=middle;spacingTop=-1;spacingLeft=3;spacingRight=3;rotatable=0;labelPosition=right;points=[];portConstraint=eastwest;strokeColor=#36393d;fontColor=#000000;" parent="_qm1hqhS8DmUpOlpuxI_-27" vertex="1">
          <mxGeometry y="130" width="320" height="8" as="geometry" />
        </mxCell>
        <mxCell id="_qm1hqhS8DmUpOlpuxI_-30" value="+ TitleScreenView()&lt;div&gt;+ paintComponent (Graphics g) : void&lt;/div&gt;&lt;div&gt;...&lt;/div&gt;" style="text;strokeColor=#36393d;fillColor=#ffff88;align=left;verticalAlign=top;spacingLeft=4;spacingRight=4;overflow=hidden;rotatable=0;points=[[0,0.5],[1,0.5]];portConstraint=eastwest;whiteSpace=wrap;html=1;fontColor=#000000;strokeWidth=5;" parent="_qm1hqhS8DmUpOlpuxI_-27" vertex="1">
          <mxGeometry y="138" width="320" height="72" as="geometry" />
        </mxCell>
        <mxCell id="_qm1hqhS8DmUpOlpuxI_-31" value="" style="endArrow=open;endFill=1;endSize=12;html=1;rounded=0;entryX=0.5;entryY=0;entryDx=0;entryDy=0;strokeWidth=5;" parent="1" source="_qm1hqhS8DmUpOlpuxI_-26" target="_qm1hqhS8DmUpOlpuxI_-27" edge="1">
          <mxGeometry width="160" relative="1" as="geometry">
            <mxPoint x="2440" y="-1380" as="sourcePoint" />
            <mxPoint x="2150" y="-706" as="targetPoint" />
          </mxGeometry>
        </mxCell>
        <mxCell id="_qm1hqhS8DmUpOlpuxI_-33" value="&lt;div&gt;GameKeyListener&lt;/div&gt;&lt;div&gt;&lt;br&gt;&lt;/div&gt;" style="swimlane;fontStyle=1;align=center;verticalAlign=top;childLayout=stackLayout;horizontal=1;startSize=26;horizontalStack=0;resizeParent=1;resizeParentMax=0;resizeLast=0;collapsible=1;marginBottom=0;whiteSpace=wrap;html=1;fillColor=#f8cecc;gradientColor=#ea6b66;strokeColor=#b85450;strokeWidth=5;" parent="1" vertex="1">
          <mxGeometry x="5200" y="-1750" width="660" height="236" as="geometry" />
        </mxCell>
        <mxCell id="_qm1hqhS8DmUpOlpuxI_-34" value="&lt;div&gt;- gameController : GameController&lt;/div&gt;&lt;div&gt;- inputHandler: InputHandler&lt;/div&gt;&lt;div&gt;- gameView : GameView&lt;/div&gt;&lt;div&gt;- pauseMenuView : PauseMenuView&lt;/div&gt;&lt;div&gt;- window : JFrame&lt;/div&gt;" style="text;strokeColor=#b85450;fillColor=#f8cecc;align=left;verticalAlign=top;spacingLeft=4;spacingRight=4;overflow=hidden;rotatable=0;points=[[0,0.5],[1,0.5]];portConstraint=eastwest;whiteSpace=wrap;html=1;gradientColor=#ea6b66;strokeWidth=5;" parent="_qm1hqhS8DmUpOlpuxI_-33" vertex="1">
          <mxGeometry y="26" width="660" height="110" as="geometry" />
        </mxCell>
        <mxCell id="_qm1hqhS8DmUpOlpuxI_-35" value="" style="line;strokeWidth=5;fillColor=#f8cecc;align=left;verticalAlign=middle;spacingTop=-1;spacingLeft=3;spacingRight=3;rotatable=0;labelPosition=right;points=[];portConstraint=eastwest;strokeColor=#b85450;gradientColor=#ea6b66;" parent="_qm1hqhS8DmUpOlpuxI_-33" vertex="1">
          <mxGeometry y="136" width="660" height="8" as="geometry" />
        </mxCell>
        <mxCell id="_qm1hqhS8DmUpOlpuxI_-36" value="+ GameKeyListener(GameController gameController, InputHandler inputHandler, GameView gameView, &lt;span style=&quot;white-space: pre;&quot;&gt;&#x9;&lt;/span&gt;&lt;span style=&quot;white-space: pre;&quot;&gt;&#x9;&lt;/span&gt;&lt;span style=&quot;white-space: pre;&quot;&gt;&#x9;&lt;/span&gt;&lt;span style=&quot;white-space: pre;&quot;&gt;&#x9;&lt;/span&gt;&amp;nbsp;PauseMenuView pauseMenuView, JFrame window)&lt;div&gt;+ keyPressed(KeyEvent e)&lt;/div&gt;&lt;div&gt;...&lt;/div&gt;" style="text;strokeColor=#b85450;fillColor=#f8cecc;align=left;verticalAlign=top;spacingLeft=4;spacingRight=4;overflow=hidden;rotatable=0;points=[[0,0.5],[1,0.5]];portConstraint=eastwest;whiteSpace=wrap;html=1;gradientColor=#ea6b66;strokeWidth=5;" parent="_qm1hqhS8DmUpOlpuxI_-33" vertex="1">
          <mxGeometry y="144" width="660" height="92" as="geometry" />
        </mxCell>
        <mxCell id="_qm1hqhS8DmUpOlpuxI_-37" value="" style="endArrow=open;endFill=1;endSize=12;html=1;rounded=0;exitX=0;exitY=0.5;exitDx=0;exitDy=0;entryX=1;entryY=0;entryDx=0;entryDy=0;strokeWidth=5;" parent="1" source="_qm1hqhS8DmUpOlpuxI_-34" target="hh-YMT1tnlc0o9IW1VK7-2" edge="1">
          <mxGeometry width="160" relative="1" as="geometry">
            <mxPoint x="4680" y="-1310" as="sourcePoint" />
            <mxPoint x="4970" y="-1306" as="targetPoint" />
          </mxGeometry>
        </mxCell>
        <mxCell id="_qm1hqhS8DmUpOlpuxI_-38" value="" style="endArrow=open;endFill=1;endSize=12;html=1;rounded=0;entryX=1;entryY=0;entryDx=0;entryDy=0;exitX=0;exitY=0.5;exitDx=0;exitDy=0;strokeWidth=5;" parent="1" source="_qm1hqhS8DmUpOlpuxI_-36" target="_qm1hqhS8DmUpOlpuxI_-3" edge="1">
          <mxGeometry width="160" relative="1" as="geometry">
            <mxPoint x="5040" y="-1390" as="sourcePoint" />
            <mxPoint x="5310" y="-1426" as="targetPoint" />
          </mxGeometry>
        </mxCell>
        <mxCell id="_qm1hqhS8DmUpOlpuxI_-39" value="" style="endArrow=open;endFill=1;endSize=12;html=1;rounded=0;exitX=0;exitY=0.5;exitDx=0;exitDy=0;entryX=0.75;entryY=0;entryDx=0;entryDy=0;strokeWidth=5;" parent="1" source="_qm1hqhS8DmUpOlpuxI_-34" target="hh-YMT1tnlc0o9IW1VK7-6" edge="1">
          <mxGeometry width="160" relative="1" as="geometry">
            <mxPoint x="3370" y="-940" as="sourcePoint" />
            <mxPoint x="3660" y="-936" as="targetPoint" />
          </mxGeometry>
        </mxCell>
        <mxCell id="_qm1hqhS8DmUpOlpuxI_-40" value="" style="endArrow=open;endFill=1;endSize=12;html=1;rounded=0;exitX=0;exitY=0.5;exitDx=0;exitDy=0;entryX=1;entryY=0.5;entryDx=0;entryDy=0;strokeWidth=5;" parent="1" source="_qm1hqhS8DmUpOlpuxI_-34" target="_qm1hqhS8DmUpOlpuxI_-11" edge="1">
          <mxGeometry width="160" relative="1" as="geometry">
            <mxPoint x="2350" y="-1160" as="sourcePoint" />
            <mxPoint x="2640" y="-1156" as="targetPoint" />
          </mxGeometry>
        </mxCell>
        <mxCell id="_qm1hqhS8DmUpOlpuxI_-42" value="JFrame&lt;div&gt;&lt;br&gt;&lt;/div&gt;" style="swimlane;fontStyle=1;align=center;verticalAlign=top;childLayout=stackLayout;horizontal=1;startSize=26;horizontalStack=0;resizeParent=1;resizeParentMax=0;resizeLast=0;collapsible=1;marginBottom=0;whiteSpace=wrap;html=1;strokeWidth=5;" parent="1" vertex="1">
          <mxGeometry x="4020" y="-2840" width="400" height="236" as="geometry" />
        </mxCell>
        <mxCell id="_qm1hqhS8DmUpOlpuxI_-43" value="&lt;div&gt;...&lt;/div&gt;" style="text;strokeColor=none;fillColor=none;align=left;verticalAlign=top;spacingLeft=4;spacingRight=4;overflow=hidden;rotatable=0;points=[[0,0.5],[1,0.5]];portConstraint=eastwest;whiteSpace=wrap;html=1;strokeWidth=5;" parent="_qm1hqhS8DmUpOlpuxI_-42" vertex="1">
          <mxGeometry y="26" width="400" height="110" as="geometry" />
        </mxCell>
        <mxCell id="_qm1hqhS8DmUpOlpuxI_-44" value="" style="line;strokeWidth=5;fillColor=none;align=left;verticalAlign=middle;spacingTop=-1;spacingLeft=3;spacingRight=3;rotatable=0;labelPosition=right;points=[];portConstraint=eastwest;strokeColor=inherit;" parent="_qm1hqhS8DmUpOlpuxI_-42" vertex="1">
          <mxGeometry y="136" width="400" height="8" as="geometry" />
        </mxCell>
        <mxCell id="_qm1hqhS8DmUpOlpuxI_-45" value="..." style="text;strokeColor=none;fillColor=none;align=left;verticalAlign=top;spacingLeft=4;spacingRight=4;overflow=hidden;rotatable=0;points=[[0,0.5],[1,0.5]];portConstraint=eastwest;whiteSpace=wrap;html=1;strokeWidth=5;" parent="_qm1hqhS8DmUpOlpuxI_-42" vertex="1">
          <mxGeometry y="144" width="400" height="92" as="geometry" />
        </mxCell>
        <mxCell id="_qm1hqhS8DmUpOlpuxI_-46" value="" style="endArrow=open;endFill=1;endSize=12;html=1;rounded=0;exitX=0;exitY=0.5;exitDx=0;exitDy=0;entryX=1;entryY=0.5;entryDx=0;entryDy=0;strokeWidth=5;" parent="1" source="_qm1hqhS8DmUpOlpuxI_-34" target="_qm1hqhS8DmUpOlpuxI_-43" edge="1">
          <mxGeometry width="160" relative="1" as="geometry">
            <mxPoint x="5365" y="-2230" as="sourcePoint" />
            <mxPoint x="3985" y="-2101" as="targetPoint" />
          </mxGeometry>
        </mxCell>
        <mxCell id="_qm1hqhS8DmUpOlpuxI_-47" value="&lt;div&gt;WhatsYourNameView&lt;/div&gt;&lt;div&gt;&lt;br&gt;&lt;/div&gt;" style="swimlane;fontStyle=1;align=center;verticalAlign=top;childLayout=stackLayout;horizontal=1;startSize=26;horizontalStack=0;resizeParent=1;resizeParentMax=0;resizeLast=0;collapsible=1;marginBottom=0;whiteSpace=wrap;html=1;fillColor=#ffff88;strokeColor=#36393d;fontColor=#000000;strokeWidth=5;" parent="1" vertex="1">
          <mxGeometry x="2850" y="-390" width="320" height="210" as="geometry">
            <mxRectangle x="1690" y="340" width="100" height="40" as="alternateBounds" />
          </mxGeometry>
        </mxCell>
        <mxCell id="_qm1hqhS8DmUpOlpuxI_-48" value="..." style="text;strokeColor=#36393d;fillColor=#ffff88;align=left;verticalAlign=top;spacingLeft=4;spacingRight=4;overflow=hidden;rotatable=0;points=[[0,0.5],[1,0.5]];portConstraint=eastwest;whiteSpace=wrap;html=1;fontColor=#000000;strokeWidth=5;" parent="_qm1hqhS8DmUpOlpuxI_-47" vertex="1">
          <mxGeometry y="26" width="320" height="104" as="geometry" />
        </mxCell>
        <mxCell id="_qm1hqhS8DmUpOlpuxI_-49" value="" style="line;strokeWidth=5;fillColor=#ffff88;align=left;verticalAlign=middle;spacingTop=-1;spacingLeft=3;spacingRight=3;rotatable=0;labelPosition=right;points=[];portConstraint=eastwest;strokeColor=#36393d;fontColor=#000000;" parent="_qm1hqhS8DmUpOlpuxI_-47" vertex="1">
          <mxGeometry y="130" width="320" height="8" as="geometry" />
        </mxCell>
        <mxCell id="_qm1hqhS8DmUpOlpuxI_-50" value="+ WhatsYourNameView()&lt;div&gt;+ paintComponent(g) : void&lt;/div&gt;&lt;div&gt;...&lt;/div&gt;" style="text;strokeColor=#36393d;fillColor=#ffff88;align=left;verticalAlign=top;spacingLeft=4;spacingRight=4;overflow=hidden;rotatable=0;points=[[0,0.5],[1,0.5]];portConstraint=eastwest;whiteSpace=wrap;html=1;fontColor=#000000;strokeWidth=5;" parent="_qm1hqhS8DmUpOlpuxI_-47" vertex="1">
          <mxGeometry y="138" width="320" height="72" as="geometry" />
        </mxCell>
        <mxCell id="_qm1hqhS8DmUpOlpuxI_-51" value="JPanel" style="swimlane;fontStyle=1;align=center;verticalAlign=top;childLayout=stackLayout;horizontal=1;startSize=26;horizontalStack=0;resizeParent=1;resizeParentMax=0;resizeLast=0;collapsible=1;marginBottom=0;whiteSpace=wrap;html=1;strokeWidth=5;perimeterSpacing=0;" parent="1" vertex="1">
          <mxGeometry x="2870" y="-1083" width="400" height="236" as="geometry" />
        </mxCell>
        <mxCell id="_qm1hqhS8DmUpOlpuxI_-52" value="&lt;div&gt;...&lt;/div&gt;" style="text;strokeColor=none;fillColor=none;align=left;verticalAlign=top;spacingLeft=4;spacingRight=4;overflow=hidden;rotatable=0;points=[[0,0.5],[1,0.5]];portConstraint=eastwest;whiteSpace=wrap;html=1;strokeWidth=5;perimeterSpacing=0;" parent="_qm1hqhS8DmUpOlpuxI_-51" vertex="1">
          <mxGeometry y="26" width="400" height="110" as="geometry" />
        </mxCell>
        <mxCell id="_qm1hqhS8DmUpOlpuxI_-53" value="" style="line;strokeWidth=5;fillColor=none;align=left;verticalAlign=middle;spacingTop=-1;spacingLeft=3;spacingRight=3;rotatable=0;labelPosition=right;points=[];portConstraint=eastwest;strokeColor=inherit;perimeterSpacing=0;" parent="_qm1hqhS8DmUpOlpuxI_-51" vertex="1">
          <mxGeometry y="136" width="400" height="8" as="geometry" />
        </mxCell>
        <mxCell id="_qm1hqhS8DmUpOlpuxI_-54" value="..." style="text;strokeColor=none;fillColor=none;align=left;verticalAlign=top;spacingLeft=4;spacingRight=4;overflow=hidden;rotatable=0;points=[[0,0.5],[1,0.5]];portConstraint=eastwest;whiteSpace=wrap;html=1;strokeWidth=5;perimeterSpacing=0;" parent="_qm1hqhS8DmUpOlpuxI_-51" vertex="1">
          <mxGeometry y="144" width="400" height="92" as="geometry" />
        </mxCell>
        <mxCell id="_qm1hqhS8DmUpOlpuxI_-55" value="Extends" style="endArrow=block;endSize=16;endFill=0;html=1;rounded=0;strokeWidth=5;" parent="1" source="_qm1hqhS8DmUpOlpuxI_-47" target="_qm1hqhS8DmUpOlpuxI_-51" edge="1">
          <mxGeometry width="160" relative="1" as="geometry">
            <mxPoint x="3340" y="-1250" as="sourcePoint" />
            <mxPoint x="3592" y="-980" as="targetPoint" />
          </mxGeometry>
        </mxCell>
        <mxCell id="_qm1hqhS8DmUpOlpuxI_-56" value="Extends" style="endArrow=block;endSize=16;endFill=0;html=1;rounded=0;entryX=0.546;entryY=0.989;entryDx=0;entryDy=0;entryPerimeter=0;exitX=0.5;exitY=0;exitDx=0;exitDy=0;strokeWidth=5;" parent="1" source="hh-YMT1tnlc0o9IW1VK7-6" target="_qm1hqhS8DmUpOlpuxI_-54" edge="1">
          <mxGeometry width="160" relative="1" as="geometry">
            <mxPoint x="2801" y="144" as="sourcePoint" />
            <mxPoint x="2560" y="-100" as="targetPoint" />
          </mxGeometry>
        </mxCell>
        <mxCell id="_qm1hqhS8DmUpOlpuxI_-57" value="Extends" style="endArrow=block;endSize=16;endFill=0;html=1;rounded=0;entryX=0;entryY=0.5;entryDx=0;entryDy=0;exitX=0.75;exitY=0;exitDx=0;exitDy=0;strokeWidth=5;" parent="1" source="_qm1hqhS8DmUpOlpuxI_-10" target="_qm1hqhS8DmUpOlpuxI_-52" edge="1">
          <mxGeometry width="160" relative="1" as="geometry">
            <mxPoint x="1961" y="-186" as="sourcePoint" />
            <mxPoint x="1720" y="-430" as="targetPoint" />
          </mxGeometry>
        </mxCell>
        <mxCell id="_qm1hqhS8DmUpOlpuxI_-58" value="Extends" style="endArrow=block;endSize=16;endFill=0;html=1;rounded=0;entryX=0;entryY=0.5;entryDx=0;entryDy=0;exitX=0.5;exitY=0;exitDx=0;exitDy=0;strokeWidth=5;" parent="1" source="hh-YMT1tnlc0o9IW1VK7-242" target="_qm1hqhS8DmUpOlpuxI_-54" edge="1">
          <mxGeometry width="160" relative="1" as="geometry">
            <mxPoint x="2701" y="-466" as="sourcePoint" />
            <mxPoint x="2460" y="-710" as="targetPoint" />
          </mxGeometry>
        </mxCell>
        <mxCell id="_qm1hqhS8DmUpOlpuxI_-59" value="Extends" style="endArrow=block;endSize=16;endFill=0;html=1;rounded=0;exitX=0.25;exitY=0;exitDx=0;exitDy=0;strokeWidth=5;" parent="1" source="_qm1hqhS8DmUpOlpuxI_-27" target="_qm1hqhS8DmUpOlpuxI_-54" edge="1">
          <mxGeometry width="160" relative="1" as="geometry">
            <mxPoint x="2801" y="-526" as="sourcePoint" />
            <mxPoint x="2560" y="-770" as="targetPoint" />
          </mxGeometry>
        </mxCell>
        <mxCell id="_qm1hqhS8DmUpOlpuxI_-60" value="WhatsYourNameController" style="swimlane;fontStyle=1;align=center;verticalAlign=top;childLayout=stackLayout;horizontal=1;startSize=26;horizontalStack=0;resizeParent=1;resizeParentMax=0;resizeLast=0;collapsible=1;marginBottom=0;whiteSpace=wrap;html=1;fillColor=#f8cecc;gradientColor=#ea6b66;strokeColor=#b85450;strokeWidth=5;" parent="1" vertex="1">
          <mxGeometry x="2510" y="-1740" width="660" height="236" as="geometry" />
        </mxCell>
        <mxCell id="_qm1hqhS8DmUpOlpuxI_-61" value="- whatsYourNameView : WhatsYourNameView&lt;div&gt;- gameView : GameView&lt;/div&gt;&lt;div&gt;...&lt;/div&gt;" style="text;align=left;verticalAlign=top;spacingLeft=4;spacingRight=4;overflow=hidden;rotatable=0;points=[[0,0.5],[1,0.5]];portConstraint=eastwest;whiteSpace=wrap;html=1;fillColor=#f8cecc;gradientColor=#ea6b66;strokeColor=#b85450;strokeWidth=5;" parent="_qm1hqhS8DmUpOlpuxI_-60" vertex="1">
          <mxGeometry y="26" width="660" height="110" as="geometry" />
        </mxCell>
        <mxCell id="_qm1hqhS8DmUpOlpuxI_-62" value="" style="line;strokeWidth=5;align=left;verticalAlign=middle;spacingTop=-1;spacingLeft=3;spacingRight=3;rotatable=0;labelPosition=right;points=[];portConstraint=eastwest;fillColor=#f8cecc;gradientColor=#ea6b66;strokeColor=#b85450;" parent="_qm1hqhS8DmUpOlpuxI_-60" vertex="1">
          <mxGeometry y="136" width="660" height="8" as="geometry" />
        </mxCell>
        <mxCell id="_qm1hqhS8DmUpOlpuxI_-63" value="+ WhatsYourNameController (WhatsYourNameView whatsYourNameView, GameView gameView)&lt;div&gt;+ keyPressed(KeyEvent e) : void&lt;/div&gt;&lt;div&gt;...&lt;/div&gt;" style="text;align=left;verticalAlign=top;spacingLeft=4;spacingRight=4;overflow=hidden;rotatable=0;points=[[0,0.5],[1,0.5]];portConstraint=eastwest;whiteSpace=wrap;html=1;fillColor=#f8cecc;gradientColor=#ea6b66;strokeColor=#b85450;strokeWidth=5;" parent="_qm1hqhS8DmUpOlpuxI_-60" vertex="1">
          <mxGeometry y="144" width="660" height="92" as="geometry" />
        </mxCell>
        <mxCell id="_qm1hqhS8DmUpOlpuxI_-64" value="" style="endArrow=open;endFill=1;endSize=12;html=1;rounded=0;entryX=0.5;entryY=0;entryDx=0;entryDy=0;exitX=0.502;exitY=0.966;exitDx=0;exitDy=0;exitPerimeter=0;strokeWidth=5;" parent="1" source="_qm1hqhS8DmUpOlpuxI_-63" target="_qm1hqhS8DmUpOlpuxI_-47" edge="1">
          <mxGeometry width="160" relative="1" as="geometry">
            <mxPoint x="2980" y="-1370" as="sourcePoint" />
            <mxPoint x="3243" y="-560" as="targetPoint" />
          </mxGeometry>
        </mxCell>
        <mxCell id="_qm1hqhS8DmUpOlpuxI_-65" value="" style="endArrow=open;endFill=1;endSize=12;html=1;rounded=0;entryX=0.25;entryY=0;entryDx=0;entryDy=0;strokeWidth=5;" parent="1" source="_qm1hqhS8DmUpOlpuxI_-60" target="hh-YMT1tnlc0o9IW1VK7-6" edge="1">
          <mxGeometry width="160" relative="1" as="geometry">
            <mxPoint x="2650" y="-1220" as="sourcePoint" />
            <mxPoint x="2913" y="-410" as="targetPoint" />
          </mxGeometry>
        </mxCell>
        <mxCell id="_qm1hqhS8DmUpOlpuxI_-66" value="" style="endArrow=open;endFill=1;endSize=12;html=1;rounded=0;entryX=0.5;entryY=0;entryDx=0;entryDy=0;strokeWidth=5;" parent="1" source="jvlwoZfvZ4fpxJS0tQdi-3" target="_qm1hqhS8DmUpOlpuxI_-60" edge="1">
          <mxGeometry width="160" relative="1" as="geometry">
            <mxPoint x="3130" y="-2340" as="sourcePoint" />
            <mxPoint x="2940" y="-930" as="targetPoint" />
          </mxGeometry>
        </mxCell>
        <mxCell id="_qm1hqhS8DmUpOlpuxI_-67" value="&lt;div&gt;LeaderboardViewController&lt;/div&gt;" style="swimlane;fontStyle=1;align=center;verticalAlign=top;childLayout=stackLayout;horizontal=1;startSize=26;horizontalStack=0;resizeParent=1;resizeParentMax=0;resizeLast=0;collapsible=1;marginBottom=0;whiteSpace=wrap;html=1;fillColor=#f8cecc;gradientColor=#ea6b66;strokeColor=#b85450;strokeWidth=5;" parent="1" vertex="1">
          <mxGeometry x="6110" y="-1748" width="660" height="236" as="geometry" />
        </mxCell>
        <mxCell id="_qm1hqhS8DmUpOlpuxI_-68" value="- leaderboardView : LeaderboardView&lt;div&gt;- window : JFrame&lt;br&gt;&lt;div&gt;&lt;br&gt;&lt;/div&gt;&lt;div&gt;...&lt;/div&gt;&lt;/div&gt;" style="text;strokeColor=#b85450;fillColor=#f8cecc;align=left;verticalAlign=top;spacingLeft=4;spacingRight=4;overflow=hidden;rotatable=0;points=[[0,0.5],[1,0.5]];portConstraint=eastwest;whiteSpace=wrap;html=1;gradientColor=#ea6b66;strokeWidth=5;" parent="_qm1hqhS8DmUpOlpuxI_-67" vertex="1">
          <mxGeometry y="26" width="660" height="110" as="geometry" />
        </mxCell>
        <mxCell id="_qm1hqhS8DmUpOlpuxI_-69" value="" style="line;strokeWidth=5;fillColor=#f8cecc;align=left;verticalAlign=middle;spacingTop=-1;spacingLeft=3;spacingRight=3;rotatable=0;labelPosition=right;points=[];portConstraint=eastwest;strokeColor=#b85450;gradientColor=#ea6b66;" parent="_qm1hqhS8DmUpOlpuxI_-67" vertex="1">
          <mxGeometry y="136" width="660" height="8" as="geometry" />
        </mxCell>
        <mxCell id="_qm1hqhS8DmUpOlpuxI_-70" value="+&amp;nbsp;LeaderboardViewController(JFrame window, LeaderboardView leaderboardView)&amp;nbsp;&lt;div&gt;+ keyPressed(KeyEvent e)&lt;br&gt;&lt;div&gt;+ backToMainMenu()&lt;/div&gt;&lt;/div&gt;" style="text;strokeColor=#b85450;fillColor=#f8cecc;align=left;verticalAlign=top;spacingLeft=4;spacingRight=4;overflow=hidden;rotatable=0;points=[[0,0.5],[1,0.5]];portConstraint=eastwest;whiteSpace=wrap;html=1;gradientColor=#ea6b66;strokeWidth=5;" parent="_qm1hqhS8DmUpOlpuxI_-67" vertex="1">
          <mxGeometry y="144" width="660" height="92" as="geometry" />
        </mxCell>
        <mxCell id="_qm1hqhS8DmUpOlpuxI_-72" value="LeaderboardView" style="swimlane;fontStyle=1;align=center;verticalAlign=top;childLayout=stackLayout;horizontal=1;startSize=26;horizontalStack=0;resizeParent=1;resizeParentMax=0;resizeLast=0;collapsible=1;marginBottom=0;whiteSpace=wrap;html=1;fillColor=#ffff88;strokeColor=#36393d;fontColor=#000000;strokeWidth=5;" parent="1" vertex="1">
          <mxGeometry x="3400" y="-390" width="320" height="210" as="geometry">
            <mxRectangle x="1690" y="340" width="100" height="40" as="alternateBounds" />
          </mxGeometry>
        </mxCell>
        <mxCell id="_qm1hqhS8DmUpOlpuxI_-73" value="- leaderboard : Leaderboard&lt;div&gt;...&lt;/div&gt;" style="text;strokeColor=#36393d;fillColor=#ffff88;align=left;verticalAlign=top;spacingLeft=4;spacingRight=4;overflow=hidden;rotatable=0;points=[[0,0.5],[1,0.5]];portConstraint=eastwest;whiteSpace=wrap;html=1;fontColor=#000000;strokeWidth=5;" parent="_qm1hqhS8DmUpOlpuxI_-72" vertex="1">
          <mxGeometry y="26" width="320" height="104" as="geometry" />
        </mxCell>
        <mxCell id="_qm1hqhS8DmUpOlpuxI_-74" value="" style="line;strokeWidth=5;fillColor=#ffff88;align=left;verticalAlign=middle;spacingTop=-1;spacingLeft=3;spacingRight=3;rotatable=0;labelPosition=right;points=[];portConstraint=eastwest;strokeColor=#36393d;fontColor=#000000;" parent="_qm1hqhS8DmUpOlpuxI_-72" vertex="1">
          <mxGeometry y="130" width="320" height="8" as="geometry" />
        </mxCell>
        <mxCell id="_qm1hqhS8DmUpOlpuxI_-75" value="+ LeaderBoardView(Leaderboard leaderboard)&lt;div&gt;# paintComponent(Graphics g) : void&lt;br&gt;&lt;div&gt;...&lt;/div&gt;&lt;/div&gt;" style="text;strokeColor=#36393d;fillColor=#ffff88;align=left;verticalAlign=top;spacingLeft=4;spacingRight=4;overflow=hidden;rotatable=0;points=[[0,0.5],[1,0.5]];portConstraint=eastwest;whiteSpace=wrap;html=1;fontColor=#000000;strokeWidth=5;" parent="_qm1hqhS8DmUpOlpuxI_-72" vertex="1">
          <mxGeometry y="138" width="320" height="72" as="geometry" />
        </mxCell>
        <mxCell id="_qm1hqhS8DmUpOlpuxI_-76" value="LeaderBoard" style="swimlane;fontStyle=1;align=center;verticalAlign=top;childLayout=stackLayout;horizontal=1;startSize=26;horizontalStack=0;resizeParent=1;resizeParentMax=0;resizeLast=0;collapsible=1;marginBottom=0;whiteSpace=wrap;html=1;fillColor=#d0cee2;strokeColor=#56517e;strokeWidth=5;" parent="1" vertex="1">
          <mxGeometry x="5070" y="-680" width="320" height="210" as="geometry">
            <mxRectangle x="1690" y="340" width="100" height="40" as="alternateBounds" />
          </mxGeometry>
        </mxCell>
        <mxCell id="_qm1hqhS8DmUpOlpuxI_-77" value="- instance : Leaderboard&lt;div&gt;- leaderboardEntries : List&amp;lt;LeaderboardEntry&amp;gt;&lt;br&gt;&lt;div&gt;...&lt;/div&gt;&lt;/div&gt;" style="text;strokeColor=#56517e;fillColor=#d0cee2;align=left;verticalAlign=top;spacingLeft=4;spacingRight=4;overflow=hidden;rotatable=0;points=[[0,0.5],[1,0.5]];portConstraint=eastwest;whiteSpace=wrap;html=1;strokeWidth=5;" parent="_qm1hqhS8DmUpOlpuxI_-76" vertex="1">
          <mxGeometry y="26" width="320" height="104" as="geometry" />
        </mxCell>
        <mxCell id="_qm1hqhS8DmUpOlpuxI_-78" value="" style="line;strokeWidth=5;fillColor=#d0cee2;align=left;verticalAlign=middle;spacingTop=-1;spacingLeft=3;spacingRight=3;rotatable=0;labelPosition=right;points=[];portConstraint=eastwest;strokeColor=#56517e;" parent="_qm1hqhS8DmUpOlpuxI_-76" vertex="1">
          <mxGeometry y="130" width="320" height="8" as="geometry" />
        </mxCell>
        <mxCell id="_qm1hqhS8DmUpOlpuxI_-79" value="- Leaderboard()&lt;div&gt;+ getInstance()&lt;/div&gt;&lt;div&gt;+ addScore(String name, int score)&lt;/div&gt;&lt;div&gt;...&lt;/div&gt;" style="text;strokeColor=#56517e;fillColor=#d0cee2;align=left;verticalAlign=top;spacingLeft=4;spacingRight=4;overflow=hidden;rotatable=0;points=[[0,0.5],[1,0.5]];portConstraint=eastwest;whiteSpace=wrap;html=1;strokeWidth=5;" parent="_qm1hqhS8DmUpOlpuxI_-76" vertex="1">
          <mxGeometry y="138" width="320" height="72" as="geometry" />
        </mxCell>
        <mxCell id="_qm1hqhS8DmUpOlpuxI_-80" value="" style="endArrow=open;endFill=1;endSize=12;html=1;rounded=0;entryX=0.5;entryY=0;entryDx=0;entryDy=0;strokeWidth=5;" parent="1" source="_qm1hqhS8DmUpOlpuxI_-70" target="_qm1hqhS8DmUpOlpuxI_-72" edge="1">
          <mxGeometry width="160" relative="1" as="geometry">
            <mxPoint x="3610" y="-970" as="sourcePoint" />
            <mxPoint x="3770" y="-970" as="targetPoint" />
          </mxGeometry>
        </mxCell>
        <mxCell id="_qm1hqhS8DmUpOlpuxI_-81" value="" style="endArrow=open;endFill=1;endSize=12;html=1;rounded=0;exitX=1;exitY=0;exitDx=0;exitDy=0;strokeWidth=5;" parent="1" source="_qm1hqhS8DmUpOlpuxI_-67" target="_qm1hqhS8DmUpOlpuxI_-45" edge="1">
          <mxGeometry width="160" relative="1" as="geometry">
            <mxPoint x="4155" y="-1344" as="sourcePoint" />
            <mxPoint x="4120" y="-994" as="targetPoint" />
          </mxGeometry>
        </mxCell>
        <mxCell id="_qm1hqhS8DmUpOlpuxI_-82" value="Extends" style="endArrow=block;endSize=16;endFill=0;html=1;rounded=0;entryX=1;entryY=0.5;entryDx=0;entryDy=0;exitX=0.25;exitY=0;exitDx=0;exitDy=0;strokeWidth=5;" parent="1" source="_qm1hqhS8DmUpOlpuxI_-72" target="_qm1hqhS8DmUpOlpuxI_-52" edge="1">
          <mxGeometry width="160" relative="1" as="geometry">
            <mxPoint x="4108" y="-642" as="sourcePoint" />
            <mxPoint x="3650" y="-930" as="targetPoint" />
          </mxGeometry>
        </mxCell>
        <mxCell id="_qm1hqhS8DmUpOlpuxI_-83" value="" style="endArrow=open;endFill=1;endSize=12;html=1;rounded=0;exitX=1;exitY=0.5;exitDx=0;exitDy=0;strokeWidth=5;" parent="1" source="_qm1hqhS8DmUpOlpuxI_-73" target="_qm1hqhS8DmUpOlpuxI_-76" edge="1">
          <mxGeometry width="160" relative="1" as="geometry">
            <mxPoint x="3955" y="-740" as="sourcePoint" />
            <mxPoint x="3920" y="-390" as="targetPoint" />
          </mxGeometry>
        </mxCell>
        <mxCell id="_qm1hqhS8DmUpOlpuxI_-84" value="LeaderboardEntry" style="swimlane;fontStyle=1;align=center;verticalAlign=top;childLayout=stackLayout;horizontal=1;startSize=26;horizontalStack=0;resizeParent=1;resizeParentMax=0;resizeLast=0;collapsible=1;marginBottom=0;whiteSpace=wrap;html=1;fillColor=#d0cee2;strokeColor=#56517e;strokeWidth=5;" parent="1" vertex="1">
          <mxGeometry x="5475" y="-675" width="320" height="210" as="geometry">
            <mxRectangle x="1690" y="340" width="100" height="40" as="alternateBounds" />
          </mxGeometry>
        </mxCell>
        <mxCell id="_qm1hqhS8DmUpOlpuxI_-85" value="- name : String&lt;div&gt;- score : int&lt;/div&gt;" style="text;strokeColor=#56517e;fillColor=#d0cee2;align=left;verticalAlign=top;spacingLeft=4;spacingRight=4;overflow=hidden;rotatable=0;points=[[0,0.5],[1,0.5]];portConstraint=eastwest;whiteSpace=wrap;html=1;strokeWidth=5;" parent="_qm1hqhS8DmUpOlpuxI_-84" vertex="1">
          <mxGeometry y="26" width="320" height="104" as="geometry" />
        </mxCell>
        <mxCell id="_qm1hqhS8DmUpOlpuxI_-86" value="" style="line;strokeWidth=5;fillColor=#d0cee2;align=left;verticalAlign=middle;spacingTop=-1;spacingLeft=3;spacingRight=3;rotatable=0;labelPosition=right;points=[];portConstraint=eastwest;strokeColor=#56517e;" parent="_qm1hqhS8DmUpOlpuxI_-84" vertex="1">
          <mxGeometry y="130" width="320" height="8" as="geometry" />
        </mxCell>
        <mxCell id="_qm1hqhS8DmUpOlpuxI_-87" value="+ LeaderboardEntry(String name, int score)&lt;div&gt;...&lt;/div&gt;" style="text;strokeColor=#56517e;fillColor=#d0cee2;align=left;verticalAlign=top;spacingLeft=4;spacingRight=4;overflow=hidden;rotatable=0;points=[[0,0.5],[1,0.5]];portConstraint=eastwest;whiteSpace=wrap;html=1;strokeWidth=5;" parent="_qm1hqhS8DmUpOlpuxI_-84" vertex="1">
          <mxGeometry y="138" width="320" height="72" as="geometry" />
        </mxCell>
        <mxCell id="_qm1hqhS8DmUpOlpuxI_-88" value="" style="endArrow=open;endFill=1;endSize=12;html=1;rounded=0;exitX=0.996;exitY=0.453;exitDx=0;exitDy=0;exitPerimeter=0;fillColor=#d0cee2;strokeColor=#56517e;strokeWidth=5;" parent="1" source="_qm1hqhS8DmUpOlpuxI_-77" target="_qm1hqhS8DmUpOlpuxI_-85" edge="1">
          <mxGeometry width="160" relative="1" as="geometry">
            <mxPoint x="5295" y="-575" as="sourcePoint" />
            <mxPoint x="5455" y="-575" as="targetPoint" />
          </mxGeometry>
        </mxCell>
        <mxCell id="_qm1hqhS8DmUpOlpuxI_-89" value="&lt;div&gt;JImpossibleMissionKnockoff&lt;/div&gt;&lt;div&gt;&lt;br&gt;&lt;/div&gt;" style="swimlane;fontStyle=1;align=center;verticalAlign=top;childLayout=stackLayout;horizontal=1;startSize=26;horizontalStack=0;resizeParent=1;resizeParentMax=0;resizeLast=0;collapsible=1;marginBottom=0;whiteSpace=wrap;html=1;fillColor=#d80073;strokeColor=#A50040;fontColor=#ffffff;strokeWidth=5;" parent="1" vertex="1">
          <mxGeometry x="3450" y="-3580" width="400" height="126" as="geometry" />
        </mxCell>
        <mxCell id="_qm1hqhS8DmUpOlpuxI_-91" value="" style="line;strokeWidth=5;fillColor=#d80073;align=left;verticalAlign=middle;spacingTop=-1;spacingLeft=3;spacingRight=3;rotatable=0;labelPosition=right;points=[];portConstraint=eastwest;strokeColor=#A50040;fontColor=#ffffff;" parent="_qm1hqhS8DmUpOlpuxI_-89" vertex="1">
          <mxGeometry y="26" width="400" height="8" as="geometry" />
        </mxCell>
        <mxCell id="_qm1hqhS8DmUpOlpuxI_-92" value="+ main(String[] args) : void" style="text;strokeColor=#A50040;fillColor=#d80073;align=left;verticalAlign=top;spacingLeft=4;spacingRight=4;overflow=hidden;rotatable=0;points=[[0,0.5],[1,0.5]];portConstraint=eastwest;whiteSpace=wrap;html=1;fontColor=#ffffff;strokeWidth=5;" parent="_qm1hqhS8DmUpOlpuxI_-89" vertex="1">
          <mxGeometry y="34" width="400" height="92" as="geometry" />
        </mxCell>
        <mxCell id="_qm1hqhS8DmUpOlpuxI_-93" value="" style="endArrow=open;endFill=1;endSize=12;html=1;rounded=0;entryX=0.25;entryY=0;entryDx=0;entryDy=0;strokeWidth=5;" parent="1" source="_qm1hqhS8DmUpOlpuxI_-92" target="_qm1hqhS8DmUpOlpuxI_-42" edge="1">
          <mxGeometry width="160" relative="1" as="geometry">
            <mxPoint x="3700" y="-3000" as="sourcePoint" />
            <mxPoint x="3860" y="-3000" as="targetPoint" />
          </mxGeometry>
        </mxCell>
        <mxCell id="_qm1hqhS8DmUpOlpuxI_-94" value="" style="endArrow=open;endFill=1;endSize=12;html=1;rounded=0;strokeWidth=5;" parent="1" source="_qm1hqhS8DmUpOlpuxI_-89" target="jvlwoZfvZ4fpxJS0tQdi-3" edge="1">
          <mxGeometry width="160" relative="1" as="geometry">
            <mxPoint x="3540" y="-2840" as="sourcePoint" />
            <mxPoint x="4007" y="-2466" as="targetPoint" />
          </mxGeometry>
        </mxCell>
        <mxCell id="_qm1hqhS8DmUpOlpuxI_-96" value="AudioManager" style="swimlane;fontStyle=1;align=center;verticalAlign=top;childLayout=stackLayout;horizontal=1;startSize=26;horizontalStack=0;resizeParent=1;resizeParentMax=0;resizeLast=0;collapsible=1;marginBottom=0;whiteSpace=wrap;html=1;strokeWidth=5;fillColor=#e3c800;fontColor=#000000;strokeColor=#B09500;" parent="1" vertex="1">
          <mxGeometry x="1190" y="1230" width="370" height="210" as="geometry" />
        </mxCell>
        <mxCell id="_qm1hqhS8DmUpOlpuxI_-97" value="- instance : AudioManager" style="text;strokeColor=#B09500;fillColor=#e3c800;align=left;verticalAlign=top;spacingLeft=4;spacingRight=4;overflow=hidden;rotatable=0;points=[[0,0.5],[1,0.5]];portConstraint=eastwest;whiteSpace=wrap;html=1;strokeWidth=5;fontColor=#000000;" parent="_qm1hqhS8DmUpOlpuxI_-96" vertex="1">
          <mxGeometry y="26" width="370" height="64" as="geometry" />
        </mxCell>
        <mxCell id="_qm1hqhS8DmUpOlpuxI_-98" value="" style="line;strokeWidth=5;fillColor=#e3c800;align=left;verticalAlign=middle;spacingTop=-1;spacingLeft=3;spacingRight=3;rotatable=0;labelPosition=right;points=[];portConstraint=eastwest;strokeColor=#B09500;fontColor=#000000;" parent="_qm1hqhS8DmUpOlpuxI_-96" vertex="1">
          <mxGeometry y="90" width="370" height="8" as="geometry" />
        </mxCell>
        <mxCell id="_qm1hqhS8DmUpOlpuxI_-99" value="+ AudioManager()&lt;div&gt;+ getInstance : AudioManager&lt;br&gt;&lt;div&gt;+ update(Observable o, Object arg) : void&lt;/div&gt;&lt;div&gt;- loadSoundEffects() : void&lt;/div&gt;&lt;/div&gt;&lt;div&gt;- playSound(String soundName) : void&lt;/div&gt;&lt;div&gt;....&lt;/div&gt;" style="text;strokeColor=#B09500;fillColor=#e3c800;align=left;verticalAlign=top;spacingLeft=4;spacingRight=4;overflow=hidden;rotatable=0;points=[[0,0.5],[1,0.5]];portConstraint=eastwest;whiteSpace=wrap;html=1;strokeWidth=5;fontColor=#000000;" parent="_qm1hqhS8DmUpOlpuxI_-96" vertex="1">
          <mxGeometry y="98" width="370" height="112" as="geometry" />
        </mxCell>
        <mxCell id="_qm1hqhS8DmUpOlpuxI_-100" value="" style="endArrow=open;endFill=1;endSize=12;html=1;rounded=0;entryX=0.5;entryY=0;entryDx=0;entryDy=0;strokeWidth=5;" parent="1" source="_qm1hqhS8DmUpOlpuxI_-92" target="_qm1hqhS8DmUpOlpuxI_-96" edge="1">
          <mxGeometry width="160" relative="1" as="geometry">
            <mxPoint x="2682" y="-2390" as="sourcePoint" />
            <mxPoint x="1510" y="-36" as="targetPoint" />
          </mxGeometry>
        </mxCell>
        <mxCell id="_qm1hqhS8DmUpOlpuxI_-104" value="ScoreTracker&amp;nbsp;&lt;div&gt;&lt;br&gt;&lt;/div&gt;" style="swimlane;fontStyle=1;align=center;verticalAlign=top;childLayout=stackLayout;horizontal=1;startSize=26;horizontalStack=0;resizeParent=1;resizeParentMax=0;resizeLast=0;collapsible=1;marginBottom=0;whiteSpace=wrap;html=1;fillColor=#dae8fc;strokeColor=#6c8ebf;gradientColor=#7ea6e0;strokeWidth=5;" parent="1" vertex="1">
          <mxGeometry x="5530" y="-1070" width="320" height="210" as="geometry">
            <mxRectangle x="1690" y="340" width="100" height="40" as="alternateBounds" />
          </mxGeometry>
        </mxCell>
        <mxCell id="_qm1hqhS8DmUpOlpuxI_-105" value="&lt;div&gt;- leaderboard : Leaderboard&lt;/div&gt;- paperBoxesOpened : int&lt;div&gt;...&lt;/div&gt;" style="text;strokeColor=#6c8ebf;fillColor=#dae8fc;align=left;verticalAlign=top;spacingLeft=4;spacingRight=4;overflow=hidden;rotatable=0;points=[[0,0.5],[1,0.5]];portConstraint=eastwest;whiteSpace=wrap;html=1;gradientColor=#7ea6e0;strokeWidth=5;" parent="_qm1hqhS8DmUpOlpuxI_-104" vertex="1">
          <mxGeometry y="26" width="320" height="104" as="geometry" />
        </mxCell>
        <mxCell id="_qm1hqhS8DmUpOlpuxI_-106" value="" style="line;strokeWidth=5;fillColor=#dae8fc;align=left;verticalAlign=middle;spacingTop=-1;spacingLeft=3;spacingRight=3;rotatable=0;labelPosition=right;points=[];portConstraint=eastwest;strokeColor=#6c8ebf;gradientColor=#7ea6e0;" parent="_qm1hqhS8DmUpOlpuxI_-104" vertex="1">
          <mxGeometry y="130" width="320" height="8" as="geometry" />
        </mxCell>
        <mxCell id="_qm1hqhS8DmUpOlpuxI_-107" value="+ update(Observable o, Object arg) : void&lt;div&gt;...&lt;/div&gt;" style="text;strokeColor=#6c8ebf;fillColor=#dae8fc;align=left;verticalAlign=top;spacingLeft=4;spacingRight=4;overflow=hidden;rotatable=0;points=[[0,0.5],[1,0.5]];portConstraint=eastwest;whiteSpace=wrap;html=1;gradientColor=#7ea6e0;strokeWidth=5;" parent="_qm1hqhS8DmUpOlpuxI_-104" vertex="1">
          <mxGeometry y="138" width="320" height="72" as="geometry" />
        </mxCell>
        <mxCell id="_qm1hqhS8DmUpOlpuxI_-108" value="" style="endArrow=open;endFill=1;endSize=12;html=1;rounded=0;strokeWidth=5;" parent="1" source="_qm1hqhS8DmUpOlpuxI_-107" target="_qm1hqhS8DmUpOlpuxI_-76" edge="1">
          <mxGeometry width="160" relative="1" as="geometry">
            <mxPoint x="5580" y="-600" as="sourcePoint" />
            <mxPoint x="5740" y="-600" as="targetPoint" />
          </mxGeometry>
        </mxCell>
        <mxCell id="_qm1hqhS8DmUpOlpuxI_-109" value="DogView" style="swimlane;fontStyle=1;align=center;verticalAlign=top;childLayout=stackLayout;horizontal=1;startSize=26;horizontalStack=0;resizeParent=1;resizeParentMax=0;resizeLast=0;collapsible=1;marginBottom=0;whiteSpace=wrap;html=1;fillColor=#d0cee2;strokeColor=#56517e;strokeWidth=5;" parent="1" vertex="1">
          <mxGeometry x="5020" y="-30" width="320" height="210" as="geometry">
            <mxRectangle x="1690" y="340" width="100" height="40" as="alternateBounds" />
          </mxGeometry>
        </mxCell>
        <mxCell id="_qm1hqhS8DmUpOlpuxI_-110" value="- dog : Dog&lt;div&gt;...&lt;/div&gt;" style="text;strokeColor=#56517e;fillColor=#d0cee2;align=left;verticalAlign=top;spacingLeft=4;spacingRight=4;overflow=hidden;rotatable=0;points=[[0,0.5],[1,0.5]];portConstraint=eastwest;whiteSpace=wrap;html=1;strokeWidth=5;" parent="_qm1hqhS8DmUpOlpuxI_-109" vertex="1">
          <mxGeometry y="26" width="320" height="104" as="geometry" />
        </mxCell>
        <mxCell id="_qm1hqhS8DmUpOlpuxI_-111" value="" style="line;strokeWidth=5;fillColor=#d0cee2;align=left;verticalAlign=middle;spacingTop=-1;spacingLeft=3;spacingRight=3;rotatable=0;labelPosition=right;points=[];portConstraint=eastwest;strokeColor=#56517e;" parent="_qm1hqhS8DmUpOlpuxI_-109" vertex="1">
          <mxGeometry y="130" width="320" height="8" as="geometry" />
        </mxCell>
        <mxCell id="_qm1hqhS8DmUpOlpuxI_-112" value="+ DogView(Dog dog)&lt;div&gt;+ draw(Graphics2D g2d) : void&lt;/div&gt;&lt;div&gt;...&lt;/div&gt;" style="text;strokeColor=#56517e;fillColor=#d0cee2;align=left;verticalAlign=top;spacingLeft=4;spacingRight=4;overflow=hidden;rotatable=0;points=[[0,0.5],[1,0.5]];portConstraint=eastwest;whiteSpace=wrap;html=1;strokeWidth=5;" parent="_qm1hqhS8DmUpOlpuxI_-109" vertex="1">
          <mxGeometry y="138" width="320" height="72" as="geometry" />
        </mxCell>
        <mxCell id="_qm1hqhS8DmUpOlpuxI_-114" value="" style="endArrow=diamondThin;endFill=1;endSize=24;html=1;rounded=0;strokeWidth=5;" parent="1" source="hh-YMT1tnlc0o9IW1VK7-123" target="_qm1hqhS8DmUpOlpuxI_-109" edge="1">
          <mxGeometry width="160" relative="1" as="geometry">
            <mxPoint x="4200" y="-60" as="sourcePoint" />
            <mxPoint x="4360" y="-60" as="targetPoint" />
          </mxGeometry>
        </mxCell>
        <mxCell id="_qm1hqhS8DmUpOlpuxI_-115" value="" style="endArrow=open;endFill=1;endSize=12;html=1;rounded=0;strokeWidth=5;" parent="1" source="_qm1hqhS8DmUpOlpuxI_-110" target="hh-YMT1tnlc0o9IW1VK7-138" edge="1">
          <mxGeometry width="160" relative="1" as="geometry">
            <mxPoint x="5580" y="-240" as="sourcePoint" />
            <mxPoint x="5740" y="-240" as="targetPoint" />
          </mxGeometry>
        </mxCell>
        <mxCell id="_qm1hqhS8DmUpOlpuxI_-116" value="DroneView" style="swimlane;fontStyle=1;align=center;verticalAlign=top;childLayout=stackLayout;horizontal=1;startSize=26;horizontalStack=0;resizeParent=1;resizeParentMax=0;resizeLast=0;collapsible=1;marginBottom=0;whiteSpace=wrap;html=1;fillColor=#d0cee2;strokeColor=#56517e;strokeWidth=5;" parent="1" vertex="1">
          <mxGeometry x="5030" y="-310" width="320" height="210" as="geometry">
            <mxRectangle x="1690" y="340" width="100" height="40" as="alternateBounds" />
          </mxGeometry>
        </mxCell>
        <mxCell id="_qm1hqhS8DmUpOlpuxI_-117" value="- drone : Drone&lt;div&gt;...&lt;/div&gt;" style="text;strokeColor=#56517e;fillColor=#d0cee2;align=left;verticalAlign=top;spacingLeft=4;spacingRight=4;overflow=hidden;rotatable=0;points=[[0,0.5],[1,0.5]];portConstraint=eastwest;whiteSpace=wrap;html=1;strokeWidth=5;" parent="_qm1hqhS8DmUpOlpuxI_-116" vertex="1">
          <mxGeometry y="26" width="320" height="104" as="geometry" />
        </mxCell>
        <mxCell id="_qm1hqhS8DmUpOlpuxI_-118" value="" style="line;strokeWidth=5;fillColor=#d0cee2;align=left;verticalAlign=middle;spacingTop=-1;spacingLeft=3;spacingRight=3;rotatable=0;labelPosition=right;points=[];portConstraint=eastwest;strokeColor=#56517e;" parent="_qm1hqhS8DmUpOlpuxI_-116" vertex="1">
          <mxGeometry y="130" width="320" height="8" as="geometry" />
        </mxCell>
        <mxCell id="_qm1hqhS8DmUpOlpuxI_-119" value="+ DroneView (Drone drone)&lt;div&gt;+ draw(Graphics2D g2d) : void&lt;/div&gt;&lt;div&gt;...&lt;/div&gt;" style="text;strokeColor=#56517e;fillColor=#d0cee2;align=left;verticalAlign=top;spacingLeft=4;spacingRight=4;overflow=hidden;rotatable=0;points=[[0,0.5],[1,0.5]];portConstraint=eastwest;whiteSpace=wrap;html=1;strokeWidth=5;" parent="_qm1hqhS8DmUpOlpuxI_-116" vertex="1">
          <mxGeometry y="138" width="320" height="72" as="geometry" />
        </mxCell>
        <mxCell id="_qm1hqhS8DmUpOlpuxI_-120" value="" style="endArrow=diamondThin;endFill=1;endSize=24;html=1;rounded=0;strokeWidth=5;" parent="1" source="hh-YMT1tnlc0o9IW1VK7-123" target="_qm1hqhS8DmUpOlpuxI_-116" edge="1">
          <mxGeometry width="160" relative="1" as="geometry">
            <mxPoint x="4220" y="25" as="sourcePoint" />
            <mxPoint x="4720" y="-100" as="targetPoint" />
          </mxGeometry>
        </mxCell>
        <mxCell id="_qm1hqhS8DmUpOlpuxI_-121" value="" style="endArrow=open;endFill=1;endSize=12;html=1;rounded=0;strokeWidth=5;" parent="1" source="_qm1hqhS8DmUpOlpuxI_-116" target="hh-YMT1tnlc0o9IW1VK7-134" edge="1">
          <mxGeometry width="160" relative="1" as="geometry">
            <mxPoint x="5290" y="-280" as="sourcePoint" />
            <mxPoint x="5450" y="-280" as="targetPoint" />
          </mxGeometry>
        </mxCell>
        <mxCell id="_qm1hqhS8DmUpOlpuxI_-122" value="&lt;div&gt;ResultScreenController&lt;/div&gt;" style="swimlane;fontStyle=1;align=center;verticalAlign=top;childLayout=stackLayout;horizontal=1;startSize=26;horizontalStack=0;resizeParent=1;resizeParentMax=0;resizeLast=0;collapsible=1;marginBottom=0;whiteSpace=wrap;html=1;fillColor=#f8cecc;gradientColor=#ea6b66;strokeColor=#b85450;strokeWidth=5;" parent="1" vertex="1">
          <mxGeometry x="640" y="-1730" width="730" height="210" as="geometry">
            <mxRectangle x="1690" y="340" width="100" height="40" as="alternateBounds" />
          </mxGeometry>
        </mxCell>
        <mxCell id="_qm1hqhS8DmUpOlpuxI_-123" value="- resultScreenView :ResultScreenView&amp;nbsp;&lt;div&gt;- window : JFrame&lt;/div&gt;" style="text;align=left;verticalAlign=top;spacingLeft=4;spacingRight=4;overflow=hidden;rotatable=0;points=[[0,0.5],[1,0.5]];portConstraint=eastwest;whiteSpace=wrap;html=1;fillColor=#f8cecc;gradientColor=#ea6b66;strokeColor=#b85450;strokeWidth=5;" parent="_qm1hqhS8DmUpOlpuxI_-122" vertex="1">
          <mxGeometry y="26" width="730" height="104" as="geometry" />
        </mxCell>
        <mxCell id="_qm1hqhS8DmUpOlpuxI_-124" value="" style="line;strokeWidth=5;align=left;verticalAlign=middle;spacingTop=-1;spacingLeft=3;spacingRight=3;rotatable=0;labelPosition=right;points=[];portConstraint=eastwest;fillColor=#f8cecc;gradientColor=#ea6b66;strokeColor=#b85450;" parent="_qm1hqhS8DmUpOlpuxI_-122" vertex="1">
          <mxGeometry y="130" width="730" height="8" as="geometry" />
        </mxCell>
        <mxCell id="_qm1hqhS8DmUpOlpuxI_-125" value="+ ResultScreenController : (ResultScreenView resultScreenView)&lt;div&gt;+ keyPressed(KeyEvent e): void&lt;/div&gt;&lt;div&gt;- goToMainMenu&lt;/div&gt;" style="text;align=left;verticalAlign=top;spacingLeft=4;spacingRight=4;overflow=hidden;rotatable=0;points=[[0,0.5],[1,0.5]];portConstraint=eastwest;whiteSpace=wrap;html=1;fillColor=#f8cecc;gradientColor=#ea6b66;strokeColor=#b85450;strokeWidth=5;" parent="_qm1hqhS8DmUpOlpuxI_-122" vertex="1">
          <mxGeometry y="138" width="730" height="72" as="geometry" />
        </mxCell>
        <mxCell id="_qm1hqhS8DmUpOlpuxI_-126" value="" style="endArrow=open;endFill=1;endSize=12;html=1;rounded=0;entryX=0.5;entryY=0;entryDx=0;entryDy=0;strokeWidth=5;" parent="1" source="_qm1hqhS8DmUpOlpuxI_-125" target="hh-YMT1tnlc0o9IW1VK7-242" edge="1">
          <mxGeometry width="160" relative="1" as="geometry">
            <mxPoint x="860" y="-1350" as="sourcePoint" />
            <mxPoint x="1020" y="-1350" as="targetPoint" />
          </mxGeometry>
        </mxCell>
        <mxCell id="_qm1hqhS8DmUpOlpuxI_-128" value="" style="endArrow=open;endFill=1;endSize=12;html=1;rounded=0;entryX=0;entryY=0.5;entryDx=0;entryDy=0;exitX=0.5;exitY=0;exitDx=0;exitDy=0;strokeWidth=5;" parent="1" source="_qm1hqhS8DmUpOlpuxI_-122" target="_qm1hqhS8DmUpOlpuxI_-43" edge="1">
          <mxGeometry width="160" relative="1" as="geometry">
            <mxPoint x="1687" y="-2570" as="sourcePoint" />
            <mxPoint x="1520" y="-1790" as="targetPoint" />
          </mxGeometry>
        </mxCell>
        <mxCell id="_qm1hqhS8DmUpOlpuxI_-129" value="" style="endArrow=open;endFill=1;endSize=12;html=1;rounded=0;entryX=0.5;entryY=0;entryDx=0;entryDy=0;strokeWidth=5;" parent="1" source="jvlwoZfvZ4fpxJS0tQdi-6" target="_qm1hqhS8DmUpOlpuxI_-122" edge="1">
          <mxGeometry width="160" relative="1" as="geometry">
            <mxPoint x="1210" y="-2450" as="sourcePoint" />
            <mxPoint x="1370" y="-2450" as="targetPoint" />
          </mxGeometry>
        </mxCell>
        <mxCell id="_qm1hqhS8DmUpOlpuxI_-132" value="&lt;font style=&quot;font-size: 50px;&quot;&gt;MODEL&lt;/font&gt;" style="shape=umlFrame;whiteSpace=wrap;html=1;pointerEvents=0;swimlaneFillColor=none;fillColor=#dae8fc;strokeWidth=5;width=460;height=190;strokeColor=#6c8ebf;" parent="1" vertex="1">
          <mxGeometry x="4910" y="-1310" width="2980" height="5290" as="geometry" />
        </mxCell>
        <mxCell id="_qm1hqhS8DmUpOlpuxI_-133" value="&lt;span style=&quot;font-size: 50px;&quot;&gt;&lt;font style=&quot;color: rgb(38, 38, 38);&quot;&gt;VIEW&lt;/font&gt;&lt;/span&gt;" style="shape=umlFrame;whiteSpace=wrap;html=1;pointerEvents=0;swimlaneFillColor=none;fillColor=#fff2cc;strokeWidth=5;width=460;height=190;strokeColor=#d6b656;" parent="1" vertex="1">
          <mxGeometry x="380" y="-1310" width="4460" height="5360" as="geometry" />
        </mxCell>
        <mxCell id="_qm1hqhS8DmUpOlpuxI_-134" value="&lt;span style=&quot;font-size: 50px;&quot;&gt;&lt;font style=&quot;color: rgb(38, 38, 38);&quot;&gt;CONTROLLER&lt;/font&gt;&lt;/span&gt;" style="shape=umlFrame;whiteSpace=wrap;html=1;pointerEvents=0;swimlaneFillColor=none;fillColor=#f8cecc;strokeWidth=5;width=460;height=190;strokeColor=#b85450;" parent="1" vertex="1">
          <mxGeometry x="570" y="-3130" width="6820" height="1760" as="geometry" />
        </mxCell>
        <mxCell id="A5bJ7_nF7461zflTbuZY-3" value="Observable" style="swimlane;fontStyle=1;align=center;verticalAlign=top;childLayout=stackLayout;horizontal=1;startSize=26;horizontalStack=0;resizeParent=1;resizeParentMax=0;resizeLast=0;collapsible=1;marginBottom=0;whiteSpace=wrap;html=1;strokeWidth=5;" parent="1" vertex="1">
          <mxGeometry x="5220" y="-2720" width="360" height="210" as="geometry" />
        </mxCell>
        <mxCell id="A5bJ7_nF7461zflTbuZY-4" value="..." style="text;strokeColor=none;fillColor=none;align=left;verticalAlign=top;spacingLeft=4;spacingRight=4;overflow=hidden;rotatable=0;points=[[0,0.5],[1,0.5]];portConstraint=eastwest;whiteSpace=wrap;html=1;strokeWidth=5;" parent="A5bJ7_nF7461zflTbuZY-3" vertex="1">
          <mxGeometry y="26" width="360" height="104" as="geometry" />
        </mxCell>
        <mxCell id="A5bJ7_nF7461zflTbuZY-5" value="" style="line;strokeWidth=5;fillColor=none;align=left;verticalAlign=middle;spacingTop=-1;spacingLeft=3;spacingRight=3;rotatable=0;labelPosition=right;points=[];portConstraint=eastwest;strokeColor=inherit;" parent="A5bJ7_nF7461zflTbuZY-3" vertex="1">
          <mxGeometry y="130" width="360" height="8" as="geometry" />
        </mxCell>
        <mxCell id="A5bJ7_nF7461zflTbuZY-6" value="..." style="text;strokeColor=none;fillColor=none;align=left;verticalAlign=top;spacingLeft=4;spacingRight=4;overflow=hidden;rotatable=0;points=[[0,0.5],[1,0.5]];portConstraint=eastwest;whiteSpace=wrap;html=1;strokeWidth=5;" parent="A5bJ7_nF7461zflTbuZY-3" vertex="1">
          <mxGeometry y="138" width="360" height="72" as="geometry" />
        </mxCell>
        <mxCell id="A5bJ7_nF7461zflTbuZY-7" value="Extends" style="endArrow=block;endSize=16;endFill=0;html=1;rounded=0;exitX=0.5;exitY=0;exitDx=0;exitDy=0;strokeWidth=5;" parent="1" source="_qm1hqhS8DmUpOlpuxI_-33" target="A5bJ7_nF7461zflTbuZY-6" edge="1">
          <mxGeometry width="160" relative="1" as="geometry">
            <mxPoint x="5110" y="-2100" as="sourcePoint" />
            <mxPoint x="5270" y="-2100" as="targetPoint" />
          </mxGeometry>
        </mxCell>
        <mxCell id="A5bJ7_nF7461zflTbuZY-8" value="Extends" style="endArrow=block;endSize=16;endFill=0;html=1;rounded=0;exitX=0.5;exitY=0;exitDx=0;exitDy=0;entryX=1;entryY=0.5;entryDx=0;entryDy=0;strokeWidth=5;" parent="1" source="_qm1hqhS8DmUpOlpuxI_-67" target="A5bJ7_nF7461zflTbuZY-6" edge="1">
          <mxGeometry width="160" relative="1" as="geometry">
            <mxPoint x="6044" y="-1490" as="sourcePoint" />
            <mxPoint x="5920" y="-2250" as="targetPoint" />
          </mxGeometry>
        </mxCell>
        <mxCell id="A5bJ7_nF7461zflTbuZY-9" value="Extends" style="endArrow=block;endSize=16;endFill=0;html=1;rounded=0;exitX=0.5;exitY=0;exitDx=0;exitDy=0;entryX=0.004;entryY=0.966;entryDx=0;entryDy=0;entryPerimeter=0;strokeWidth=5;" parent="1" source="_qm1hqhS8DmUpOlpuxI_-23" target="_qm1hqhS8DmUpOlpuxI_-45" edge="1">
          <mxGeometry width="160" relative="1" as="geometry">
            <mxPoint x="2774" y="-1320" as="sourcePoint" />
            <mxPoint x="2650" y="-2080" as="targetPoint" />
          </mxGeometry>
        </mxCell>
        <mxCell id="A5bJ7_nF7461zflTbuZY-10" value="Extends" style="endArrow=block;endSize=16;endFill=0;html=1;rounded=0;exitX=1;exitY=0;exitDx=0;exitDy=0;entryX=0;entryY=0.5;entryDx=0;entryDy=0;strokeWidth=5;" parent="1" source="_qm1hqhS8DmUpOlpuxI_-122" target="_qm1hqhS8DmUpOlpuxI_-45" edge="1">
          <mxGeometry width="160" relative="1" as="geometry">
            <mxPoint x="1484" y="-1740" as="sourcePoint" />
            <mxPoint x="1360" y="-2500" as="targetPoint" />
          </mxGeometry>
        </mxCell>
        <mxCell id="A5bJ7_nF7461zflTbuZY-11" value="Extends" style="endArrow=block;endSize=16;endFill=0;html=1;rounded=0;exitX=1;exitY=0.5;exitDx=0;exitDy=0;entryX=0;entryY=0.5;entryDx=0;entryDy=0;strokeWidth=5;" parent="1" source="jvlwoZfvZ4fpxJS0tQdi-4" target="_qm1hqhS8DmUpOlpuxI_-43" edge="1">
          <mxGeometry width="160" relative="1" as="geometry">
            <mxPoint x="3664" y="-1990" as="sourcePoint" />
            <mxPoint x="3540" y="-2750" as="targetPoint" />
          </mxGeometry>
        </mxCell>
        <mxCell id="A5bJ7_nF7461zflTbuZY-12" value="Extends" style="endArrow=block;endSize=16;endFill=0;html=1;rounded=0;exitX=0.75;exitY=0;exitDx=0;exitDy=0;entryX=0.194;entryY=0.967;entryDx=0;entryDy=0;entryPerimeter=0;strokeWidth=5;" parent="1" source="_qm1hqhS8DmUpOlpuxI_-60" target="_qm1hqhS8DmUpOlpuxI_-45" edge="1">
          <mxGeometry width="160" relative="1" as="geometry">
            <mxPoint x="3694" y="-1450" as="sourcePoint" />
            <mxPoint x="3570" y="-2210" as="targetPoint" />
          </mxGeometry>
        </mxCell>
        <mxCell id="A5bJ7_nF7461zflTbuZY-13" value="Extends" style="endArrow=block;endSize=16;endFill=0;html=1;rounded=0;exitX=0.75;exitY=1;exitDx=0;exitDy=0;entryX=0.5;entryY=0;entryDx=0;entryDy=0;strokeWidth=5;" parent="1" source="hh-YMT1tnlc0o9IW1VK7-144" target="hh-YMT1tnlc0o9IW1VK7-118" edge="1">
          <mxGeometry width="160" relative="1" as="geometry">
            <mxPoint x="7854" y="1100" as="sourcePoint" />
            <mxPoint x="7730" y="340" as="targetPoint" />
          </mxGeometry>
        </mxCell>
        <mxCell id="A5bJ7_nF7461zflTbuZY-14" value="Extends" style="endArrow=block;endSize=16;endFill=0;html=1;rounded=0;exitX=1;exitY=0.5;exitDx=0;exitDy=0;entryX=0;entryY=0.5;entryDx=0;entryDy=0;strokeWidth=5;" parent="1" source="hh-YMT1tnlc0o9IW1VK7-213" target="hh-YMT1tnlc0o9IW1VK7-119" edge="1">
          <mxGeometry width="160" relative="1" as="geometry">
            <mxPoint x="7225" y="1570" as="sourcePoint" />
            <mxPoint x="7101" y="810" as="targetPoint" />
          </mxGeometry>
        </mxCell>
        <mxCell id="A5bJ7_nF7461zflTbuZY-16" value="" style="endArrow=block;dashed=1;endFill=0;endSize=12;html=1;rounded=0;entryX=0.481;entryY=1.005;entryDx=0;entryDy=0;entryPerimeter=0;exitX=0.5;exitY=0;exitDx=0;exitDy=0;strokeWidth=5;" parent="1" source="_qm1hqhS8DmUpOlpuxI_-104" target="A5bJ7_nF7461zflTbuZY-21" edge="1">
          <mxGeometry width="160" relative="1" as="geometry">
            <mxPoint x="5420.78" y="-720" as="sourcePoint" />
            <mxPoint x="5259.999088937093" y="-1060" as="targetPoint" />
          </mxGeometry>
        </mxCell>
        <mxCell id="A5bJ7_nF7461zflTbuZY-18" value="Observer&lt;div&gt;&lt;br&gt;&lt;/div&gt;" style="swimlane;fontStyle=1;align=center;verticalAlign=top;childLayout=stackLayout;horizontal=1;startSize=26;horizontalStack=0;resizeParent=1;resizeParentMax=0;resizeLast=0;collapsible=1;marginBottom=0;whiteSpace=wrap;html=1;strokeWidth=5;" parent="1" vertex="1">
          <mxGeometry x="5610" y="-1220" width="160" height="86" as="geometry" />
        </mxCell>
        <mxCell id="A5bJ7_nF7461zflTbuZY-19" value="..." style="text;strokeColor=none;fillColor=none;align=left;verticalAlign=top;spacingLeft=4;spacingRight=4;overflow=hidden;rotatable=0;points=[[0,0.5],[1,0.5]];portConstraint=eastwest;whiteSpace=wrap;html=1;strokeWidth=5;" parent="A5bJ7_nF7461zflTbuZY-18" vertex="1">
          <mxGeometry y="26" width="160" height="26" as="geometry" />
        </mxCell>
        <mxCell id="A5bJ7_nF7461zflTbuZY-20" value="" style="line;strokeWidth=5;fillColor=none;align=left;verticalAlign=middle;spacingTop=-1;spacingLeft=3;spacingRight=3;rotatable=0;labelPosition=right;points=[];portConstraint=eastwest;strokeColor=inherit;" parent="A5bJ7_nF7461zflTbuZY-18" vertex="1">
          <mxGeometry y="52" width="160" height="8" as="geometry" />
        </mxCell>
        <mxCell id="A5bJ7_nF7461zflTbuZY-21" value="..." style="text;strokeColor=none;fillColor=none;align=left;verticalAlign=top;spacingLeft=4;spacingRight=4;overflow=hidden;rotatable=0;points=[[0,0.5],[1,0.5]];portConstraint=eastwest;whiteSpace=wrap;html=1;strokeWidth=5;" parent="A5bJ7_nF7461zflTbuZY-18" vertex="1">
          <mxGeometry y="60" width="160" height="26" as="geometry" />
        </mxCell>
        <mxCell id="A5bJ7_nF7461zflTbuZY-26" value="Observer" style="swimlane;fontStyle=1;align=center;verticalAlign=top;childLayout=stackLayout;horizontal=1;startSize=26;horizontalStack=0;resizeParent=1;resizeParentMax=0;resizeLast=0;collapsible=1;marginBottom=0;whiteSpace=wrap;html=1;strokeWidth=5;" parent="1" vertex="1">
          <mxGeometry x="2710" y="1327" width="160" height="86" as="geometry" />
        </mxCell>
        <mxCell id="A5bJ7_nF7461zflTbuZY-27" value="..." style="text;strokeColor=none;fillColor=none;align=left;verticalAlign=top;spacingLeft=4;spacingRight=4;overflow=hidden;rotatable=0;points=[[0,0.5],[1,0.5]];portConstraint=eastwest;whiteSpace=wrap;html=1;strokeWidth=5;" parent="A5bJ7_nF7461zflTbuZY-26" vertex="1">
          <mxGeometry y="26" width="160" height="26" as="geometry" />
        </mxCell>
        <mxCell id="A5bJ7_nF7461zflTbuZY-28" value="" style="line;strokeWidth=5;fillColor=none;align=left;verticalAlign=middle;spacingTop=-1;spacingLeft=3;spacingRight=3;rotatable=0;labelPosition=right;points=[];portConstraint=eastwest;strokeColor=inherit;" parent="A5bJ7_nF7461zflTbuZY-26" vertex="1">
          <mxGeometry y="52" width="160" height="8" as="geometry" />
        </mxCell>
        <mxCell id="A5bJ7_nF7461zflTbuZY-29" value="..." style="text;strokeColor=none;fillColor=none;align=left;verticalAlign=top;spacingLeft=4;spacingRight=4;overflow=hidden;rotatable=0;points=[[0,0.5],[1,0.5]];portConstraint=eastwest;whiteSpace=wrap;html=1;strokeWidth=5;" parent="A5bJ7_nF7461zflTbuZY-26" vertex="1">
          <mxGeometry y="60" width="160" height="26" as="geometry" />
        </mxCell>
        <mxCell id="A5bJ7_nF7461zflTbuZY-30" value="" style="endArrow=block;dashed=1;endFill=0;endSize=12;html=1;rounded=0;exitX=0.5;exitY=0;exitDx=0;exitDy=0;strokeWidth=5;" parent="1" source="hh-YMT1tnlc0o9IW1VK7-17" target="A5bJ7_nF7461zflTbuZY-26" edge="1">
          <mxGeometry width="160" relative="1" as="geometry">
            <mxPoint x="3190" y="1480" as="sourcePoint" />
            <mxPoint x="3350" y="1480" as="targetPoint" />
          </mxGeometry>
        </mxCell>
        <mxCell id="A5bJ7_nF7461zflTbuZY-32" value="" style="endArrow=block;dashed=1;endFill=0;endSize=12;html=1;rounded=0;entryX=0.55;entryY=0.962;entryDx=0;entryDy=0;exitX=0.5;exitY=0;exitDx=0;exitDy=0;entryPerimeter=0;strokeWidth=5;" parent="1" source="hh-YMT1tnlc0o9IW1VK7-151" target="A5bJ7_nF7461zflTbuZY-29" edge="1">
          <mxGeometry width="160" relative="1" as="geometry">
            <mxPoint x="3160" y="2500" as="sourcePoint" />
            <mxPoint x="3320" y="2500" as="targetPoint" />
          </mxGeometry>
        </mxCell>
        <mxCell id="A5bJ7_nF7461zflTbuZY-33" value="" style="endArrow=block;dashed=1;endFill=0;endSize=12;html=1;rounded=0;entryX=0;entryY=0.5;entryDx=0;entryDy=0;exitX=1;exitY=0.5;exitDx=0;exitDy=0;strokeWidth=5;" parent="1" source="_qm1hqhS8DmUpOlpuxI_-99" target="A5bJ7_nF7461zflTbuZY-27" edge="1">
          <mxGeometry width="160" relative="1" as="geometry">
            <mxPoint x="2070" y="2367" as="sourcePoint" />
            <mxPoint x="2265" y="2160" as="targetPoint" />
          </mxGeometry>
        </mxCell>
        <mxCell id="A5bJ7_nF7461zflTbuZY-34" value="" style="endArrow=block;dashed=1;endFill=0;endSize=12;html=1;rounded=0;entryX=1;entryY=0.5;entryDx=0;entryDy=0;strokeWidth=5;" parent="1" source="hh-YMT1tnlc0o9IW1VK7-208" target="A5bJ7_nF7461zflTbuZY-27" edge="1">
          <mxGeometry width="160" relative="1" as="geometry">
            <mxPoint x="3719" y="1467" as="sourcePoint" />
            <mxPoint x="3300" y="1230" as="targetPoint" />
          </mxGeometry>
        </mxCell>
        <mxCell id="6BAI_pqkwPiEL3w9cryP-1" value="" style="endArrow=open;endFill=1;endSize=12;html=1;rounded=0;entryX=0.75;entryY=0;entryDx=0;entryDy=0;strokeWidth=5;exitX=0.5;exitY=1;exitDx=0;exitDy=0;" edge="1" parent="1" source="_qm1hqhS8DmUpOlpuxI_-89" target="_qm1hqhS8DmUpOlpuxI_-27">
          <mxGeometry width="160" relative="1" as="geometry">
            <mxPoint x="3367" y="-2260" as="sourcePoint" />
            <mxPoint x="2710" y="-616" as="targetPoint" />
          </mxGeometry>
        </mxCell>
      </root>
    </mxGraphModel>
  </diagram>
</mxfile>
